<?xml version="1.0" encoding="utf-8"?>
<!-- Generator: Adobe Illustrator 23.0.6, SVG Export Plug-In . SVG Version: 6.00 Build 0)  -->
<svg version="1.1" xmlns="http://www.w3.org/2000/svg" xmlns:xlink="http://www.w3.org/1999/xlink" x="0px" y="0px"
	 viewBox="0 0 32 32" style="enable-background:new 0 0 32 32;" xml:space="preserve">
<style type="text/css">
	.st0{fill:#FEFEFE;}
	.st1{fill:#FCFCFC;}
	.st2{fill:#999999;}
	.st3{fill:#969696;}
	.st4{fill:#989898;}
	.st5{fill:#BCBCBC;}
	.st6{fill:#ACACAC;}
	.st7{fill:#545454;}
	.st8{fill:#D6D6D6;}
	.st9{fill:#898989;}
	.st10{fill:#6E6E6E;}
	.st11{fill:#EEEEEE;}
	.st12{fill:#CDCDCD;}
	.st13{fill:#F1F1F1;}
	.st14{fill:#6A6A6A;}
	.st15{fill:#CECECE;}
	.st16{fill:#E4E4E4;}
	.st17{fill:#7C7C7C;}
	.st18{fill:#A7A7A7;}
	.st19{fill:#E1E1E1;}
	.st20{fill:#BBBBBB;}
	.st21{fill:#A8A8A8;}
	.st22{fill:#8F8F8F;}
	.st23{fill:#5D5D5D;}
	.st24{fill:#5E5E5E;}
	.st25{fill:#919191;}
	.st26{fill:#F5F5F5;}
	.st27{fill:#F6F6F6;}
	.st28{fill:#A3A3A3;}
	.st29{fill:#8B8B8B;}
	.st30{fill:#C9C9C9;}
	.st31{fill:#BDBDBD;}
	.st32{fill:#A9A9A9;}
	.st33{fill:#8E8E8E;}
	.st34{fill:#A1A1A1;}
	.st35{fill:#828282;}
	.st36{fill:#C8C8C8;}
	.st37{fill:#888888;}
	.st38{fill:#B9B9B9;}
	.st39{fill:#A0A0A0;}
	.st40{fill:#C3C3C3;}
	.st41{fill:#929292;}
	.st42{fill:#838383;}
	.st43{fill:#C5C5C5;}
	.st44{fill:#C6C6C6;}
	.st45{fill:#868686;}
	.st46{fill:#B5B5B5;}
	.st47{fill:#B2B2B2;}
	.st48{fill:#848484;}
	.st49{fill:#B0B0B0;}
	.st50{fill:#B3B3B3;}
	.st51{fill:#858585;}
	.st52{fill:#8A8A8A;}
	.st53{fill:#C0C0C0;}
	.st54{fill:#909090;}
	.st55{fill:#9F9F9F;}
	.st56{fill:#C7C7C7;}
	.st57{fill:#BABABA;}
	.st58{fill:#DDDDDD;}
	.st59{fill:#C1C1C1;}
	.st60{fill:#D8D8D8;}
	.st61{fill:#CACACA;}
	.st62{fill:#DFDFDF;}
	.st63{fill:#7D7D7D;}
	.st64{fill:#6C6C6C;}
	.st65{fill:#737373;}
	.st66{fill:#6D6D6D;}
	.st67{fill:#DCDCDC;}
	.st68{fill:#747474;}
	.st69{fill:#C2C2C2;}
	.st70{fill:#949494;}
	.st71{fill:#B7B7B7;}
	.st72{fill:#6F6F6F;}
	.st73{fill:#E8E8E8;}
	.st74{fill:#A5A5A5;}
	.st75{fill:#A4A4A4;}
	.st76{fill:#8D8D8D;}
	.st77{fill:#939393;}
	.st78{fill:#5F5F5F;}
	.st79{fill:#666666;}
	.st80{fill:#454545;}
	.st81{fill:#515151;}
	.st82{fill:#E0E0E0;}
	.st83{fill:#DBDBDB;}
	.st84{fill:#CFCFCF;}
	.st85{fill:#959595;}
	.st86{fill:#FDFDFD;}
	.st87{fill:#353535;}
	.st88{fill:#3B3B3B;}
	.st89{fill:#F3F3F3;}
	.st90{fill:#3C3C3C;}
	.st91{fill:#AFAFAF;}
	.st92{fill:#757575;}
	.st93{fill:#CCCCCC;}
	.st94{fill:#C4C4C4;}
	.st95{fill:#E7E7E7;}
	.st96{fill:#D5D5D5;}
	.st97{fill:#E9E9E9;}
	.st98{fill:#E3E3E3;}
	.st99{fill:#AEAEAE;}
	.st100{fill:#9C9C9C;}
	.st101{fill:#6B6B6B;}
	.st102{fill:#646464;}
	.st103{fill:#D4D4D4;}
	.st104{fill:#7A7A7A;}
	.st105{fill:#787878;}
	.st106{opacity:0.36;fill:#DFDFDF;}
</style>
<g id="Layer_1">
	<g>
		<path class="st0" d="M16.62,1.12c4.79,0,9.59,0,14.38,0c0,9.98,0,19.96,0,29.94c-9.99,0-19.98,0-29.97,0c0-9.98,0-19.96,0-29.94
			c4.84,0,9.69,0,14.53,0c-0.13,0.28-0.27,0.56-0.4,0.84c-0.14,0.17-0.27,0.34-0.42,0.49c-0.26,0.26-0.58,0.32-0.92,0.17
			c-0.14-0.06-0.27-0.15-0.4-0.22c-0.24-0.26-0.47-0.52-0.71-0.78c-0.07-0.04-0.14-0.11-0.2-0.1c-0.23,0.05-0.45,0.12-0.67,0.18
			c-0.06,0.05-0.16,0.09-0.17,0.14c-0.05,0.22-0.07,0.45-0.11,0.67c-0.12,0.28-0.22,0.58-0.37,0.85c-0.11,0.21-0.32,0.32-0.56,0.3
			c-0.21-0.01-0.42-0.08-0.63-0.12c-0.3-0.2-0.6-0.39-0.9-0.59C9.03,2.95,8.95,2.9,8.9,2.92C8.69,3.04,8.49,3.17,8.28,3.29
			C8.19,3.34,8.18,3.4,8.19,3.5c0.03,0.25,0.05,0.51,0.07,0.77C8.23,4.5,8.22,4.75,8.16,4.98C8.07,5.35,7.81,5.54,7.43,5.54
			c-0.17,0-0.35-0.02-0.52-0.02C6.69,5.45,6.48,5.38,6.27,5.31C6.14,5.26,6.01,5.21,5.88,5.17C5.67,5.37,5.47,5.58,5.26,5.79
			c0.02,0.07,0.03,0.14,0.05,0.2c0.09,0.27,0.18,0.53,0.27,0.8c0.01,0.08,0.03,0.15,0.04,0.23c0.07,0.6-0.07,1-0.76,1.12
			C4.65,8.16,4.44,8.15,4.23,8.16c-0.2-0.02-0.4-0.03-0.6-0.06C3.54,8.09,3.46,8.09,3.42,8.19C3.29,8.4,3.17,8.61,3.04,8.82
			C2.99,8.89,3.01,8.95,3.08,9c0.19,0.31,0.38,0.62,0.57,0.92c0.02,0.05,0.04,0.1,0.06,0.14c0.22,0.59,0.07,0.97-0.5,1.23
			c-0.2,0.09-0.43,0.14-0.64,0.21c-0.19,0.03-0.38,0.06-0.56,0.08c-0.08,0.01-0.15,0.04-0.15,0.14c-0.06,0.21-0.12,0.43-0.19,0.64
			c-0.05,0.15-0.01,0.24,0.12,0.3c0.24,0.23,0.48,0.45,0.72,0.68c0.05,0.08,0.11,0.15,0.15,0.23c0.27,0.46,0.22,0.81-0.15,1.18
			c-0.14,0.14-0.29,0.26-0.44,0.39c-0.24,0.12-0.49,0.24-0.73,0.36c-0.05,0.02-0.07,0.09-0.1,0.14c0,0.27,0,0.54,0,0.81
			c0.03,0.05,0.06,0.12,0.1,0.14c0.24,0.13,0.49,0.24,0.73,0.36c0.17,0.15,0.36,0.28,0.52,0.44c0.24,0.24,0.31,0.54,0.19,0.86
			c-0.07,0.17-0.18,0.31-0.27,0.47c-0.24,0.23-0.48,0.45-0.72,0.68c-0.05,0.07-0.15,0.14-0.14,0.2c0.03,0.18,0.09,0.35,0.14,0.52
			c0.02,0.07,0.05,0.15,0.05,0.22c0.01,0.12,0.07,0.16,0.18,0.17c0.18,0.02,0.36,0.05,0.55,0.08c0.27,0.1,0.54,0.17,0.79,0.29
			c0.38,0.19,0.52,0.53,0.42,0.95c-0.03,0.12-0.08,0.23-0.12,0.35c-0.2,0.31-0.39,0.62-0.59,0.93c0,0.05-0.03,0.11-0.01,0.15
			c0.11,0.2,0.23,0.4,0.35,0.6c0.04,0.13,0.13,0.13,0.25,0.12c0.18-0.03,0.37-0.04,0.55-0.06c0.28,0.02,0.57,0.02,0.84,0.08
			c0.38,0.08,0.59,0.37,0.59,0.75c0,0.18-0.04,0.37-0.05,0.55c-0.1,0.29-0.2,0.59-0.29,0.88c-0.02,0.05,0,0.12,0.01,0.18
			c0.19,0.19,0.37,0.37,0.56,0.56c0.05,0,0.1,0.02,0.14,0.01c0.3-0.1,0.59-0.21,0.88-0.32c0.13-0.01,0.26-0.03,0.39-0.04
			c0.49-0.03,0.79,0.15,0.91,0.59c0.06,0.22,0.06,0.46,0.08,0.69c-0.02,0.24-0.04,0.48-0.07,0.72c-0.02,0.12,0.02,0.2,0.13,0.24
			c0.19,0.11,0.38,0.23,0.57,0.33c0.04,0.02,0.11-0.01,0.17-0.01c0.04-0.03,0.09-0.05,0.13-0.08c0.34-0.25,0.69-0.5,1.11-0.61
			c0.44-0.12,0.78,0.01,0.98,0.41c0.12,0.24,0.19,0.51,0.28,0.77c0.03,0.17,0.08,0.34,0.08,0.5c0,0.19,0.1,0.25,0.26,0.27
			c0.2,0.05,0.4,0.1,0.6,0.16c0.08,0.02,0.14,0.02,0.18-0.06c0.25-0.27,0.5-0.53,0.75-0.8c0.06-0.04,0.12-0.08,0.18-0.12
			c0.49-0.31,0.89-0.25,1.27,0.18c0.12,0.13,0.22,0.28,0.32,0.41c0.12,0.25,0.23,0.5,0.36,0.75c0.02,0.04,0.1,0.05,0.15,0.08
			c0.27,0,0.53,0,0.8,0c0.05-0.02,0.11-0.04,0.13-0.08c0.13-0.26,0.25-0.52,0.37-0.78c0.05-0.07,0.1-0.14,0.15-0.21
			c0.46-0.64,0.96-0.71,1.59-0.23c0.09,0.09,0.19,0.17,0.28,0.27c0.16,0.17,0.31,0.34,0.47,0.51c0.05,0.03,0.12,0.1,0.16,0.09
			c0.23-0.05,0.46-0.12,0.68-0.18c0.13,0.01,0.18-0.05,0.2-0.18c0.03-0.21,0.07-0.43,0.1-0.64c0.09-0.25,0.16-0.51,0.28-0.75
			c0.16-0.3,0.42-0.45,0.77-0.4c0.16,0.02,0.32,0.08,0.47,0.13c0.32,0.21,0.64,0.41,0.97,0.62c0.05,0,0.11,0.01,0.15-0.02
			c0.19-0.1,0.38-0.22,0.56-0.33c0.14-0.05,0.16-0.14,0.14-0.28c-0.04-0.23-0.05-0.46-0.08-0.69c0.01-0.16,0.02-0.32,0.04-0.48
			c0.06-0.51,0.35-0.8,0.85-0.81c0.16-0.01,0.33,0.03,0.49,0.05c0.31,0.12,0.62,0.23,0.94,0.34c0.02,0.01,0.06-0.02,0.09-0.03
			c0.2-0.2,0.39-0.4,0.59-0.59c0-0.05,0.01-0.11,0-0.16c-0.1-0.3-0.2-0.6-0.31-0.91c-0.19-0.77,0.04-1.18,0.73-1.32
			c0.07-0.01,0.13-0.01,0.2-0.02c0.35,0.02,0.7,0.04,1.05,0.07c0.1,0.01,0.18-0.01,0.2-0.12c0.12-0.2,0.24-0.39,0.35-0.6
			c0.02-0.04,0-0.1-0.01-0.16c-0.21-0.33-0.41-0.66-0.62-0.99c-0.02-0.05-0.04-0.11-0.06-0.16c-0.17-0.52-0.01-0.89,0.48-1.12
			c0.2-0.09,0.42-0.14,0.63-0.21c0.19-0.03,0.39-0.06,0.58-0.09c0.19-0.02,0.22-0.05,0.24-0.25c0.06-0.22,0.13-0.43,0.18-0.65
			c0.01-0.05-0.03-0.1-0.05-0.16c-0.27-0.25-0.54-0.5-0.8-0.74c-0.06-0.09-0.12-0.17-0.17-0.26c-0.25-0.43-0.2-0.81,0.16-1.15
			c0.13-0.13,0.29-0.23,0.44-0.34c0.28-0.14,0.56-0.28,0.84-0.42c0.01-0.1,0.03-0.2,0.03-0.3c0-0.24-0.02-0.47-0.03-0.71
			c-0.28-0.14-0.56-0.28-0.84-0.42c-0.19-0.17-0.39-0.33-0.57-0.51c-0.14-0.15-0.19-0.35-0.18-0.56c0.02-0.28,0.16-0.49,0.32-0.71
			c0.27-0.25,0.55-0.5,0.82-0.75c0.04-0.04,0.05-0.12,0.04-0.18c-0.05-0.23-0.12-0.45-0.18-0.67c-0.03-0.11-0.1-0.16-0.21-0.17
			c-0.2-0.03-0.41-0.06-0.61-0.09c-0.26-0.1-0.54-0.18-0.79-0.31c-0.26-0.14-0.41-0.39-0.38-0.69c0.01-0.17,0.08-0.33,0.12-0.49
			c0.2-0.32,0.39-0.64,0.59-0.96c0.05-0.06,0.11-0.12,0.05-0.22c-0.12-0.2-0.24-0.4-0.36-0.6c-0.03-0.11-0.12-0.13-0.22-0.12
			c-0.34,0.02-0.69,0.04-1.03,0.07c-0.16-0.03-0.32-0.04-0.47-0.09c-0.28-0.09-0.48-0.28-0.5-0.59c-0.02-0.23,0.02-0.46,0.03-0.69
			c0.11-0.3,0.22-0.6,0.33-0.9c0.01-0.03-0.03-0.09-0.04-0.13c-0.18-0.19-0.37-0.37-0.55-0.56c-0.04-0.01-0.08-0.03-0.11-0.02
			c-0.31,0.11-0.62,0.22-0.92,0.34c-0.12,0.01-0.24,0.03-0.37,0.04C24.43,5.59,24.11,5.41,24,4.99c-0.06-0.23-0.07-0.48-0.1-0.72
			c0.02-0.24,0.03-0.48,0.08-0.72c0.03-0.14,0-0.23-0.13-0.28c-0.19-0.12-0.38-0.24-0.57-0.35c-0.04-0.02-0.1,0-0.15,0
			c-0.02,0.01-0.03,0.02-0.05,0.04c-0.37,0.28-0.75,0.56-1.21,0.68c-0.46,0.12-0.8-0.03-1.01-0.45c-0.1-0.19-0.16-0.4-0.23-0.61
			c-0.04-0.24-0.07-0.49-0.12-0.73c-0.01-0.05-0.08-0.09-0.12-0.14c-0.03,0.04-0.07,0.08-0.1,0.12c-0.28,0-0.56,0-0.84,0
			c0.01-0.06,0.02-0.12,0.03-0.18c0.01,0.02,0.03,0.03,0.04,0.05C19.26,1.94,19,2.17,18.74,2.4c-0.06,0.04-0.11,0.08-0.17,0.11
			c-0.46,0.3-0.85,0.26-1.23-0.13C17.22,2.26,17.13,2.12,17.02,2c-0.03-0.06-0.06-0.12-0.09-0.18C16.83,1.59,16.72,1.36,16.62,1.12z
			"/>
		<path class="st1" d="M15.69,1.12c0.27,0,0.54,0,0.81,0c0,0.06,0,0.11,0,0.17c0.02,0.45,0.04,0.9,0.06,1.35c-0.26,0-0.52,0-0.78,0
			c-0.09,0-0.15-0.03-0.15-0.13C15.64,2.06,15.67,1.59,15.69,1.12z"/>
		<path class="st2" d="M16.55,2.65c-0.02-0.45-0.04-0.9-0.06-1.35c0-0.06,0-0.11,0-0.17c0.04,0,0.08,0,0.12,0
			c0.1,0.23,0.21,0.46,0.31,0.7c0.03,0.06,0.06,0.12,0.09,0.18c0.01,0.23,0.02,0.45,0.03,0.68c-0.05,0-0.1,0.01-0.15,0.01
			C16.79,2.67,16.67,2.66,16.55,2.65z"/>
		<path class="st3" d="M15.69,1.12c-0.02,0.47-0.04,0.93-0.06,1.4c-0.02,0.1-0.09,0.14-0.19,0.15c-0.07,0.01-0.14,0.01-0.22,0.01
			c-0.03,0-0.06,0-0.09-0.01c0.01-0.24,0.02-0.48,0.03-0.71c0.13-0.28,0.27-0.56,0.4-0.84C15.6,1.12,15.65,1.12,15.69,1.12z"/>
		<path class="st4" d="M5.29,26.36c0-0.06-0.02-0.12-0.01-0.18c0.09-0.3,0.19-0.59,0.29-0.88c0.13-0.16,0.27-0.31,0.4-0.47
			c0.05,0,0.1-0.03,0.13-0.01c0.12,0.09,0.24,0.18,0.36,0.28c0.11,0.09,0.2,0.23,0.32,0.28c0.17,0.07,0.32,0.16,0.45,0.29
			c0.17,0.17,0.32,0.39,0.6,0.4c0.03,0,0.06,0.03,0.09,0.06c0.12,0.09,0.23,0.19,0.35,0.28c0.13,0.09,0.27,0.23,0.42,0.25
			c0.23,0.04,0.4,0.16,0.58,0.27c0.31,0.17,0.58,0.43,0.97,0.41c0.05,0,0.1,0.04,0.14,0.06c0.09,0.04,0.18,0.08,0.27,0.12
			c0.4,0.17,0.79,0.34,1.19,0.5c0.07,0.03,0.18-0.02,0.27-0.03c0.15,0.04,0.29,0.08,0.44,0.12c0.07,0.02,0.15,0.05,0.22,0.06
			c0.35,0.08,0.7,0.17,1.05,0.25c-0.05,0.03-0.1,0.06-0.16,0.09c-0.4-0.09-0.81-0.19-1.21-0.28c-0.07-0.02-0.16-0.05-0.23-0.03
			c-0.16,0.05-0.29,0.01-0.44-0.04c-0.11-0.04-0.23-0.07-0.34-0.11c-0.28-0.12-0.56-0.25-0.84-0.36c-0.05-0.02-0.1-0.01-0.15-0.02
			c-0.09-0.02-0.2-0.01-0.28-0.06c-0.29-0.14-0.57-0.3-0.85-0.46c-0.05-0.03-0.1-0.04-0.16-0.06C9.1,27.06,8.99,27.06,8.89,27
			c-0.17-0.1-0.32-0.22-0.49-0.33c-0.08-0.05-0.16-0.09-0.24-0.13c-0.12-0.06-0.25-0.09-0.36-0.16c-0.12-0.08-0.22-0.19-0.34-0.27
			c-0.06-0.04-0.13-0.06-0.2-0.09c0.03,0.06,0.05,0.13,0.08,0.19c-0.16,0.14-0.31,0.27-0.47,0.41C6.59,26.72,6.29,26.83,6,26.93
			c-0.04,0.01-0.09,0-0.14-0.01c0.36-0.32,0.71-0.64,1.07-0.97c0.07-0.07,0.07-0.13,0-0.2c-0.16-0.16-0.33-0.32-0.48-0.48
			c-0.07-0.08-0.13-0.08-0.2,0C5.92,25.64,5.61,26,5.29,26.36z"/>
		<path class="st5" d="M29.53,11.49c0.2,0.03,0.41,0.06,0.61,0.09c0.11,0.01,0.18,0.06,0.21,0.17c0.06,0.23,0.12,0.45,0.18,0.67
			c0.01,0.05,0,0.14-0.04,0.18c-0.27,0.26-0.54,0.5-0.82,0.75c-0.17,0.05-0.33,0.1-0.5,0.15c-0.05-0.24-0.11-0.47-0.16-0.71
			c-0.1-0.36-0.21-0.73-0.31-1.09c0.06-0.03,0.12-0.07,0.19-0.08C29.1,11.57,29.32,11.53,29.53,11.49z"/>
		<path class="st6" d="M23.84,3.27c0.14,0.05,0.16,0.14,0.13,0.28c-0.04,0.24-0.05,0.48-0.08,0.72c-0.1,0.2-0.2,0.41-0.28,0.62
			c-0.02,0.04,0.01,0.12,0.05,0.15c0.13,0.1,0.26,0.2,0.4,0.29c-0.03,0.2,0.13,0.26,0.24,0.37c0.11,0.11,0.28,0.19,0.33,0.32
			c0.09,0.23,0.26,0.37,0.42,0.52c0.07,0.07,0.16,0.14,0.19,0.23c0.07,0.21,0.2,0.36,0.34,0.51c0.12,0.12,0.21,0.27,0.3,0.41
			c0.08,0.12,0.12,0.27,0.2,0.39c0.13,0.19,0.27,0.37,0.4,0.55c0.05,0.15,0.08,0.31,0.15,0.45c0.17,0.32,0.36,0.64,0.55,0.96
			c0.02,0.03,0.02,0.07,0.03,0.1c0.05,0.17,0.08,0.35,0.14,0.52c0.13,0.34,0.28,0.68,0.41,1.02c-0.02,0.05-0.04,0.1-0.06,0.16
			c-0.08-0.19-0.17-0.37-0.25-0.56c-0.03-0.07-0.05-0.15-0.08-0.22c-0.14-0.41-0.45-0.75-0.47-1.21c0-0.03-0.03-0.07-0.04-0.1
			c-0.1-0.17-0.19-0.34-0.3-0.51c-0.12-0.2-0.3-0.38-0.36-0.59c-0.08-0.28-0.24-0.5-0.42-0.71c-0.16-0.2-0.36-0.37-0.42-0.64
			c-0.01-0.06-0.07-0.12-0.12-0.17c-0.14-0.15-0.29-0.28-0.43-0.43c-0.06-0.06-0.1-0.15-0.15-0.22c-0.06-0.09-0.12-0.19-0.2-0.27
			c-0.14-0.15-0.29-0.28-0.43-0.42c-0.09-0.1-0.17-0.22-0.27-0.31c-0.15-0.13-0.33-0.23-0.42-0.42c-0.03-0.06-0.1-0.1-0.16-0.14
			c-0.08-0.06-0.18-0.11-0.25-0.18C22.9,4.68,22.9,4.6,22.88,4.55c0.08,0.05,0.17,0.1,0.25,0.15c0.03-0.03,0.05-0.06,0.07-0.08
			c0.12-0.23,0.25-0.47,0.37-0.7C23.66,3.7,23.75,3.49,23.84,3.27z"/>
		<path class="st7" d="M16.49,31c-0.27,0-0.53,0-0.8,0c-0.02-0.46-0.05-0.92-0.07-1.38c0-0.13-0.05-0.18-0.19-0.18
			c-0.1,0-0.2-0.01-0.31-0.02c-0.11-0.01-0.23-0.03-0.34-0.04c0.01-0.04,0.02-0.08,0.03-0.12c0.07,0,0.15,0,0.22,0
			c0.06,0.01,0.12,0.03,0.18,0.03c0.5,0,1,0,1.5,0c0.14,0,0.25-0.05,0.34-0.16c0.09-0.01,0.18-0.01,0.26-0.02
			c0.36-0.04,0.72-0.09,1.08-0.14c-0.05,0.05-0.1,0.1-0.16,0.16c-0.37,0.05-0.75,0.1-1.12,0.16c-0.06,0.01-0.1,0.08-0.15,0.12
			c-0.08,0.01-0.15,0.04-0.23,0.03c-0.13-0.01-0.18,0.03-0.19,0.17C16.54,30.07,16.51,30.53,16.49,31z"/>
		<path class="st8" d="M2.49,18.74c0.09-0.16,0.2-0.31,0.27-0.47c0.13-0.32,0.05-0.62-0.19-0.86c-0.16-0.16-0.35-0.29-0.52-0.44
			c0.24,0.02,0.48,0.03,0.72,0.05c0-0.11,0-0.19,0-0.27c0.06,0.14,0.12,0.28,0.18,0.42c0.14,0.34,0.28,0.68,0.42,1.02
			c0.28,0.66,0.56,1.31,0.84,1.96c0.12,0.29,0.24,0.57,0.36,0.86c0.05,0.12,0.1,0.25,0.16,0.37c-0.06-0.07-0.13-0.13-0.18-0.21
			C4.44,21,4.34,20.81,4.23,20.63c-0.06-0.1-0.12-0.2-0.18-0.31c-0.06-0.1-0.11-0.21-0.17-0.32c-0.17-0.31-0.34-0.63-0.5-0.94
			c-0.1-0.19-0.21-0.39-0.32-0.6c-0.04,0.04-0.07,0.08-0.1,0.11C2.8,18.63,2.65,18.69,2.49,18.74z"/>
		<path class="st9" d="M26.57,6.79c-0.01,0.23-0.05,0.46-0.03,0.69c0.02,0.3,0.22,0.5,0.5,0.59c0.15,0.05,0.31,0.06,0.47,0.09
			c0.08,0.02,0.15,0.03,0.25,0.05c-0.23,0.11-0.43,0.2-0.65,0.31c0.1,0.15,0.19,0.28,0.27,0.42c0,0.01,0,0.02,0,0.03
			C27.29,9,27.3,9.05,27.34,9.12c0.09,0.16,0.18,0.32,0.26,0.49c0.09,0.19,0.25,0.35,0.18,0.59c-0.01,0.04,0.02,0.09,0.04,0.13
			c0.12,0.27,0.24,0.53,0.35,0.8c0.06,0.16,0.17,0.32,0.07,0.5c-0.01,0.03,0.01,0.08,0.02,0.12c0.08,0.27,0.16,0.55,0.24,0.82
			c-0.02,0.07-0.04,0.15-0.06,0.22c-0.02-0.05-0.04-0.11-0.06-0.16c-0.05-0.15-0.11-0.31-0.16-0.46c-0.03-0.12-0.06-0.24-0.1-0.36
			c-0.06-0.2-0.18-0.39-0.18-0.59c0.01-0.18-0.03-0.33-0.1-0.49c-0.08-0.18-0.18-0.36-0.26-0.55c-0.05-0.11-0.14-0.22-0.13-0.32
			c0.02-0.28-0.14-0.47-0.25-0.69C27.11,9,26.94,8.84,26.9,8.65c-0.05-0.28-0.21-0.46-0.36-0.67c-0.07-0.1-0.13-0.21-0.19-0.32
			c-0.06-0.12-0.12-0.25-0.18-0.37C26.31,7.12,26.44,6.96,26.57,6.79z"/>
		<path class="st10" d="M5.29,26.36c0.31-0.36,0.63-0.72,0.94-1.08c0.07-0.08,0.13-0.08,0.2,0c0.16,0.17,0.32,0.32,0.48,0.48
			c0.07,0.07,0.08,0.13,0,0.2c-0.36,0.32-0.71,0.64-1.07,0.97C5.67,26.74,5.48,26.55,5.29,26.36z"/>
		<path class="st11" d="M8.28,3.29C8.49,3.17,8.69,3.04,8.9,2.92C8.95,2.9,9.03,2.95,9.09,2.96C9.1,3,9.1,3.05,9.12,3.08
			c0.18,0.3,0.37,0.61,0.56,0.91C9.74,4.07,9.8,4.14,9.86,4.22C9.83,4.23,9.8,4.25,9.77,4.27C9.51,4.42,9.25,4.58,8.99,4.73
			C8.97,4.68,8.97,4.62,8.94,4.57c-0.15-0.3-0.3-0.6-0.45-0.9C8.43,3.54,8.35,3.42,8.28,3.29z"/>
		<path class="st12" d="M27.39,8.97c0-0.01,0-0.02,0-0.03c0.46-0.24,0.92-0.48,1.37-0.72c0.12,0.2,0.24,0.4,0.36,0.6
			c0.06,0.1,0,0.15-0.05,0.22c-0.08,0.03-0.17,0.06-0.25,0.1c-0.33,0.21-0.65,0.43-0.97,0.64C27.7,9.51,27.54,9.24,27.39,8.97z"/>
		<path class="st13" d="M23.84,3.27c-0.09,0.21-0.18,0.43-0.28,0.64c-0.11,0.24-0.24,0.47-0.37,0.7c-0.01,0.03-0.04,0.05-0.07,0.08
			c-0.09-0.05-0.17-0.1-0.25-0.15c-0.18-0.11-0.36-0.23-0.53-0.34c0.19-0.31,0.39-0.62,0.58-0.93c0.07-0.11,0.14-0.23,0.2-0.35
			c0.05,0,0.11-0.02,0.15,0C23.47,3.04,23.65,3.16,23.84,3.27z"/>
		<path class="st14" d="M26.89,26.33c-0.2,0.2-0.39,0.4-0.59,0.59c-0.38-0.36-0.77-0.71-1.15-1.07c0.23-0.23,0.46-0.45,0.69-0.68
			c0.14,0.15,0.27,0.3,0.41,0.45C26.46,25.86,26.67,26.1,26.89,26.33z"/>
		<path class="st15" d="M3.08,9c-0.07-0.05-0.09-0.1-0.04-0.18C3.17,8.61,3.29,8.4,3.42,8.19c0.1,0.07,0.2,0.14,0.31,0.2
			c0.34,0.19,0.69,0.37,1.03,0.55C4.61,9.22,4.45,9.52,4.3,9.81C4.27,9.78,4.24,9.74,4.2,9.71c-0.19-0.14-0.38-0.27-0.58-0.4
			C3.44,9.2,3.26,9.1,3.08,9z"/>
		<path class="st16" d="M26.31,5.2c0.18,0.19,0.37,0.37,0.55,0.56c-0.01,0.03-0.02,0.06-0.04,0.08c-0.33,0.36-0.66,0.71-0.99,1.07
			c-0.19-0.18-0.37-0.36-0.56-0.53c-0.03-0.04-0.07-0.08-0.1-0.12c0.09-0.09,0.18-0.19,0.27-0.27C25.74,5.72,26.02,5.46,26.31,5.2z"
			/>
		<path class="st17" d="M29.1,23.12c0,0.05,0.03,0.12,0.01,0.16c-0.11,0.2-0.23,0.4-0.35,0.6c-0.25-0.13-0.5-0.27-0.76-0.39
			c-0.21-0.1-0.43-0.2-0.64-0.3c0.14-0.24,0.27-0.47,0.41-0.71c0.03-0.04,0.06-0.09,0.09-0.13c0.08,0.05,0.16,0.11,0.25,0.16
			C28.44,22.71,28.77,22.92,29.1,23.12z"/>
		<path class="st18" d="M1.22,16.47c0-0.27,0-0.54,0-0.81c0.31-0.01,0.61-0.02,0.92-0.04c0.21-0.01,0.42-0.04,0.63-0.06
			c0,0.33,0,0.67,0,1c-0.03-0.01-0.07-0.03-0.1-0.03C2.18,16.51,1.7,16.49,1.22,16.47z"/>
		<path class="st19" d="M5.26,5.79c0.21-0.21,0.41-0.41,0.62-0.62c0.03,0.05,0.06,0.11,0.1,0.15C6.27,5.58,6.55,5.84,6.84,6.1
			C6.9,6.15,6.97,6.18,7.04,6.23C6.8,6.46,6.56,6.7,6.32,6.94C6.29,6.9,6.28,6.86,6.25,6.83C6.03,6.59,5.82,6.35,5.6,6.12
			C5.49,6,5.37,5.9,5.26,5.79z"/>
		<path class="st20" d="M1.77,12.67c-0.13-0.06-0.17-0.15-0.12-0.3c0.07-0.21,0.12-0.42,0.19-0.64c0.04,0.03,0.08,0.07,0.12,0.08
			c0.46,0.1,0.92,0.2,1.38,0.29c-0.08,0.31-0.17,0.62-0.25,0.93c-0.39-0.13-0.78-0.25-1.18-0.37C1.87,12.66,1.82,12.67,1.77,12.67z"
			/>
		<path class="st21" d="M30.94,15.56c0.01,0.24,0.03,0.47,0.03,0.71c0,0.1-0.02,0.2-0.03,0.3c-0.02-0.15-0.14-0.1-0.22-0.1
			c-0.43,0.02-0.87,0.04-1.3,0.06c0-0.31,0-0.62,0-0.94c0.02,0,0.03,0,0.05,0c0.43,0.02,0.86,0.04,1.29,0.06
			C30.82,15.66,30.92,15.68,30.94,15.56z"/>
		<path class="st22" d="M30.47,19.48c0.02,0.05,0.06,0.11,0.05,0.16c-0.05,0.22-0.12,0.44-0.18,0.65c-0.04-0.01-0.07-0.01-0.11-0.02
			c-0.47-0.1-0.95-0.2-1.42-0.3c0.02-0.07,0.04-0.14,0.06-0.21c0.07-0.24,0.13-0.48,0.2-0.72c0.14,0.05,0.28,0.1,0.42,0.14
			C29.82,19.29,30.15,19.39,30.47,19.48z"/>
		<path class="st7" d="M20.33,30.38c-0.23,0.06-0.45,0.13-0.68,0.18c-0.04,0.01-0.11-0.06-0.16-0.09c-0.13-0.42-0.26-0.85-0.39-1.27
			c-0.01-0.03-0.07-0.05-0.1-0.07c0.23-0.06,0.46-0.12,0.68-0.18c0.1-0.02,0.21-0.04,0.31-0.06c0.02,0.05,0.03,0.11,0.05,0.16
			C20.13,29.49,20.23,29.94,20.33,30.38z"/>
		<path class="st23" d="M23.84,28.82c-0.19,0.11-0.37,0.22-0.56,0.33c-0.04,0.02-0.1,0.01-0.15,0.02c-0.25-0.4-0.5-0.8-0.75-1.19
			c-0.02-0.03-0.06-0.04-0.09-0.05c0.29-0.16,0.58-0.33,0.87-0.49c0.21,0.4,0.42,0.81,0.62,1.21
			C23.81,28.69,23.82,28.76,23.84,28.82z"/>
		<path class="st17" d="M3.4,23.87c-0.12-0.2-0.24-0.39-0.35-0.6c-0.02-0.04,0-0.1,0.01-0.15c0.41-0.26,0.83-0.52,1.24-0.78
			c0.14,0.23,0.27,0.46,0.41,0.68c0.02,0.03,0.04,0.06,0.06,0.09c-0.02,0.02-0.03,0.06-0.06,0.07C4.27,23.42,3.84,23.65,3.4,23.87z"
			/>
		<path class="st24" d="M9.06,29.14C9,29.14,8.93,29.17,8.89,29.15c-0.2-0.1-0.38-0.22-0.57-0.33c0.02-0.05,0.03-0.11,0.06-0.16
			c0.21-0.4,0.41-0.8,0.62-1.21c0.03,0,0.06,0,0.09,0c0.05,0.03,0.09,0.07,0.14,0.1c0.19,0.12,0.39,0.25,0.58,0.37
			c-0.06,0.1-0.12,0.19-0.18,0.29C9.44,28.52,9.25,28.83,9.06,29.14z"/>
		<path class="st7" d="M12.67,30.5c-0.04,0.08-0.1,0.09-0.18,0.06c-0.2-0.06-0.4-0.11-0.6-0.16c0-0.06-0.02-0.12-0.01-0.18
			c0.09-0.45,0.2-0.9,0.29-1.34c0.3,0.08,0.6,0.17,0.9,0.25c-0.02,0.06-0.04,0.13-0.05,0.19C12.9,29.72,12.78,30.11,12.67,30.5z"/>
		<path class="st25" d="M1.78,20.14c-0.05-0.17-0.11-0.34-0.14-0.52c-0.01-0.06,0.09-0.13,0.14-0.2c0.05,0,0.11,0.01,0.16-0.01
			c0.38-0.12,0.76-0.24,1.14-0.36c0.02,0.07,0.05,0.15,0.07,0.22c0.05,0.2,0.11,0.39,0.16,0.59c0.01,0.03,0.01,0.06,0.02,0.09
			c-0.19,0.03-0.38,0.07-0.57,0.09C2.44,20.08,2.11,20.11,1.78,20.14z"/>
		<path class="st17" d="M27.39,8.97c0.16,0.27,0.31,0.54,0.47,0.81c0.04,0.08,0.08,0.17,0.12,0.25c0.1,0.2,0.1,0.2,0.29,0.07
			c0.06-0.04,0.14-0.06,0.21-0.09c-0.04,0.16-0.11,0.33-0.12,0.49c-0.02,0.3,0.12,0.55,0.38,0.69c0.25,0.13,0.52,0.21,0.79,0.31
			c-0.22,0.04-0.43,0.08-0.65,0.13c-0.07,0.01-0.13,0.05-0.19,0.08c-0.13-0.33-0.23-0.67-0.43-0.97c-0.03,0.07-0.03,0.14-0.01,0.19
			c0.09,0.26,0.19,0.51,0.28,0.77c0.06,0.16,0.12,0.32,0.05,0.5c-0.02,0.05,0.01,0.11,0.02,0.17c0.05,0.22,0.1,0.43,0.15,0.65
			c-0.02,0.07-0.04,0.15-0.06,0.22c-0.06-0.22-0.12-0.44-0.19-0.65c-0.08-0.27-0.16-0.55-0.24-0.82c-0.01-0.04-0.04-0.09-0.02-0.12
			c0.09-0.19-0.01-0.35-0.07-0.5c-0.11-0.27-0.23-0.53-0.35-0.8c-0.02-0.04-0.05-0.09-0.04-0.13c0.07-0.24-0.1-0.4-0.18-0.59
			c-0.08-0.17-0.17-0.33-0.26-0.49C27.3,9.05,27.29,9,27.39,8.97z"/>
		<path class="st26" d="M11.83,1.71c0.22-0.06,0.44-0.14,0.67-0.18c0.06-0.01,0.13,0.06,0.2,0.1c0.01,0.05,0,0.11,0.02,0.16
			c0.11,0.35,0.21,0.7,0.32,1.05c-0.1,0.02-0.21,0.05-0.31,0.06c-0.2,0.01-0.41,0-0.61,0c-0.02-0.09-0.04-0.17-0.06-0.26
			C11.97,2.33,11.9,2.02,11.83,1.71z"/>
		<path class="st27" d="M19.44,1.84c0.28,0,0.56,0,0.84,0c-0.09,0.44-0.19,0.87-0.28,1.31c-0.06,0.01-0.12,0.04-0.18,0.03
			c-0.21-0.04-0.42-0.1-0.63-0.15C19.16,3,19.12,2.98,19.08,2.96C19.2,2.59,19.32,2.21,19.44,1.84z"/>
		<path class="st21" d="M23.13,2.93c-0.07,0.12-0.13,0.23-0.2,0.35c-0.19,0.31-0.39,0.62-0.58,0.93c-0.05-0.02-0.11-0.03-0.16-0.05
			c-0.14-0.06-0.29-0.13-0.43-0.2c-0.26-0.12-0.52-0.25-0.78-0.37c-0.18-0.07-0.35-0.15-0.53-0.22c0.03-0.18,0.06-0.35,0.1-0.52
			c0.02-0.09,0.06-0.17,0.08-0.25c0.08,0.2,0.14,0.41,0.23,0.61c0.21,0.42,0.55,0.57,1.01,0.45c0.46-0.12,0.83-0.4,1.21-0.68
			C23.09,2.95,23.11,2.94,23.13,2.93z"/>
		<path class="st28" d="M9.06,29.14c0.19-0.31,0.38-0.61,0.57-0.92c0.06-0.1,0.12-0.19,0.18-0.29c0.12,0.05,0.25,0.1,0.37,0.15
			c0.16,0.08,0.32,0.16,0.49,0.23c0.34,0.14,0.68,0.27,1.03,0.4c0,0.01,0,0.02,0,0.03c-0.05,0.3-0.1,0.6-0.15,0.9
			c-0.09-0.26-0.15-0.53-0.28-0.77c-0.2-0.4-0.54-0.53-0.98-0.41c-0.42,0.11-0.77,0.36-1.11,0.61C9.15,29.08,9.1,29.11,9.06,29.14z"
			/>
		<path class="st29" d="M1.78,20.14c0.33-0.03,0.66-0.06,0.98-0.1c0.19-0.02,0.38-0.06,0.57-0.09c0.05,0.17,0.1,0.35,0.15,0.52
			c-0.31,0.04-0.62,0.09-0.93,0.13c-0.18-0.03-0.36-0.05-0.55-0.08c-0.1-0.01-0.17-0.05-0.18-0.17C1.82,20.29,1.8,20.21,1.78,20.14z
			"/>
		<path class="st30" d="M28.82,19.98c0.47,0.1,0.95,0.2,1.42,0.3c0.04,0.01,0.07,0.01,0.11,0.02c-0.02,0.2-0.05,0.23-0.24,0.25
			c-0.19,0.02-0.39,0.06-0.58,0.09c-0.21-0.04-0.42-0.08-0.62-0.13c-0.08-0.02-0.15-0.06-0.22-0.09
			C28.73,20.27,28.78,20.13,28.82,19.98z"/>
		<path class="st31" d="M20.33,30.38c-0.1-0.44-0.2-0.89-0.3-1.33c-0.01-0.06-0.03-0.11-0.05-0.16c0.16-0.05,0.31-0.11,0.47-0.16
			c0.01,0.05,0.02,0.1,0.03,0.15c0.05,0.23,0.1,0.46,0.15,0.69c-0.04,0.21-0.08,0.43-0.1,0.64C20.51,30.33,20.45,30.39,20.33,30.38z
			"/>
		<path class="st32" d="M11.55,29.63c0.05-0.3,0.1-0.6,0.15-0.9c0.16,0.05,0.31,0.1,0.47,0.16c-0.1,0.45-0.2,0.9-0.29,1.34
			c-0.01,0.06,0.01,0.12,0.01,0.18c-0.16-0.02-0.26-0.08-0.26-0.27C11.63,29.96,11.58,29.8,11.55,29.63z"/>
		<path class="st33" d="M11.83,1.71c0.07,0.31,0.15,0.62,0.22,0.94c0.02,0.09,0.04,0.17,0.06,0.26c0.04,0.33,0.04,0.33-0.29,0.44
			c-0.03,0.01-0.06,0.02-0.09,0.03c-0.02-0.06-0.05-0.12-0.06-0.19c-0.04-0.22-0.08-0.44-0.12-0.66c0.03-0.23,0.06-0.45,0.11-0.67
			C11.67,1.79,11.77,1.75,11.83,1.71z"/>
		<path class="st34" d="M20.63,2.59c-0.03,0.08-0.06,0.17-0.08,0.25c-0.04,0.17-0.07,0.35-0.1,0.52c-0.14-0.04-0.27-0.08-0.41-0.12
			c-0.01-0.03-0.02-0.07-0.03-0.1c0.09-0.44,0.19-0.87,0.28-1.31c0.03-0.04,0.07-0.08,0.1-0.12c0.04,0.04,0.11,0.08,0.12,0.14
			C20.56,2.1,20.59,2.34,20.63,2.59z"/>
		<path class="st35" d="M3.33,12.11c-0.46-0.1-0.92-0.19-1.38-0.29c-0.04-0.01-0.08-0.05-0.12-0.08c0-0.1,0.07-0.13,0.15-0.14
			c0.19-0.03,0.38-0.06,0.56-0.08c0.31,0.05,0.62,0.09,0.93,0.14C3.43,11.8,3.38,11.96,3.33,12.11z"/>
		<path class="st36" d="M27.36,23.19c0.21,0.1,0.43,0.19,0.64,0.3c0.25,0.13,0.51,0.26,0.76,0.39c-0.03,0.11-0.11,0.13-0.2,0.12
			c-0.35-0.02-0.7-0.04-1.05-0.07c0.08-0.01,0.15-0.03,0.28-0.05c-0.25-0.11-0.46-0.2-0.67-0.29C27.2,23.46,27.28,23.32,27.36,23.19
			z"/>
		<path class="st37" d="M8.28,3.29c0.07,0.13,0.15,0.25,0.21,0.38c0.15,0.3,0.3,0.6,0.45,0.9c0.02,0.05,0.03,0.11,0.04,0.16
			C8.87,4.81,8.74,4.88,8.62,4.96C8.58,4.88,8.53,4.81,8.49,4.73C8.41,4.58,8.33,4.42,8.25,4.26C8.23,4.01,8.22,3.75,8.19,3.5
			C8.18,3.4,8.19,3.34,8.28,3.29z"/>
		<path class="st38" d="M28.76,8.22c-0.46,0.24-0.92,0.48-1.37,0.72c-0.09-0.13-0.17-0.26-0.27-0.42c0.22-0.1,0.42-0.2,0.65-0.31
			c-0.1-0.02-0.18-0.04-0.25-0.05c0.34-0.02,0.69-0.04,1.03-0.07C28.65,8.09,28.73,8.11,28.76,8.22z"/>
		<path class="st39" d="M9,27.45c-0.21,0.4-0.42,0.8-0.62,1.21c-0.03,0.05-0.04,0.1-0.06,0.16c-0.11-0.04-0.15-0.11-0.13-0.24
			c0.03-0.24,0.05-0.48,0.07-0.72c0.11-0.24,0.22-0.48,0.34-0.71C8.73,27.25,8.86,27.35,9,27.45z"/>
		<path class="st40" d="M23.84,28.82c-0.02-0.06-0.03-0.13-0.06-0.19c-0.21-0.41-0.41-0.81-0.62-1.21c0.12-0.08,0.25-0.17,0.37-0.25
			c0.04,0.05,0.09,0.1,0.12,0.15c0.09,0.17,0.17,0.35,0.25,0.52c0.03,0.23,0.04,0.46,0.08,0.69C24.01,28.69,23.98,28.77,23.84,28.82
			z"/>
		<path class="st41" d="M3.4,23.87c0.44-0.22,0.87-0.45,1.3-0.67c0.02-0.01,0.04-0.05,0.06-0.07c0.09,0.15,0.19,0.31,0.28,0.46
			c-0.28,0.11-0.56,0.23-0.84,0.34c-0.18,0.02-0.37,0.03-0.55,0.06C3.54,24.01,3.44,24,3.4,23.87z"/>
		<path class="st42" d="M4.76,8.93C4.42,8.75,4.07,8.57,3.73,8.38c-0.11-0.06-0.21-0.13-0.31-0.2c0.04-0.1,0.12-0.09,0.21-0.08
			c0.2,0.02,0.4,0.04,0.6,0.06C4.5,8.28,4.77,8.41,5.05,8.53C4.95,8.66,4.86,8.8,4.76,8.93z"/>
		<path class="st43" d="M30.94,15.56c-0.01,0.13-0.11,0.1-0.19,0.1c-0.43-0.02-0.86-0.04-1.29-0.06c-0.02,0-0.03,0-0.05,0
			c-0.01-0.04-0.02-0.09-0.03-0.13c0-0.09-0.01-0.18-0.01-0.28c0-0.03,0-0.06,0.01-0.09c0.07,0.01,0.14,0.01,0.21,0.02
			c0.17,0.01,0.33,0.01,0.5,0.01C30.37,15.27,30.66,15.41,30.94,15.56z"/>
		<path class="st44" d="M29.42,16.53c0.43-0.02,0.87-0.04,1.3-0.06c0.08,0,0.2-0.05,0.22,0.1c-0.28,0.14-0.56,0.28-0.84,0.42
			c-0.05-0.01-0.1-0.02-0.15-0.02c-0.19,0.02-0.38,0.04-0.57,0.06c0-0.12,0-0.25,0.01-0.37C29.4,16.62,29.41,16.57,29.42,16.53z"/>
		<path class="st45" d="M1.22,16.47c0.48,0.02,0.96,0.04,1.44,0.06c0.03,0,0.07,0.02,0.1,0.03c0,0.06,0.01,0.12,0.01,0.19
			c0,0.08,0,0.16,0,0.27C2.53,17,2.29,16.99,2.05,16.97c-0.24-0.12-0.49-0.24-0.73-0.36C1.28,16.59,1.25,16.52,1.22,16.47z"/>
		<path class="st46" d="M16.49,31c0.02-0.46,0.05-0.92,0.06-1.38c0-0.14,0.05-0.18,0.19-0.17c0.07,0.01,0.15-0.02,0.23-0.03
			c0.03,0,0.06,0,0.09,0.01c-0.02,0.24-0.04,0.48-0.06,0.72c-0.12,0.26-0.24,0.52-0.37,0.78C16.6,30.96,16.54,30.97,16.49,31z"/>
		<path class="st47" d="M15.13,29.42c0.1,0.01,0.21,0.02,0.31,0.02c0.13-0.01,0.18,0.04,0.19,0.18c0.02,0.46,0.04,0.92,0.07,1.38
			c-0.05-0.03-0.13-0.04-0.15-0.08c-0.13-0.25-0.24-0.5-0.36-0.75C15.17,29.92,15.15,29.67,15.13,29.42z"/>
		<path class="st48" d="M2.77,15.56c-0.21,0.02-0.42,0.05-0.63,0.06c-0.3,0.02-0.61,0.02-0.92,0.04c0.03-0.05,0.06-0.12,0.1-0.14
			c0.24-0.13,0.49-0.24,0.73-0.36c0.25-0.01,0.49-0.03,0.74-0.04c-0.01,0.07-0.01,0.14-0.02,0.21C2.77,15.4,2.77,15.48,2.77,15.56z"
			/>
		<path class="st44" d="M26.89,26.33c-0.21-0.24-0.43-0.47-0.64-0.71c-0.14-0.15-0.27-0.3-0.41-0.45c0.11-0.12,0.23-0.25,0.34-0.37
			c0.13,0.15,0.27,0.31,0.4,0.46c0.1,0.3,0.21,0.6,0.31,0.91C26.9,26.22,26.89,26.28,26.89,26.33z"/>
		<path class="st43" d="M25.15,25.86c0.38,0.36,0.77,0.71,1.15,1.07c-0.03,0.01-0.07,0.04-0.09,0.03c-0.31-0.11-0.62-0.23-0.94-0.34
			c-0.16-0.13-0.31-0.27-0.47-0.4C24.92,26.09,25.03,25.98,25.15,25.86z"/>
		<path class="st49" d="M26.31,5.2c-0.29,0.26-0.57,0.52-0.86,0.79c-0.09,0.09-0.18,0.18-0.27,0.27c-0.12-0.11-0.25-0.23-0.37-0.34
			c0.16-0.13,0.31-0.27,0.47-0.4c0.31-0.11,0.62-0.23,0.92-0.34C26.23,5.17,26.27,5.19,26.31,5.2z"/>
		<path class="st50" d="M25.83,6.91c0.33-0.36,0.66-0.71,0.99-1.07c0.02-0.02,0.03-0.05,0.04-0.08c0.01,0.04,0.05,0.1,0.04,0.13
			c-0.1,0.3-0.22,0.6-0.33,0.9c-0.13,0.16-0.27,0.33-0.4,0.49C26.06,7.16,25.95,7.04,25.83,6.91z"/>
		<path class="st48" d="M5.26,5.79C5.37,5.9,5.49,6,5.6,6.12c0.22,0.23,0.43,0.47,0.65,0.71C6.28,6.86,6.29,6.9,6.32,6.94
			c-0.1,0.11-0.21,0.23-0.31,0.34c-0.14-0.17-0.29-0.33-0.43-0.5c-0.09-0.27-0.18-0.53-0.27-0.8C5.29,5.92,5.28,5.85,5.26,5.79z"/>
		<path class="st51" d="M7.04,6.23C6.97,6.18,6.9,6.15,6.84,6.1C6.55,5.84,6.27,5.58,5.98,5.32c-0.04-0.04-0.07-0.1-0.1-0.15
			c0.13,0.05,0.26,0.09,0.39,0.14c0.21,0.07,0.42,0.14,0.63,0.21c0.08,0.07,0.16,0.14,0.24,0.21c0.07,0.07,0.14,0.14,0.2,0.22
			C7.24,6.04,7.14,6.13,7.04,6.23z"/>
		<path class="st52" d="M9.86,4.22C9.8,4.14,9.74,4.07,9.68,3.99c-0.19-0.3-0.38-0.6-0.56-0.91C9.1,3.05,9.1,3,9.09,2.96
			c0.3,0.2,0.6,0.39,0.9,0.59c0.09,0.15,0.19,0.29,0.28,0.44C10.14,4.06,10,4.14,9.86,4.22z"/>
		<path class="st20" d="M28.48,9.99c-0.07,0.03-0.15,0.05-0.21,0.09c-0.19,0.13-0.19,0.14-0.29-0.07c-0.04-0.08-0.08-0.17-0.12-0.25
			c0.32-0.21,0.64-0.43,0.97-0.64c0.07-0.05,0.16-0.07,0.25-0.1C28.88,9.35,28.68,9.67,28.48,9.99z"/>
		<path class="st36" d="M29.1,23.12c-0.33-0.21-0.66-0.41-1-0.62c-0.08-0.05-0.16-0.11-0.25-0.16c0.07-0.14,0.14-0.29,0.22-0.43
			c0.09,0.06,0.17,0.12,0.27,0.17c0.04,0.02,0.1,0.03,0.14,0.04C28.69,22.46,28.9,22.79,29.1,23.12z"/>
		<path class="st42" d="M3.08,9c0.18,0.1,0.36,0.2,0.54,0.31c0.2,0.13,0.39,0.27,0.58,0.4c0.04,0.03,0.07,0.06,0.1,0.09
			C4.29,9.84,4.28,9.87,4.26,9.9c-0.05,0.1-0.1,0.2-0.16,0.3c-0.15-0.09-0.31-0.18-0.46-0.28C3.46,9.62,3.27,9.31,3.08,9z"/>
		<path class="st53" d="M22.29,27.92c0.03,0.02,0.07,0.03,0.09,0.05c0.25,0.4,0.5,0.8,0.75,1.19c-0.32-0.21-0.64-0.41-0.97-0.62
			c-0.02-0.04-0.04-0.09-0.06-0.13c-0.06-0.1-0.12-0.2-0.18-0.3c0.07-0.04,0.15-0.08,0.22-0.12C22.19,27.96,22.24,27.94,22.29,27.92
			z"/>
		<path class="st54" d="M4.3,22.35c-0.41,0.26-0.83,0.52-1.24,0.78c0.2-0.31,0.39-0.62,0.59-0.93c0.14-0.1,0.29-0.19,0.43-0.29
			c0.07,0.13,0.14,0.25,0.22,0.38C4.3,22.31,4.3,22.33,4.3,22.35z"/>
		<path class="st55" d="M19.44,1.84c-0.12,0.37-0.24,0.75-0.37,1.12c-0.17-0.03-0.33-0.06-0.5-0.09c0.05-0.16,0.1-0.31,0.16-0.47
			c0.26-0.23,0.52-0.46,0.78-0.69c-0.01-0.02-0.03-0.03-0.04-0.05C19.46,1.72,19.45,1.78,19.44,1.84z"/>
		<path class="st56" d="M30.47,19.48c-0.32-0.1-0.65-0.2-0.97-0.3c-0.14-0.04-0.28-0.09-0.42-0.14c0.03-0.15,0.06-0.31,0.09-0.46
			c0.17,0.05,0.33,0.1,0.5,0.15C29.94,18.99,30.2,19.24,30.47,19.48z"/>
		<path class="st57" d="M18.99,29.13c0.04,0.02,0.09,0.04,0.1,0.07c0.13,0.42,0.26,0.85,0.39,1.27c-0.16-0.17-0.31-0.34-0.47-0.51
			c-0.09-0.09-0.19-0.18-0.28-0.27c-0.03-0.1-0.06-0.19-0.08-0.29c-0.01-0.07-0.01-0.14-0.01-0.2
			C18.76,29.18,18.87,29.15,18.99,29.13z"/>
		<path class="st6" d="M12.67,30.5c0.12-0.39,0.24-0.78,0.36-1.17c0.02-0.06,0.04-0.13,0.05-0.19c0.08,0.01,0.16,0.01,0.24,0.02
			c0.08,0.02,0.17,0.05,0.25,0.07c-0.05,0.16-0.1,0.31-0.15,0.47C13.17,29.97,12.92,30.23,12.67,30.5z"/>
		<path class="st42" d="M1.77,12.67c0.04,0,0.09-0.01,0.13,0c0.39,0.12,0.79,0.25,1.18,0.37c0,0.04,0,0.08-0.01,0.12
			c-0.03,0.12-0.06,0.23-0.09,0.35c-0.17-0.05-0.33-0.11-0.5-0.16C2.25,13.12,2.01,12.9,1.77,12.67z"/>
		<path class="st9" d="M3.08,19.05c-0.38,0.12-0.76,0.25-1.14,0.36c-0.05,0.02-0.11,0.01-0.16,0.01c0.24-0.23,0.48-0.45,0.72-0.68
			c0.16-0.05,0.31-0.11,0.47-0.16C3,18.73,3.04,18.89,3.08,19.05z"/>
		<path class="st25" d="M13.04,2.84c-0.11-0.35-0.22-0.7-0.32-1.05c-0.02-0.05-0.01-0.11-0.02-0.16c0.24,0.26,0.47,0.52,0.71,0.78
			c0.05,0.15,0.1,0.31,0.16,0.46c-0.16,0.03-0.33,0.06-0.49,0.09C13.06,2.92,13.05,2.88,13.04,2.84z"/>
		<path class="st15" d="M10.27,3.99c-0.09-0.15-0.19-0.29-0.28-0.44c0.21,0.04,0.42,0.1,0.63,0.12c0.24,0.02,0.45-0.1,0.56-0.3
			c0.14-0.27,0.25-0.56,0.37-0.85c0.04,0.22,0.08,0.44,0.12,0.66c0.01,0.06,0.04,0.13,0.06,0.19c-0.07,0.03-0.15,0.06-0.22,0.09
			c-0.1,0.03-0.2,0.06-0.29,0.1C10.91,3.7,10.59,3.84,10.27,3.99z"/>
		<path class="st58" d="M5.58,6.78c0.14,0.17,0.29,0.33,0.43,0.5C5.69,7.7,5.37,8.11,5.05,8.53C4.77,8.41,4.5,8.28,4.23,8.16
			c0.21-0.01,0.43,0,0.63-0.03c0.69-0.12,0.83-0.52,0.76-1.12C5.61,6.94,5.59,6.86,5.58,6.78z"/>
		<path class="st59" d="M4.2,23.93c0.28-0.11,0.56-0.23,0.84-0.34c0.04,0.04,0.08,0.08,0.13,0.13c0.24,0.32,0.48,0.63,0.71,0.95
			c0.04,0.05,0.06,0.11,0.09,0.17c-0.13,0.16-0.27,0.31-0.4,0.47c0.02-0.18,0.05-0.37,0.05-0.55c0-0.38-0.2-0.67-0.59-0.75
			C4.77,23.95,4.48,23.95,4.2,23.93z"/>
		<path class="st60" d="M7.34,5.95C7.28,5.87,7.21,5.8,7.14,5.73C7.07,5.66,6.98,5.59,6.91,5.52c0.17,0.01,0.35,0.03,0.52,0.02
			c0.38,0,0.64-0.19,0.73-0.56C8.22,4.75,8.23,4.5,8.25,4.26c0.08,0.16,0.15,0.32,0.23,0.47c0.04,0.08,0.09,0.15,0.13,0.22
			C8.2,5.29,7.77,5.62,7.34,5.95z"/>
		<path class="st61" d="M4.08,21.91c-0.14,0.1-0.29,0.19-0.43,0.29c0.04-0.12,0.09-0.23,0.12-0.35c0.1-0.42-0.03-0.76-0.42-0.95
			c-0.25-0.12-0.53-0.2-0.79-0.29c0.31-0.04,0.62-0.09,0.93-0.13c0.05,0.12,0.11,0.23,0.16,0.35c0.01,0.05,0.02,0.1,0.04,0.15
			C3.82,21.29,3.95,21.6,4.08,21.91z"/>
		<path class="st62" d="M3.65,9.92c0.15,0.09,0.31,0.18,0.46,0.28c-0.18,0.42-0.35,0.84-0.53,1.25c-0.03,0.06-0.06,0.13-0.1,0.19
			c-0.31-0.05-0.62-0.09-0.93-0.14c0.22-0.07,0.44-0.12,0.64-0.21c0.58-0.26,0.72-0.64,0.5-1.23C3.68,10.02,3.67,9.97,3.65,9.92z"/>
		<path class="st47" d="M8.59,27.14c-0.11,0.24-0.22,0.48-0.34,0.71c-0.02-0.23-0.02-0.47-0.08-0.69c-0.12-0.44-0.41-0.62-0.91-0.59
			c-0.13,0.01-0.26,0.03-0.39,0.04c0.16-0.14,0.31-0.27,0.47-0.41c0.04,0.03,0.09,0.05,0.13,0.08c0.24,0.19,0.48,0.38,0.71,0.57
			C8.32,26.95,8.46,27.05,8.59,27.14z"/>
		<path class="st63" d="M21.92,28.11c0.06,0.1,0.12,0.2,0.18,0.3c0.02,0.04,0.04,0.09,0.06,0.13c-0.16-0.04-0.31-0.1-0.47-0.13
			c-0.35-0.05-0.62,0.1-0.77,0.4c-0.12,0.23-0.19,0.5-0.28,0.75c-0.05-0.23-0.1-0.46-0.15-0.69c-0.01-0.05-0.02-0.1-0.03-0.15
			C20.94,28.52,21.43,28.32,21.92,28.11z"/>
		<path class="st2" d="M25.27,5.51c-0.16,0.13-0.31,0.27-0.47,0.4c-0.25-0.2-0.5-0.39-0.75-0.59c-0.13-0.1-0.27-0.19-0.4-0.29
			c-0.03-0.03-0.06-0.11-0.05-0.15c0.09-0.21,0.19-0.41,0.28-0.62c0.03,0.24,0.04,0.49,0.1,0.72c0.11,0.42,0.43,0.6,0.91,0.57
			C25.03,5.55,25.15,5.53,25.27,5.51z"/>
		<path class="st64" d="M28.48,22.13c-0.05-0.01-0.1-0.02-0.14-0.04c-0.09-0.05-0.18-0.11-0.27-0.17c0.21-0.5,0.41-1,0.62-1.5
			c0.07,0.03,0.14,0.07,0.22,0.09c0.21,0.05,0.41,0.09,0.62,0.13c-0.21,0.07-0.43,0.12-0.63,0.21c-0.49,0.23-0.64,0.61-0.48,1.12
			C28.44,22.02,28.46,22.08,28.48,22.13z"/>
		<path class="st65" d="M24.8,26.21c0.16,0.13,0.31,0.27,0.47,0.4c-0.16-0.02-0.33-0.05-0.49-0.05c-0.5,0.02-0.79,0.3-0.85,0.81
			c-0.02,0.16-0.02,0.32-0.04,0.48c-0.08-0.18-0.16-0.35-0.25-0.52c-0.03-0.06-0.08-0.1-0.12-0.15
			C23.96,26.85,24.38,26.53,24.8,26.21z"/>
		<path class="st66" d="M26.58,25.27c-0.13-0.15-0.27-0.31-0.4-0.46c0.08-0.11,0.17-0.21,0.25-0.32c0.23-0.3,0.46-0.6,0.69-0.9
			c0.21,0.09,0.42,0.18,0.67,0.29c-0.12,0.02-0.2,0.04-0.28,0.05c-0.07,0.01-0.13,0-0.2,0.02C26.62,24.09,26.39,24.51,26.58,25.27z"
			/>
		<path class="st67" d="M2.49,13.35c0.17,0.05,0.33,0.11,0.5,0.16c-0.06,0.53-0.13,1.06-0.19,1.59c-0.25,0.01-0.49,0.03-0.74,0.04
			c0.15-0.13,0.3-0.25,0.44-0.39c0.38-0.37,0.42-0.72,0.15-1.18C2.6,13.5,2.55,13.43,2.49,13.35z"/>
		<path class="st68" d="M30.09,15.13c-0.17,0-0.33-0.01-0.5-0.01c-0.07,0-0.14-0.01-0.21-0.02c-0.07-0.53-0.15-1.06-0.22-1.59
			c0.17-0.05,0.33-0.1,0.5-0.15c-0.15,0.21-0.3,0.43-0.32,0.71c-0.01,0.21,0.04,0.41,0.18,0.56C29.7,14.8,29.9,14.96,30.09,15.13z"
			/>
		<path class="st69" d="M13.57,2.86c-0.05-0.15-0.1-0.31-0.16-0.46c0.13,0.07,0.26,0.16,0.4,0.22c0.34,0.15,0.66,0.09,0.92-0.17
			c0.15-0.15,0.28-0.33,0.42-0.49c-0.01,0.24-0.02,0.48-0.03,0.71c-0.13,0.01-0.27,0.02-0.4,0.04c-0.35,0.05-0.69,0.1-1.04,0.15
			C13.65,2.87,13.61,2.86,13.57,2.86z"/>
		<path class="st37" d="M18.65,29.2c0,0.07,0,0.14,0.01,0.2c0.02,0.1,0.05,0.19,0.08,0.29c-0.63-0.48-1.13-0.41-1.59,0.23
			C17.1,30,17.05,30.07,17,30.14c0.02-0.24,0.04-0.48,0.06-0.72C17.59,29.35,18.12,29.27,18.65,29.2z"/>
		<path class="st70" d="M13.42,29.7c0.05-0.16,0.1-0.31,0.15-0.47c0.06,0,0.11,0.01,0.17,0.02c0.35,0.04,0.7,0.09,1.05,0.14
			c0.11,0.01,0.23,0.03,0.34,0.04c0.02,0.25,0.04,0.5,0.06,0.75c-0.11-0.14-0.21-0.28-0.32-0.41c-0.38-0.43-0.78-0.49-1.27-0.18
			C13.53,29.61,13.48,29.66,13.42,29.7z"/>
		<path class="st71" d="M18.74,2.4c-0.05,0.16-0.1,0.31-0.16,0.47c-0.05,0-0.1,0-0.15,0c-0.18-0.03-0.35-0.06-0.53-0.09
			c-0.28-0.03-0.56-0.07-0.84-0.1C17.04,2.45,17.03,2.22,17.02,2c0.1,0.13,0.2,0.26,0.31,0.38c0.38,0.39,0.77,0.43,1.23,0.13
			C18.63,2.48,18.68,2.44,18.74,2.4z"/>
		<path class="st72" d="M29.67,18.74c-0.17-0.05-0.33-0.1-0.5-0.15c0.05-0.36,0.1-0.73,0.15-1.09c0.02-0.15,0.04-0.31,0.06-0.46
			c0.19-0.02,0.38-0.04,0.57-0.06c0.05,0,0.1,0.01,0.15,0.02c-0.15,0.11-0.31,0.21-0.44,0.34c-0.36,0.34-0.41,0.72-0.16,1.15
			C29.55,18.57,29.61,18.65,29.67,18.74z"/>
		<path class="st19" d="M15.22,2.68c0.07,0,0.14,0,0.22-0.01c0.09-0.01,0.17-0.05,0.19-0.15c0,0.1,0.06,0.13,0.15,0.13
			c0.26,0,0.52,0,0.78,0c0.12,0.01,0.23,0.02,0.35,0.04c0.08,0.05,0.15,0.11,0.23,0.15c0.42,0.18,0.83,0.36,1.25,0.54
			c0.31,0.13,0.63,0.26,0.94,0.4c0.09,0.04,0.17,0.12,0.26,0.18c-0.18-0.06-0.35-0.12-0.53-0.19c-0.17-0.04-0.33-0.09-0.5-0.12
			c-0.46-0.08-0.91-0.15-1.37-0.23c-0.1-0.05-0.2-0.12-0.3-0.15c-0.49-0.16-0.99-0.31-1.48-0.46C15.33,2.79,15.28,2.73,15.22,2.68z"
			/>
		<path class="st8" d="M19.58,3.96c-0.08-0.06-0.16-0.14-0.26-0.18c-0.31-0.14-0.63-0.27-0.94-0.4c-0.42-0.18-0.84-0.36-1.25-0.54
			c-0.08-0.04-0.15-0.1-0.23-0.15c0.05,0,0.1-0.01,0.15-0.01c0.28,0.03,0.56,0.07,0.84,0.1c0.04,0.04,0.08,0.1,0.13,0.12
			c0.61,0.3,1.22,0.6,1.83,0.89c0.04,0.02,0.07,0.05,0.11,0.08c0.15,0.09,0.3,0.18,0.44,0.28c0.14,0.09,0.27,0.18,0.41,0.27
			c-0.2-0.07-0.39-0.15-0.59-0.22C20.01,4.12,19.8,4.04,19.58,3.96z"/>
		<path class="st73" d="M15.22,2.68c0.06,0.04,0.11,0.11,0.18,0.13c0.49,0.16,0.99,0.31,1.48,0.46c0.11,0.03,0.2,0.1,0.3,0.15
			c-0.08-0.01-0.17-0.02-0.25-0.03c-0.54-0.01-1.08-0.02-1.62-0.03c-0.06-0.04-0.12-0.1-0.19-0.12c-0.48-0.13-0.95-0.25-1.43-0.38
			c0.35-0.05,0.69-0.11,1.04-0.15c0.13-0.02,0.27-0.02,0.4-0.04C15.16,2.68,15.19,2.68,15.22,2.68z"/>
		<path class="st74" d="M5.98,24.84c-0.03-0.06-0.06-0.12-0.09-0.17c-0.24-0.32-0.48-0.63-0.71-0.95c0.07-0.09,0.12-0.04,0.17,0.02
			c0.16,0.19,0.26,0.45,0.55,0.51c0.03,0.01,0.05,0.05,0.07,0.08c0.17,0.17,0.35,0.33,0.53,0.49c0.08,0.07,0.17,0.11,0.25,0.17
			c0.11,0.1,0.22,0.21,0.32,0.32c0.1,0.12,0.23,0.17,0.38,0.18c0.08,0.06,0.17,0.12,0.25,0.19c0.11,0.11,0.21,0.24,0.34,0.34
			c0.19,0.14,0.35,0.35,0.63,0.31c0.08,0.05,0.17,0.1,0.25,0.16c0.22,0.15,0.45,0.29,0.67,0.44c0.14,0.1,0.29,0.13,0.45,0.12
			c0.09,0.04,0.19,0.08,0.28,0.12c0.19,0.1,0.37,0.21,0.56,0.31c-0.06,0.01-0.12,0.02-0.19,0.03c-0.09-0.04-0.18-0.08-0.27-0.12
			c-0.05-0.02-0.1-0.06-0.14-0.06c-0.39,0.02-0.66-0.23-0.97-0.41c-0.19-0.11-0.36-0.23-0.58-0.27c-0.15-0.03-0.29-0.16-0.42-0.25
			c-0.12-0.09-0.24-0.19-0.35-0.28c-0.03-0.02-0.06-0.05-0.09-0.06c-0.28-0.01-0.43-0.23-0.6-0.4c-0.13-0.13-0.28-0.22-0.45-0.29
			c-0.12-0.05-0.21-0.19-0.32-0.28c-0.12-0.1-0.23-0.19-0.36-0.28C6.08,24.81,6.02,24.83,5.98,24.84z"/>
		<path class="st33" d="M8.19,26.86c-0.24-0.19-0.48-0.38-0.71-0.57c-0.04-0.03-0.09-0.06-0.13-0.08c-0.03-0.06-0.05-0.13-0.08-0.19
			c0.07,0.03,0.14,0.05,0.2,0.09c0.12,0.08,0.22,0.19,0.34,0.27c0.11,0.07,0.24,0.11,0.36,0.16c0.08,0.04,0.17,0.08,0.24,0.13
			c0.16,0.11,0.32,0.24,0.49,0.33c0.09,0.05,0.21,0.06,0.31,0.09c0.05,0.02,0.11,0.03,0.16,0.06c0.28,0.15,0.56,0.31,0.85,0.46
			c0.08,0.04,0.19,0.04,0.28,0.06c0.05,0.01,0.11,0,0.15,0.02c0.28,0.12,0.56,0.24,0.84,0.36c-0.08,0.01-0.17,0.02-0.25,0.03
			c-0.19-0.08-0.38-0.16-0.57-0.24c-0.1-0.04-0.19-0.06-0.27,0.02c-0.01,0-0.02,0-0.03,0c-0.25-0.14-0.51-0.27-0.76-0.41
			c-0.14-0.08-0.28-0.18-0.46-0.15C9.1,27.3,9.04,27.26,9,27.24c-0.2-0.13-0.41-0.27-0.61-0.4C8.32,26.78,8.24,26.75,8.19,26.86z"/>
		<path class="st75" d="M13.85,28.42c-0.35-0.08-0.7-0.16-1.05-0.25c-0.08-0.02-0.15-0.04-0.22-0.06c0.08-0.02,0.17-0.04,0.25-0.06
			c0.19,0.04,0.38,0.1,0.58,0.13c0.37,0.05,0.74,0.24,1.12,0.08c0.02-0.01,0.06,0.01,0.09,0.01c0.41,0.02,0.81,0.06,1.22,0.06
			c0.49,0,0.98-0.04,1.47-0.06c-0.04,0.05-0.08,0.1-0.12,0.16c-0.19,0.01-0.37,0.02-0.56,0.03c-0.65-0.02-1.3-0.04-1.95-0.06
			c-0.17-0.01-0.35-0.06-0.51,0.06C14.06,28.44,13.96,28.43,13.85,28.42z"/>
		<path class="st76" d="M11.24,28.08c0.08-0.01,0.17-0.02,0.25-0.03c0.11,0.04,0.23,0.07,0.34,0.11c0.14,0.06,0.28,0.09,0.44,0.04
			c0.06-0.02,0.15,0.02,0.23,0.03c0.4,0.09,0.81,0.19,1.21,0.28c0.21,0.04,0.41,0.08,0.62,0.12c-0.1,0.03-0.21,0.09-0.31,0.07
			c-0.52-0.1-1.03-0.22-1.54-0.33c-0.11-0.02-0.24,0-0.36,0.01c-0.12-0.03-0.25-0.06-0.37-0.09C11.57,28.22,11.4,28.15,11.24,28.08z
			"/>
		<path class="st77" d="M14.32,28.64c-0.21-0.04-0.41-0.08-0.62-0.12c0.05-0.03,0.1-0.06,0.16-0.09c0.1,0.01,0.21,0.02,0.31,0.03
			c0.03,0.01,0.07,0.03,0.1,0.03c0.69,0.04,1.38,0.08,2.08,0.13c-0.07,0.11-0.18,0.13-0.3,0.12C15.47,28.7,14.89,28.67,14.32,28.64z
			"/>
		<path class="st75" d="M10.68,27.52c0.06-0.01,0.12-0.02,0.19-0.03c0.2,0.07,0.39,0.15,0.59,0.22c0.23,0.09,0.46,0.19,0.68,0.28
			c-0.09,0.01-0.19,0.06-0.27,0.03C11.47,27.86,11.07,27.68,10.68,27.52z"/>
		<path class="st74" d="M12.14,27.98c-0.23-0.09-0.46-0.19-0.68-0.28c0.12,0,0.24-0.01,0.35,0.02c0.34,0.1,0.68,0.22,1.02,0.33
			c-0.08,0.02-0.17,0.04-0.25,0.06C12.43,28.07,12.29,28.02,12.14,27.98z"/>
		<path class="st23" d="M29.17,13.51c0.07,0.53,0.15,1.06,0.22,1.59c0,0.03,0,0.06-0.01,0.09c-0.02-0.06-0.03-0.12-0.05-0.17
			c-0.05,0.1-0.07,0.19-0.07,0.29c0,0.42,0.01,0.84-0.01,1.26c-0.01,0.27,0.03,0.56-0.16,0.8c-0.02,0.03-0.02,0.07-0.02,0.1
			c-0.06,0.35-0.09,0.71-0.17,1.06c-0.15,0.63-0.34,1.26-0.51,1.89c-0.03,0.08-0.06,0.17-0.09,0.25c-0.06,0.05-0.12,0.1-0.19,0.16
			c0.02-0.05,0.03-0.11,0.05-0.16c0.13-0.42,0.26-0.85,0.39-1.27c0.07-0.3,0.14-0.6,0.22-0.9c0.12-0.47,0.09-0.97,0.28-1.44
			c0.07-0.19,0.08-0.41,0.08-0.62c0.01-0.31-0.01-0.62-0.02-0.93c-0.01-0.17-0.03-0.34-0.02-0.51c0-0.14,0.04-0.27,0.05-0.41
			c0.01-0.11,0.03-0.22,0.02-0.32c-0.07-0.41-0.15-0.82-0.22-1.23c-0.02-0.09-0.05-0.19,0.08-0.24
			C29.06,13.03,29.11,13.27,29.17,13.51z"/>
		<path class="st64" d="M29.01,12.8c-0.12,0.05-0.09,0.15-0.08,0.24c0.07,0.41,0.15,0.82,0.22,1.23c0.02,0.1-0.01,0.21-0.02,0.32
			c-0.01,0.14-0.05,0.27-0.05,0.41c0,0.17,0.02,0.34,0.02,0.51c-0.04,0.01-0.08,0.02-0.12,0.03c-0.01-0.12-0.02-0.24-0.02-0.36
			c-0.01-0.19-0.06-0.39-0.01-0.57c0.05-0.19,0.07-0.37,0.03-0.56c-0.07-0.34-0.14-0.69-0.21-1.03c-0.05-0.22-0.1-0.43-0.15-0.65
			c-0.01-0.05-0.04-0.12-0.02-0.17c0.07-0.18,0-0.34-0.05-0.5c-0.09-0.26-0.19-0.51-0.28-0.77c-0.02-0.06-0.02-0.12,0.01-0.19
			c0.2,0.3,0.31,0.64,0.43,0.97C28.8,12.07,28.9,12.43,29.01,12.8z"/>
		<path class="st71" d="M21.76,3.96c0.14,0.07,0.29,0.13,0.43,0.2c0.05,0.02,0.11,0.03,0.16,0.05c0.18,0.11,0.36,0.23,0.53,0.34
			c0.02,0.06,0.02,0.13,0.06,0.17c0.07,0.07,0.17,0.12,0.25,0.18c0.06,0.04,0.13,0.08,0.16,0.14c0.09,0.2,0.27,0.29,0.42,0.42
			c0.1,0.09,0.18,0.21,0.27,0.31c0.14,0.14,0.29,0.28,0.43,0.42c0.08,0.08,0.14,0.18,0.2,0.27c0.05,0.07,0.09,0.15,0.15,0.22
			c0.14,0.15,0.29,0.29,0.43,0.43c0.05,0.05,0.11,0.11,0.12,0.17c0.06,0.27,0.26,0.45,0.42,0.64c0.18,0.22,0.34,0.43,0.42,0.71
			c0.06,0.21,0.24,0.4,0.36,0.59c0.1,0.17,0.2,0.34,0.3,0.51c0.02,0.03,0.04,0.07,0.04,0.1c0.02,0.46,0.33,0.8,0.47,1.21
			c0.03,0.07,0.05,0.15,0.08,0.22c0,0.1,0,0.21,0,0.31c-0.2-0.43-0.4-0.86-0.6-1.29c-0.01-0.03-0.02-0.07-0.03-0.1
			c-0.02-0.21-0.09-0.4-0.21-0.57c-0.21-0.32-0.42-0.63-0.63-0.95c-0.02-0.04-0.04-0.08-0.06-0.12c-0.05-0.13-0.09-0.27-0.16-0.39
			c-0.22-0.35-0.6-0.59-0.74-1c-0.02-0.06-0.09-0.11-0.14-0.16c-0.17-0.18-0.38-0.34-0.51-0.54c-0.11-0.18-0.24-0.33-0.4-0.46
			c-0.17-0.13-0.35-0.25-0.44-0.46c-0.02-0.05-0.08-0.08-0.12-0.12c-0.13-0.1-0.3-0.17-0.38-0.29c-0.13-0.22-0.34-0.32-0.53-0.47
			c-0.04-0.03-0.08-0.08-0.13-0.11c-0.11-0.09-0.22-0.18-0.33-0.28C21.95,4.15,21.85,4.05,21.76,3.96z"/>
		<path class="st34" d="M24.06,5.33c0.25,0.2,0.5,0.39,0.75,0.59c0.12,0.11,0.25,0.23,0.37,0.34c0.03,0.04,0.07,0.08,0.1,0.12
			c-0.06,0.09-0.03,0.16,0.04,0.22c0.1,0.1,0.19,0.19,0.28,0.29c0.07,0.08,0.17,0.16,0.19,0.26c0.04,0.18,0.15,0.3,0.25,0.43
			c0.17,0.21,0.4,0.39,0.4,0.69c0,0.05,0.05,0.1,0.08,0.15c0.14,0.22,0.3,0.43,0.42,0.65c0.04,0.07,0.02,0.18,0.03,0.27
			c-0.17-0.24-0.33-0.48-0.5-0.72c-0.13-0.18-0.28-0.36-0.4-0.55c-0.08-0.12-0.13-0.27-0.2-0.39c-0.09-0.14-0.18-0.29-0.3-0.41
			c-0.14-0.15-0.27-0.3-0.34-0.51c-0.03-0.09-0.12-0.17-0.19-0.23c-0.17-0.15-0.33-0.29-0.42-0.52c-0.05-0.13-0.22-0.21-0.33-0.32
			C24.19,5.59,24.02,5.52,24.06,5.33z"/>
		<path class="st47" d="M27.45,11.58c0-0.1,0-0.21,0-0.31c0.08,0.19,0.17,0.37,0.25,0.56c0.07,0.22,0.15,0.44,0.2,0.67
			c0.08,0.32,0.22,0.64,0.21,0.96c-0.01,0.45,0.07,0.88,0.1,1.32c0.03,0.46,0.06,0.92,0.07,1.38c0.01,0.24-0.02,0.47-0.03,0.71
			c-0.03,0.1-0.06,0.19-0.09,0.29c-0.02,0.06-0.06,0.12-0.09,0.18c0.02-0.27,0.05-0.54,0.06-0.8c0.03-0.87-0.03-1.74-0.17-2.6
			c-0.04-0.24-0.05-0.48-0.08-0.72c-0.01-0.12,0-0.25-0.03-0.36C27.73,12.43,27.59,12,27.45,11.58z"/>
		<path class="st74" d="M28.26,16.87c0.01-0.24,0.03-0.47,0.03-0.71c-0.01-0.46-0.04-0.92-0.07-1.38c-0.03-0.44-0.11-0.87-0.1-1.32
			c0.01-0.32-0.13-0.64-0.21-0.96c-0.06-0.22-0.14-0.44-0.2-0.67c0.02-0.05,0.04-0.1,0.06-0.16c0.04,0.08,0.08,0.17,0.12,0.25
			c0.01,0.06,0.02,0.11,0.04,0.17c0.1,0.38,0.21,0.76,0.31,1.14c0.05,0.17,0.09,0.35,0.01,0.53c-0.02,0.04-0.02,0.09-0.01,0.14
			c0.16,0.89,0.19,1.8,0.17,2.7c-0.01,0.13-0.02,0.27-0.03,0.4c-0.05,0.07-0.1,0.15-0.16,0.22C28.24,17.1,28.25,16.99,28.26,16.87z"
			/>
		<path class="st28" d="M27.89,11.92c-0.04-0.08-0.08-0.17-0.12-0.25c-0.14-0.34-0.28-0.68-0.41-1.02
			c-0.06-0.17-0.09-0.34-0.14-0.52c-0.01-0.03-0.01-0.07-0.03-0.1C27,9.71,26.81,9.4,26.64,9.07c-0.07-0.14-0.1-0.3-0.15-0.45
			c0.17,0.24,0.33,0.48,0.5,0.72c0.03,0.08,0.06,0.15,0.1,0.23c0.14,0.27,0.29,0.54,0.43,0.81c0.03,0.05,0.04,0.12,0.05,0.18
			c0.02,0.12,0.02,0.26,0.06,0.37c0.09,0.24,0.19,0.48,0.29,0.72C27.91,11.74,27.9,11.83,27.89,11.92z"/>
		<path class="st78" d="M18.4,28.98c-0.36,0.05-0.72,0.09-1.08,0.14c-0.09,0.01-0.17,0.01-0.26,0.02c-0.16,0.01-0.31,0.02-0.47,0.03
			c0.06-0.05,0.12-0.1,0.19-0.16c0.11-0.01,0.23-0.02,0.34-0.03c0.28-0.03,0.56-0.06,0.84-0.09c0.65-0.15,1.29-0.29,1.94-0.44
			c0.04-0.01,0.07-0.04,0.1-0.06c0.15-0.09,0.29-0.18,0.44-0.25c0.56-0.26,1.14-0.49,1.69-0.78c0.81-0.42,1.58-0.92,2.24-1.57
			c0.4-0.4,0.83-0.76,1.2-1.19c0.42-0.48,0.8-0.99,1.17-1.51c0.25-0.35,0.45-0.73,0.67-1.1c0.1-0.11,0.21-0.23,0.31-0.34
			c-0.13,0.26-0.26,0.53-0.4,0.79c-0.41,0.72-0.87,1.4-1.41,2.02c-0.61,0.7-1.26,1.36-2,1.93c-0.38,0.3-0.8,0.56-1.2,0.83
			c-0.04,0.02-0.08,0.03-0.11,0.05c-0.78,0.46-1.6,0.83-2.46,1.13c-0.11,0.04-0.19,0.14-0.29,0.22c-0.03,0.01-0.07,0.02-0.1,0.03
			C19.3,28.75,18.85,28.86,18.4,28.98z"/>
		<path class="st79" d="M13.32,29.16c-0.08-0.01-0.16-0.01-0.24-0.02c-0.3-0.08-0.6-0.17-0.9-0.25c-0.16-0.05-0.31-0.1-0.47-0.16
			c0-0.01,0-0.02,0-0.03c0.06-0.1,0.13-0.09,0.23-0.06c0.36,0.11,0.73,0.21,1.09,0.31c0.07,0.02,0.14,0.01,0.21,0
			c0.12,0,0.23-0.02,0.35-0.01c0.35,0.04,0.7,0.09,1.05,0.13c0.06,0.01,0.11,0.02,0.17,0.03c0.21,0.02,0.43,0.04,0.64,0.06
			c-0.13,0.03-0.27,0.06-0.4,0.09c-0.07,0-0.15,0-0.22,0c-0.46-0.07-0.92-0.14-1.39-0.2C13.4,29.05,13.36,29.12,13.32,29.16z"/>
		<path class="st80" d="M18.65,29.2c-0.53,0.07-1.06,0.14-1.59,0.22c-0.03,0-0.06,0-0.09-0.01c0.05-0.04,0.1-0.11,0.15-0.12
			c0.37-0.06,0.75-0.11,1.12-0.16c0.48-0.1,0.95-0.21,1.43-0.31c0,0.04,0,0.08,0,0.12c-0.23,0.06-0.46,0.12-0.68,0.18
			C18.87,29.15,18.76,29.18,18.65,29.2z"/>
		<path class="st81" d="M19.67,28.82c-0.48,0.1-0.95,0.21-1.43,0.31c0.05-0.05,0.1-0.1,0.16-0.16c0.45-0.11,0.91-0.23,1.36-0.34
			c0.03-0.01,0.07-0.02,0.1-0.03c0.16-0.04,0.31-0.08,0.47-0.12c-0.05,0.06-0.1,0.12-0.16,0.19C20,28.72,19.84,28.77,19.67,28.82z"
			/>
		<path class="st23" d="M15.03,29.26c0.13-0.03,0.27-0.06,0.4-0.09c0.38,0,0.77,0,1.15,0c0.16-0.01,0.31-0.02,0.47-0.03
			c-0.09,0.11-0.2,0.16-0.34,0.16c-0.5,0-1,0-1.5,0C15.15,29.29,15.09,29.27,15.03,29.26z"/>
		<path class="st23" d="M13.32,29.16c0.04-0.04,0.08-0.11,0.11-0.11c0.46,0.06,0.93,0.13,1.39,0.2c-0.01,0.04-0.02,0.08-0.03,0.12
			c-0.35-0.05-0.7-0.09-1.05-0.14c-0.06-0.01-0.11-0.01-0.17-0.02C13.49,29.21,13.4,29.18,13.32,29.16z"/>
		<path class="st82" d="M2.77,15.56c0-0.08,0.01-0.16,0.01-0.25c0.04,0.05,0.1,0.1,0.12,0.16c0.17,0.49,0.32,0.98,0.49,1.47
			c0.02,0.07,0.09,0.12,0.13,0.18c0.03,0.26,0.05,0.52,0.1,0.77c0.12,0.62,0.21,1.25,0.54,1.81c0.09,0.15,0.19,0.3,0.28,0.45
			c0.16,0.27,0.33,0.55,0.49,0.82c0.05,0.08,0.09,0.15,0.21,0.1c0.02-0.01,0.09,0.03,0.11,0.06c0.1,0.15,0.18,0.31,0.27,0.47
			c0.13,0.22,0.25,0.44,0.41,0.64c0.24,0.33,0.51,0.64,0.76,0.95c0.15,0.18,0.3,0.35,0.45,0.53c0.05,0.06,0.09,0.13,0.15,0.19
			c0.17,0.19,0.34,0.37,0.51,0.55c-0.12,0.02-0.22-0.03-0.3-0.13c-0.37-0.43-0.71-0.88-1.11-1.27c-0.29-0.29-0.53-0.61-0.74-0.95
			c0-0.01-0.02-0.01-0.03-0.01c-0.02,0.03-0.04,0.05-0.08,0.11c-0.19-0.25-0.36-0.48-0.53-0.71c-0.13-0.17-0.27-0.34-0.41-0.51
			c-0.12-0.29-0.24-0.57-0.36-0.86c-0.28-0.65-0.56-1.31-0.84-1.96c-0.14-0.34-0.28-0.68-0.42-1.02c-0.06-0.14-0.12-0.28-0.18-0.42
			c0-0.06-0.01-0.12-0.01-0.19C2.77,16.23,2.77,15.9,2.77,15.56z"/>
		<path class="st83" d="M4.58,21.01c0.14,0.17,0.28,0.33,0.41,0.51c0.18,0.23,0.35,0.46,0.53,0.71c0.04-0.06,0.06-0.09,0.08-0.11
			c0.01,0,0.03,0,0.03,0.01c0.21,0.34,0.45,0.66,0.74,0.95c0.4,0.39,0.75,0.84,1.11,1.27c0.08,0.09,0.17,0.14,0.3,0.13
			c0.31,0.27,0.62,0.54,0.93,0.81c0.26,0.19,0.52,0.37,0.78,0.56c0.01,0.03,0.02,0.06,0.03,0.09c-0.08-0.02-0.17-0.04-0.25-0.06
			c-0.5-0.26-0.84-0.74-1.38-0.95c-0.2-0.08-0.34-0.29-0.5-0.46c-0.2-0.21-0.39-0.43-0.59-0.63c-0.19-0.19-0.39-0.38-0.59-0.56
			c-0.01-0.01-0.03-0.04-0.05-0.04C5.95,23.2,5.89,23,5.76,22.87c-0.07-0.07-0.17-0.12-0.25-0.18c-0.06-0.08-0.12-0.17-0.19-0.25
			c-0.2-0.35-0.39-0.71-0.59-1.06C4.68,21.26,4.63,21.14,4.58,21.01z"/>
		<path class="st84" d="M4.73,21.38c0.2,0.35,0.39,0.71,0.59,1.06c-0.07-0.04-0.15-0.08-0.22-0.12c-0.05-0.09-0.09-0.18-0.15-0.27
			c-0.22-0.33-0.45-0.66-0.67-1c-0.22-0.33-0.42-0.67-0.63-1.01c-0.17-0.26-0.27-0.56-0.5-0.77c-0.02-0.07-0.05-0.15-0.07-0.22
			C3.04,18.89,3,18.73,2.96,18.58c0.03-0.03,0.06-0.07,0.1-0.11c0.11,0.21,0.22,0.4,0.32,0.6c0.17,0.31,0.34,0.63,0.5,0.94
			c0.06,0.1,0.11,0.21,0.17,0.32c0.06,0.1,0.12,0.2,0.18,0.31c0.11,0.18,0.21,0.37,0.32,0.55C4.6,21.25,4.67,21.32,4.73,21.38z"/>
		<path class="st85" d="M27.92,11.64c-0.1-0.24-0.2-0.48-0.29-0.72c-0.04-0.12-0.04-0.25-0.06-0.37c-0.01-0.06-0.02-0.12-0.05-0.18
			c-0.14-0.27-0.29-0.54-0.43-0.81c-0.04-0.07-0.07-0.15-0.1-0.23c-0.01-0.09,0.01-0.2-0.03-0.27c-0.13-0.22-0.28-0.43-0.42-0.65
			c-0.03-0.05-0.08-0.1-0.08-0.15c-0.01-0.31-0.24-0.48-0.4-0.69c-0.11-0.13-0.21-0.25-0.25-0.43c-0.02-0.09-0.12-0.18-0.19-0.26
			c-0.09-0.1-0.19-0.19-0.28-0.29c-0.07-0.06-0.1-0.13-0.04-0.22c0.19,0.18,0.37,0.36,0.56,0.53c0.11,0.12,0.23,0.25,0.34,0.37
			c0.06,0.13,0.11,0.25,0.18,0.37c0.06,0.11,0.12,0.22,0.19,0.32c0.15,0.21,0.31,0.4,0.36,0.67c0.03,0.19,0.2,0.35,0.3,0.54
			c0.11,0.22,0.27,0.41,0.25,0.69c-0.01,0.1,0.08,0.22,0.13,0.32c0.09,0.18,0.18,0.36,0.26,0.55c0.07,0.15,0.11,0.3,0.1,0.49
			c-0.01,0.19,0.12,0.39,0.18,0.59c0.04,0.12,0.07,0.24,0.1,0.36c-0.02,0.05-0.04,0.1-0.06,0.16C28.08,12.1,28,11.87,27.92,11.64z"
			/>
		<path class="st42" d="M28.51,12.58c0.06,0.22,0.12,0.44,0.19,0.65c0.05,0.3,0.1,0.59,0.14,0.89c0.02,0.12,0.03,0.24,0.02,0.35
			c-0.01,0.17-0.06,0.34-0.06,0.52c0,0.28,0.05,0.56,0.05,0.83c-0.01,0.46-0.04,0.93-0.06,1.39c0,0.03,0,0.06,0,0.09
			c-0.15,0.1-0.16,0.26-0.19,0.41c-0.13,0.97-0.38,1.91-0.72,2.83c-0.04,0.06-0.07,0.11-0.11,0.17c-0.07,0.09-0.13,0.18-0.2,0.27
			c0.1-0.3,0.21-0.6,0.31-0.9c0.3-0.84,0.49-1.7,0.6-2.58c0.03-0.28,0.01-0.57,0.18-0.82c0.04-0.05,0.03-0.14,0.03-0.21
			c-0.01-0.5-0.02-0.99-0.03-1.49c0.03-0.06,0.09-0.13,0.09-0.18c-0.06-0.49-0.14-0.98-0.21-1.47c-0.03-0.18-0.06-0.35-0.09-0.53
			C28.47,12.72,28.49,12.65,28.51,12.58z"/>
		<path class="st25" d="M28.67,14.97c0.01,0.5,0.02,0.99,0.03,1.49c0,0.07,0.01,0.16-0.03,0.21c-0.17,0.25-0.15,0.55-0.18,0.82
			c-0.11,0.88-0.3,1.74-0.6,2.58c-0.06,0.05-0.12,0.1-0.19,0.16c0.15-0.51,0.32-1.02,0.43-1.54c0.12-0.56,0.17-1.13,0.25-1.7
			c0.01-0.13,0.02-0.27,0.03-0.4c0.03-0.06,0.08-0.11,0.09-0.17c0.06-0.26,0.07-0.52,0.04-0.78c-0.06-0.51-0.09-1.02-0.13-1.53
			c-0.01-0.13-0.03-0.27-0.03-0.4c0-0.15,0.03-0.3,0-0.44c-0.06-0.32-0.15-0.63-0.22-0.95c0.02-0.05,0.04-0.1,0.06-0.16
			c0.05,0.15,0.11,0.31,0.16,0.46c0.02,0.05,0.04,0.11,0.06,0.16c0.03,0.18,0.06,0.35,0.09,0.53c-0.02,0.11-0.06,0.22-0.05,0.33
			C28.54,14.1,28.61,14.53,28.67,14.97z"/>
		<path class="st26" d="M3.58,11.46c0.18-0.42,0.35-0.84,0.53-1.25c0.05-0.1,0.1-0.2,0.16-0.3c0.15,0.01,0.13,0.13,0.14,0.22
			c0.03,0.21,0.1,0.42,0.06,0.62c-0.05,0.31-0.17,0.61-0.28,0.9C4,12.12,3.96,12.6,4.02,13.09c0.03,0.22,0.08,0.45,0.11,0.67
			c0.03,0.23,0.04,0.46,0.06,0.69c0.02,0.26,0.04,0.52,0.06,0.78c0,0.04,0.04,0.08,0.07,0.12c0.03-0.03,0.08-0.07,0.09-0.11
			c0.03-0.11,0.03-0.23,0.05-0.34c0.03-0.24,0.09-0.45,0.27-0.63c1.69-1.7,3.38-3.4,5.07-5.1c1.49-1.5,2.99-2.98,4.48-4.48
			c0.19-0.19,0.4-0.28,0.66-0.32c0.12-0.02,0.24-0.03,0.35-0.06c0.04-0.01,0.08-0.07,0.12-0.1c-0.04-0.02-0.09-0.05-0.13-0.05
			c-0.19-0.02-0.37-0.02-0.56-0.04c-0.16-0.01-0.33-0.02-0.49-0.05c-0.23-0.03-0.47-0.07-0.7-0.11c-0.11-0.01-0.23,0.06-0.31-0.07
			c-0.01-0.01-0.05-0.01-0.07,0c-0.11,0.04-0.22,0.05-0.32-0.03c-0.03-0.02-0.09-0.02-0.13-0.01C12.2,4,11.74,4.12,11.27,4.25
			c-0.32,0.09-0.62,0.22-0.97,0.11C10.14,4.3,9.95,4.3,9.77,4.27C9.8,4.25,9.83,4.23,9.86,4.22c0.14-0.08,0.27-0.15,0.41-0.23
			c0.32-0.14,0.63-0.29,0.95-0.43c0.09-0.04,0.19-0.07,0.29-0.1c0.82,0.29,1.64,0.24,2.46,0.03C14.32,3.46,14.66,3.43,15,3.4
			c0.04,0.03,0.08,0.08,0.13,0.1c0.24,0.06,0.49,0.12,0.73,0.18c0.21,0.05,0.41,0.09,0.61,0.15c0.23,0.07,0.45,0.16,0.68,0.22
			c0.23,0.07,0.46,0.12,0.69,0.18c0,0.01,0,0.03,0,0.04c-0.12,0.01-0.24,0.02-0.36,0.03c0,0.02,0,0.03,0,0.05
			c0.09,0.03,0.17,0.06,0.28,0.1c-0.06,0.07-0.11,0.12-0.15,0.17c-1.61,1.62-3.22,3.24-4.82,4.86c-1.96,1.97-3.92,3.94-5.88,5.91
			c-0.75,0.76-1.52,1.5-2.28,2.25c-0.01,0.01-0.02,0.02-0.03,0.03c-0.03,0.02-0.06,0.03-0.1,0.05c-0.03-0.12-0.06-0.23-0.09-0.34
			c-0.02,0-0.04,0-0.05,0c-0.02,0.11-0.04,0.23-0.06,0.34c-0.11-0.31-0.18-0.62-0.26-0.93c-0.09-0.33-0.18-0.67-0.27-1
			c-0.04-0.16-0.1-0.31-0.15-0.47c-0.02-0.07-0.02-0.15-0.03-0.23c-0.02-0.18-0.08-0.37-0.07-0.54c0.03-0.35,0.09-0.7,0.14-1.05
			c0.04-0.31,0.13-0.63,0.12-0.94C3.76,12.19,3.65,11.83,3.58,11.46z"/>
		<path class="st86" d="M9.77,4.27c0.18,0.03,0.36,0.03,0.53,0.09c0.34,0.11,0.65-0.02,0.97-0.11C11.74,4.12,12.2,4,12.67,3.88
			c0.04-0.01,0.11-0.02,0.13,0.01c0.1,0.08,0.21,0.07,0.32,0.03c0.02-0.01,0.06-0.01,0.07,0c0.08,0.13,0.2,0.05,0.31,0.07
			c0.23,0.03,0.47,0.07,0.7,0.11c0.16,0.02,0.33,0.03,0.49,0.05c0.19,0.01,0.37,0.02,0.56,0.04c0.05,0,0.09,0.04,0.13,0.05
			c-0.04,0.04-0.07,0.09-0.12,0.1c-0.11,0.03-0.23,0.04-0.35,0.06c-0.25,0.03-0.47,0.13-0.66,0.32c-1.49,1.5-2.99,2.99-4.48,4.48
			c-1.69,1.7-3.38,3.4-5.07,5.1c-0.18,0.18-0.24,0.4-0.27,0.63c-0.01,0.11-0.02,0.23-0.05,0.34c-0.01,0.04-0.06,0.07-0.09,0.11
			c-0.02-0.04-0.06-0.08-0.07-0.12c-0.02-0.26-0.04-0.52-0.06-0.78c-0.02-0.23-0.03-0.46-0.06-0.69c-0.03-0.23-0.08-0.45-0.11-0.67
			C3.96,12.6,4,12.12,4.18,11.65c0.11-0.29,0.23-0.59,0.28-0.9c0.04-0.2-0.03-0.42-0.06-0.62C4.39,10.03,4.41,9.91,4.26,9.9
			C4.28,9.87,4.29,9.84,4.3,9.81c0.15-0.29,0.31-0.58,0.46-0.88c0.09-0.13,0.19-0.27,0.28-0.4C5.37,8.11,5.69,7.7,6.01,7.28
			c0.1-0.11,0.21-0.23,0.31-0.34C6.56,6.7,6.8,6.46,7.04,6.23c0.1-0.09,0.21-0.19,0.31-0.28C7.77,5.62,8.2,5.29,8.62,4.96
			c0.12-0.08,0.24-0.15,0.36-0.23C9.25,4.58,9.51,4.42,9.77,4.27z"/>
		<path class="st87" d="M27.12,23.59c-0.23,0.3-0.46,0.6-0.69,0.9c-0.08,0.11-0.17,0.21-0.25,0.32c-0.11,0.12-0.23,0.25-0.34,0.37
			c-0.23,0.23-0.46,0.45-0.69,0.68c-0.11,0.12-0.23,0.23-0.34,0.35c-0.42,0.32-0.85,0.64-1.27,0.97c-0.12,0.08-0.25,0.17-0.37,0.25
			c-0.29,0.16-0.58,0.33-0.87,0.49c-0.05,0.02-0.1,0.05-0.15,0.07c0.02-0.05,0.04-0.11,0.06-0.16c0.39-0.23,0.78-0.45,1.15-0.71
			c0.5-0.36,1-0.72,1.46-1.13c0.42-0.36,0.8-0.77,1.16-1.19c0.41-0.48,0.77-0.98,1.14-1.49c0.19-0.27,0.36-0.56,0.53-0.84
			c0.04,0,0.09,0,0.13,0.01c-0.14,0.24-0.27,0.47-0.41,0.71C27.28,23.32,27.2,23.46,27.12,23.59z"/>
		<path class="st88" d="M27.77,22.48c-0.04,0-0.09,0-0.13-0.01c0.16-0.33,0.33-0.65,0.47-0.98c0.17-0.4,0.31-0.82,0.46-1.23
			c0.05-0.16,0.1-0.31,0.16-0.47c0.05-0.01,0.1-0.02,0.15-0.03c-0.02,0.07-0.04,0.14-0.06,0.21c-0.04,0.15-0.08,0.29-0.13,0.44
			c-0.21,0.5-0.41,1-0.62,1.5c-0.07,0.14-0.14,0.29-0.22,0.43C27.83,22.39,27.8,22.43,27.77,22.48z"/>
		<path class="st89" d="M3.58,11.46c0.07,0.37,0.18,0.74,0.2,1.11c0.02,0.31-0.07,0.62-0.12,0.94c-0.05,0.35-0.11,0.7-0.14,1.05
			c-0.01,0.18,0.04,0.36,0.07,0.54c0.01,0.08,0.01,0.16,0.03,0.23c0.04,0.16,0.1,0.31,0.15,0.47c0.09,0.33,0.18,0.66,0.27,1
			c0.08,0.31,0.16,0.62,0.26,0.93c0.02-0.11,0.04-0.23,0.06-0.34c0.02,0,0.04,0,0.05,0c0.03,0.11,0.06,0.22,0.09,0.34
			c0.04-0.02,0.07-0.04,0.1-0.05c0.01-0.01,0.02-0.02,0.03-0.03c0.76-0.75,1.53-1.49,2.28-2.25c1.96-1.97,3.92-3.94,5.88-5.91
			c1.61-1.62,3.22-3.24,4.82-4.86c0.05-0.05,0.09-0.1,0.15-0.17c-0.11-0.04-0.2-0.07-0.28-0.1c0-0.02,0-0.03,0-0.05
			c0.12-0.01,0.24-0.02,0.36-0.03c0-0.01,0-0.03,0-0.04c-0.23-0.06-0.47-0.11-0.69-0.18c-0.23-0.07-0.45-0.16-0.68-0.22
			c-0.2-0.06-0.41-0.1-0.61-0.15c-0.25-0.06-0.49-0.11-0.73-0.18C15.09,3.48,15.05,3.43,15,3.4c0.1-0.01,0.21-0.02,0.31-0.03
			c0.54,0.01,1.08,0.02,1.62,0.03c0.09,0.04,0.18,0.07,0.27,0.11c0.35,0.16,0.69,0.32,1.04,0.47c0.34,0.14,0.68,0.27,1.02,0.41
			c0.06,0.02,0.11,0.06,0.19,0.1c-0.09,0.04-0.14,0.07-0.21,0.1c0.04,0.03,0.06,0.05,0.08,0.06c0.43,0.18,0.89,0.3,1.28,0.58
			c0.16,0.12,0.18,0.11,0.04,0.26c-1.36,1.37-2.71,2.74-4.08,4.11c-1.83,1.84-3.67,3.67-5.51,5.51c-1.71,1.71-3.42,3.42-5.12,5.13
			c-0.15,0.15-0.28,0.31-0.43,0.45c-0.03,0.03-0.13,0.04-0.14,0.02c-0.1-0.14-0.19-0.28-0.26-0.43c-0.14-0.32-0.25-0.65-0.38-0.97
			c-0.02-0.05-0.06-0.08-0.1-0.15c-0.03,0.09-0.05,0.15-0.08,0.23c-0.03-0.03-0.04-0.05-0.05-0.07c-0.22-0.55-0.43-1.1-0.66-1.64
			c-0.08-0.2-0.21-0.39-0.31-0.58c-0.02-0.56-0.05-1.12-0.06-1.69c0-0.3,0.02-0.6-0.06-0.9c-0.12-0.44-0.21-0.89-0.32-1.34
			c0-0.04,0-0.08,0.01-0.12c0.08-0.31,0.17-0.62,0.25-0.93c0.05-0.15,0.1-0.31,0.15-0.46C3.52,11.58,3.55,11.52,3.58,11.46z"/>
		<path class="st23" d="M29.42,16.53c-0.01,0.04-0.02,0.09-0.03,0.13c0-0.4,0-0.8,0-1.2c0.01,0.04,0.02,0.09,0.03,0.13
			C29.41,15.91,29.41,16.22,29.42,16.53z"/>
		<path class="st80" d="M28.88,19.77c-0.05,0.01-0.1,0.02-0.15,0.03c0.07-0.28,0.16-0.56,0.22-0.84c0.09-0.47,0.17-0.94,0.25-1.42
			c0.01-0.05,0.04-0.1,0.06-0.15c0.01,0,0.03,0.01,0.04,0.01c0.01,0.03,0.02,0.06,0.03,0.1c-0.05,0.36-0.1,0.73-0.15,1.09
			c-0.03,0.15-0.06,0.31-0.09,0.46C29.01,19.29,28.95,19.53,28.88,19.77z"/>
		<path class="st90" d="M22.19,27.83c-0.02,0.05-0.04,0.11-0.06,0.16c-0.07,0.04-0.15,0.08-0.22,0.12
			c-0.49,0.21-0.98,0.41-1.47,0.62c-0.16,0.05-0.31,0.11-0.47,0.16c-0.1,0.02-0.21,0.04-0.31,0.06c0-0.04,0-0.08,0-0.12
			c0.17-0.05,0.33-0.1,0.5-0.16c0.32-0.12,0.65-0.23,0.97-0.36C21.49,28.16,21.84,27.99,22.19,27.83z"/>
		<path class="st49" d="M7.69,25.68c-0.08-0.06-0.17-0.12-0.25-0.19c-0.2-0.19-0.39-0.38-0.59-0.57c-0.03-0.02-0.06-0.03-0.09-0.05
			c-0.11-0.07-0.22-0.13-0.31-0.22c-0.19-0.19-0.33-0.43-0.6-0.52c-0.03-0.01-0.05-0.05-0.07-0.08c-0.12-0.14-0.21-0.32-0.35-0.4
			c-0.21-0.12-0.32-0.31-0.47-0.48c-0.06-0.07-0.16-0.09-0.24-0.14c-0.14-0.23-0.27-0.46-0.41-0.68c0-0.02,0-0.04,0-0.06
			c0.11-0.06,0.14,0.04,0.19,0.1c0.09,0.11,0.17,0.23,0.26,0.34c0.07,0.08,0.16,0.15,0.23,0.23c0.1,0.11,0.16,0.28,0.28,0.35
			c0.23,0.14,0.37,0.36,0.53,0.56c0.04,0.05,0.1,0.1,0.16,0.14c0.1,0.08,0.21,0.14,0.3,0.23c0.12,0.12,0.23,0.27,0.35,0.4
			c0.05,0.06,0.12,0.1,0.18,0.14c0.11,0.07,0.24,0.12,0.33,0.2c0.14,0.12,0.26,0.26,0.39,0.38c0.08,0.07,0.16,0.17,0.25,0.18
			c0.26,0.03,0.41,0.23,0.6,0.37c0.21,0.15,0.43,0.31,0.65,0.44c0.1,0.06,0.24,0.07,0.34,0.12c0.44,0.24,0.87,0.49,1.31,0.74
			c-0.11-0.01-0.23-0.02-0.34-0.03c-0.09-0.04-0.19-0.08-0.28-0.12c-0.26-0.16-0.52-0.33-0.79-0.48c-0.09-0.05-0.22-0.05-0.33-0.08
			c-0.08-0.05-0.17-0.1-0.25-0.16C8.44,26.15,8.22,25.96,8,25.79C7.91,25.73,7.79,25.72,7.69,25.68z"/>
		<path class="st91" d="M4.71,23.03c0.08,0.05,0.18,0.07,0.24,0.14c0.15,0.17,0.26,0.36,0.47,0.48c0.15,0.08,0.24,0.27,0.35,0.4
			c0.02,0.03,0.04,0.07,0.07,0.08c0.27,0.1,0.41,0.33,0.6,0.52c0.09,0.09,0.21,0.15,0.31,0.22c0.03,0.02,0.07,0.03,0.09,0.05
			c0.2,0.19,0.39,0.38,0.59,0.57c-0.15,0-0.28-0.06-0.38-0.18C6.96,25.2,6.85,25.1,6.74,25c-0.08-0.07-0.18-0.11-0.25-0.17
			c-0.18-0.16-0.35-0.33-0.53-0.49c-0.03-0.02-0.04-0.07-0.07-0.08c-0.29-0.06-0.39-0.32-0.55-0.51c-0.05-0.07-0.1-0.11-0.17-0.02
			c-0.04-0.04-0.08-0.08-0.13-0.13c-0.09-0.15-0.19-0.31-0.28-0.46C4.74,23.1,4.73,23.06,4.71,23.03z"/>
		<path class="st63" d="M11.74,28.29c0.12,0.03,0.25,0.06,0.37,0.09c0.08,0.03,0.16,0.07,0.24,0.09c0.3,0.09,0.6,0.17,0.91,0.25
			c-0.15,0.07-0.31,0.07-0.47,0.02c-0.34-0.11-0.68-0.21-1.02-0.31c-0.07-0.02-0.14-0.02-0.21-0.02c-0.1-0.01-0.21,0.01-0.3-0.02
			c-0.29-0.11-0.58-0.24-0.87-0.37c-0.08-0.04-0.16-0.06-0.21,0.05c-0.12-0.05-0.25-0.1-0.37-0.15c-0.19-0.12-0.39-0.25-0.58-0.37
			c-0.05-0.03-0.09-0.07-0.14-0.1c0.08-0.1,0.17-0.04,0.25,0c0.21,0.11,0.42,0.22,0.62,0.34c0.13,0.08,0.26,0.11,0.41,0.06
			c0.01,0,0.02,0,0.03,0c0.37,0.16,0.73,0.32,1.1,0.47C11.56,28.35,11.66,28.31,11.74,28.29z"/>
		<path class="st45" d="M10.37,27.86c-0.15,0.05-0.28,0.01-0.41-0.06c-0.2-0.12-0.41-0.23-0.62-0.34c-0.08-0.04-0.16-0.1-0.25,0
			c-0.03,0-0.06,0-0.09,0c-0.14-0.1-0.27-0.21-0.41-0.31c-0.13-0.09-0.27-0.19-0.4-0.29c0.06-0.11,0.13-0.07,0.2-0.03
			c0.2,0.13,0.4,0.27,0.61,0.4c0.04,0.03,0.1,0.06,0.14,0.05c0.18-0.03,0.32,0.07,0.46,0.15C9.85,27.59,10.11,27.72,10.37,27.86z"/>
		<path class="st56" d="M3.64,20.82c-0.05-0.12-0.11-0.23-0.16-0.35c-0.05-0.17-0.1-0.35-0.15-0.52c-0.01-0.03-0.01-0.06-0.02-0.09
			c0.06,0.06,0.15,0.11,0.19,0.18c0.17,0.27,0.31,0.56,0.49,0.82c0.25,0.38,0.52,0.75,0.79,1.12c0.09,0.13,0.22,0.22,0.33,0.33
			c0.02,0.04,0.04,0.07,0.06,0.11c0.16,0.26,0.3,0.54,0.6,0.67c0.13,0.18,0.27,0.35,0.4,0.53c0.08,0.11,0.15,0.22,0.24,0.31
			c0.21,0.2,0.45,0.38,0.66,0.58c0.15,0.14,0.3,0.27,0.5,0.32c0.14,0.12,0.27,0.25,0.42,0.37c0.14,0.11,0.29,0.21,0.44,0.3
			c0.12,0.07,0.26,0.1,0.36,0.19c0.42,0.35,0.88,0.65,1.36,0.91c0.15,0.08,0.3,0.18,0.49,0.13c0.09,0.04,0.19,0.09,0.28,0.13
			c0.32,0.14,0.64,0.29,0.96,0.43c-0.07,0.01-0.15,0.02-0.22,0.03c-0.1-0.04-0.21-0.07-0.31-0.11c-0.33-0.13-0.66-0.26-0.99-0.39
			c-0.08-0.03-0.18-0.03-0.25-0.07C9.72,26.51,9.32,26.25,8.92,26c-0.13-0.08-0.26-0.16-0.39-0.24c-0.11-0.07-0.24-0.12-0.34-0.2
			c-0.36-0.26-0.62-0.64-1.05-0.81c-0.05-0.02-0.09-0.08-0.14-0.12c-0.26-0.24-0.45-0.56-0.79-0.71c-0.02-0.01-0.04-0.04-0.05-0.05
			c-0.23-0.24-0.37-0.57-0.68-0.73c-0.03-0.01-0.05-0.06-0.07-0.08c-0.28-0.36-0.55-0.72-0.83-1.08c-0.01-0.01-0.02-0.02-0.03-0.03
			c-0.23-0.3-0.45-0.61-0.69-0.9C3.79,20.95,3.71,20.89,3.64,20.82z"/>
		<path class="st61" d="M5.11,22.32c-0.11-0.11-0.24-0.21-0.33-0.33c-0.27-0.37-0.54-0.74-0.79-1.12c-0.18-0.27-0.32-0.55-0.49-0.82
			c-0.04-0.07-0.13-0.12-0.19-0.18c-0.05-0.2-0.11-0.39-0.16-0.59c0.24,0.21,0.34,0.51,0.5,0.77c0.21,0.33,0.42,0.67,0.63,1.01
			c0.22,0.34,0.45,0.67,0.67,1C5.01,22.13,5.06,22.23,5.11,22.32z"/>
		<path class="st92" d="M28.79,17.21c0.02-0.46,0.05-0.93,0.06-1.39c0-0.28-0.04-0.56-0.05-0.83c0-0.17,0.04-0.34,0.06-0.52
			c0.01-0.12,0-0.24-0.02-0.35c-0.04-0.3-0.09-0.59-0.14-0.89c0.02-0.07,0.04-0.15,0.06-0.22c0.07,0.34,0.14,0.69,0.21,1.03
			c0.04,0.19,0.02,0.37-0.03,0.56c-0.05,0.18,0,0.38,0.01,0.57c0.01,0.12,0.02,0.24,0.02,0.36c0,0.36,0.02,0.73-0.01,1.09
			C28.96,16.82,29.01,17.07,28.79,17.21z"/>
		<path class="st89" d="M13.98,3.49c-0.82,0.21-1.64,0.26-2.46-0.03c0.07-0.03,0.15-0.06,0.22-0.09c0.03-0.01,0.06-0.02,0.09-0.03
			c0.33-0.11,0.33-0.11,0.29-0.44c0.2,0,0.41,0.01,0.61,0c0.11,0,0.21-0.04,0.31-0.06c0.01,0.04,0.03,0.08,0.04,0.12
			c-0.16,0.07-0.32,0.14-0.49,0.21c0,0.02,0.01,0.04,0.01,0.06c0.21,0.04,0.42,0.09,0.63,0.13C13.48,3.41,13.73,3.45,13.98,3.49z"/>
		<path class="st93" d="M20.01,3.15c0.01,0.03,0.02,0.07,0.03,0.1c0.03,0.05,0.05,0.12,0.09,0.15c0.2,0.13,0.4,0.25,0.6,0.38
			c0.31,0.21,0.61,0.42,0.91,0.63c0.01,0.01,0.02,0.02,0.03,0.03c0.13,0.1,0.25,0.19,0.38,0.29c0.1,0.08,0.21,0.15,0.31,0.23
			c0.14,0.12,0.28,0.25,0.43,0.35c0.16,0.11,0.33,0.22,0.42,0.41c0.02,0.04,0.06,0.08,0.11,0.11c0.46,0.29,0.8,0.7,1.14,1.12
			c0.03,0.09,0.06,0.19,0.09,0.28C24.43,7.11,24.31,7,24.18,6.88c-0.04-0.04-0.08-0.08-0.12-0.12c0.06-0.08,0.04-0.14-0.03-0.2
			c-0.2-0.18-0.39-0.38-0.59-0.56C23.3,5.88,23.15,5.78,23,5.67c-0.26-0.18-0.52-0.35-0.78-0.53c-0.05-0.08-0.09-0.17-0.16-0.22
			c-0.26-0.2-0.53-0.39-0.81-0.57c-0.24-0.16-0.49-0.32-0.74-0.47c-0.4-0.24-0.8-0.46-1.2-0.7c-0.05-0.03-0.08-0.1-0.11-0.15
			c0.21,0.05,0.42,0.11,0.63,0.15C19.89,3.18,19.95,3.15,20.01,3.15z"/>
		<path class="st84" d="M19.2,3.02c0.04,0.05,0.06,0.12,0.11,0.15c0.4,0.24,0.8,0.46,1.2,0.7c0.25,0.15,0.5,0.31,0.74,0.47
			c0.27,0.18,0.54,0.37,0.81,0.57c0.07,0.05,0.11,0.15,0.16,0.22l0,0c-0.27-0.15-0.54-0.29-0.81-0.44c-0.07-0.07-0.12-0.16-0.2-0.21
			c-0.41-0.26-0.83-0.53-1.25-0.77c-0.44-0.25-0.89-0.47-1.33-0.71c-0.07-0.04-0.14-0.1-0.21-0.16c0.05,0,0.1,0,0.15,0
			c0.17,0.03,0.33,0.06,0.5,0.09C19.12,2.98,19.16,3,19.2,3.02z"/>
		<path class="st94" d="M24.46,6.94c-0.34-0.42-0.68-0.83-1.14-1.12c-0.04-0.03-0.09-0.07-0.11-0.11c-0.09-0.19-0.25-0.29-0.42-0.41
			c-0.15-0.11-0.28-0.24-0.43-0.35c-0.1-0.08-0.21-0.15-0.31-0.23c-0.13-0.1-0.25-0.19-0.38-0.29c-0.01-0.01-0.02-0.02-0.03-0.03
			c-0.3-0.21-0.61-0.43-0.91-0.63c-0.2-0.13-0.4-0.25-0.6-0.38c-0.04-0.03-0.06-0.1-0.09-0.15c0.14,0.04,0.27,0.08,0.41,0.12
			c0.18,0.07,0.35,0.15,0.53,0.22c0.09,0.08,0.17,0.18,0.26,0.25c0.17,0.15,0.35,0.28,0.53,0.42c0.3,0.23,0.61,0.46,0.92,0.69
			c0.01,0.01,0.02,0.02,0.03,0.04c0.12,0.12,0.24,0.24,0.37,0.35c0.15,0.12,0.32,0.22,0.42,0.4c0.05,0.09,0.14,0.16,0.22,0.23
			c0.21,0.19,0.48,0.32,0.56,0.62c0.01,0.02,0.03,0.04,0.05,0.06c0.17,0.16,0.34,0.32,0.5,0.48c0.07,0.06,0.14,0.13,0.19,0.21
			c0.13,0.19,0.23,0.4,0.37,0.58c0.16,0.21,0.35,0.41,0.52,0.62c0.02,0.04,0.04,0.08,0.06,0.12c0.02,0.1,0.04,0.21,0.06,0.31
			c-0.03-0.04-0.06-0.08-0.09-0.12C25.73,8.56,25.5,8.28,25.27,8c-0.01-0.02-0.02-0.04-0.03-0.06c-0.02-0.05-0.03-0.11-0.06-0.16
			C25.03,7.43,24.73,7.2,24.46,6.94z"/>
		<path class="st31" d="M25.93,8.53c-0.17-0.2-0.36-0.4-0.52-0.62c-0.14-0.18-0.24-0.39-0.37-0.58c-0.05-0.08-0.12-0.14-0.19-0.21
			c-0.17-0.16-0.34-0.32-0.5-0.48c-0.02-0.02-0.04-0.04-0.05-0.06c-0.08-0.3-0.35-0.44-0.56-0.62c-0.08-0.07-0.17-0.14-0.22-0.23
			c-0.1-0.18-0.27-0.28-0.42-0.4c-0.13-0.1-0.25-0.23-0.37-0.35c-0.01-0.01-0.02-0.03-0.03-0.04c-0.31-0.23-0.61-0.46-0.92-0.69
			c-0.18-0.14-0.36-0.28-0.53-0.42c-0.09-0.08-0.17-0.17-0.26-0.25c0.26,0.12,0.52,0.25,0.78,0.37c0.1,0.1,0.19,0.19,0.29,0.29
			c0.11,0.1,0.22,0.18,0.33,0.28c0.04,0.04,0.08,0.08,0.13,0.11c0.19,0.14,0.39,0.25,0.53,0.47c0.08,0.13,0.25,0.2,0.38,0.29
			c0.04,0.03,0.1,0.07,0.12,0.12c0.09,0.21,0.27,0.33,0.44,0.46c0.17,0.13,0.29,0.28,0.4,0.46c0.13,0.2,0.33,0.36,0.51,0.54
			c0.05,0.05,0.12,0.1,0.14,0.16c0.14,0.42,0.51,0.65,0.74,1C25.84,8.26,25.87,8.4,25.93,8.53z"/>
		<path class="st65" d="M10.18,28.07c0.05-0.1,0.13-0.08,0.21-0.05c0.29,0.12,0.58,0.25,0.87,0.37c0.09,0.03,0.2,0.02,0.3,0.02
			c0.07,0.01,0.14,0,0.21,0.02c0.34,0.1,0.68,0.2,1.02,0.31c0.16,0.05,0.31,0.06,0.47-0.02c0.2,0.03,0.4,0.07,0.59,0.1
			c0.3,0.05,0.6,0.14,0.9,0c0.03-0.01,0.06,0,0.09,0c0.56,0.02,1.12,0.04,1.68,0.06c0.27-0.02,0.54-0.04,0.81-0.06
			c-0.07,0.05-0.15,0.1-0.22,0.16c-0.11,0.01-0.23,0.02-0.34,0.03c-0.61-0.01-1.21-0.03-1.82-0.03c-0.11,0-0.22,0.06-0.33,0.09
			c-0.35-0.05-0.7-0.1-1.05-0.13c-0.11-0.01-0.23,0.01-0.35,0.01c-0.07,0-0.15,0.01-0.21,0c-0.37-0.1-0.73-0.2-1.09-0.31
			c-0.09-0.03-0.17-0.04-0.23,0.06c-0.34-0.13-0.69-0.26-1.03-0.4C10.5,28.24,10.34,28.15,10.18,28.07z"/>
		<path class="st81" d="M29.32,17.49c-0.01-0.03-0.02-0.06-0.03-0.1c-0.01,0-0.03-0.01-0.04-0.01c-0.02,0.05-0.05,0.1-0.06,0.15
			c-0.08,0.47-0.16,0.95-0.25,1.42c-0.06,0.28-0.14,0.56-0.22,0.84c-0.05,0.16-0.1,0.31-0.16,0.47c-0.06,0.05-0.12,0.1-0.19,0.16
			c0.17-0.63,0.35-1.26,0.51-1.89c0.08-0.35,0.12-0.7,0.17-1.06c0.01-0.04,0-0.08,0.02-0.1c0.19-0.24,0.15-0.53,0.16-0.8
			c0.02-0.42,0-0.84,0.01-1.26c0-0.1,0.02-0.2,0.07-0.29c0.02,0.06,0.03,0.12,0.05,0.17c0,0.09,0.01,0.18,0.01,0.28
			c0,0.4,0,0.8,0,1.2c0,0.12,0,0.25-0.01,0.37C29.36,17.19,29.34,17.34,29.32,17.49z"/>
		<path class="st95" d="M3.08,13.16c0.1,0.45,0.2,0.9,0.32,1.34c0.08,0.3,0.06,0.6,0.06,0.9c0.01,0.56,0.04,1.12,0.06,1.69
			c0,0.01,0,0.02,0,0.03c-0.05-0.06-0.11-0.11-0.13-0.18c-0.17-0.49-0.32-0.98-0.49-1.47c-0.02-0.06-0.08-0.1-0.12-0.16
			c0.01-0.07,0.01-0.14,0.02-0.21c0.06-0.53,0.13-1.06,0.19-1.59C3.02,13.39,3.05,13.28,3.08,13.16z"/>
		<path class="st31" d="M3.64,20.82c0.07,0.07,0.15,0.13,0.21,0.21c0.23,0.3,0.46,0.6,0.69,0.9c0.01,0.01,0.02,0.02,0.03,0.03
			c0.28,0.36,0.55,0.72,0.83,1.08c0.02,0.03,0.04,0.07,0.07,0.08c0.32,0.16,0.46,0.49,0.68,0.73c0.02,0.02,0.03,0.04,0.05,0.05
			c0.34,0.15,0.53,0.47,0.79,0.71c0.05,0.04,0.08,0.1,0.14,0.12c0.43,0.17,0.69,0.56,1.05,0.81c0.11,0.08,0.23,0.13,0.34,0.2
			c0.13,0.08,0.26,0.15,0.39,0.24c0.4,0.25,0.8,0.51,1.21,0.76c0.07,0.04,0.17,0.04,0.25,0.07c0.33,0.13,0.66,0.26,0.99,0.39
			c0.1,0.04,0.2,0.07,0.31,0.11c0.34,0.12,0.68,0.25,1.02,0.36c0.29,0.09,0.59,0.22,0.91,0.1c0.82,0.17,1.65,0.22,2.49,0.25
			c0.24-0.01,0.48-0.02,0.72-0.03c-0.07,0.05-0.15,0.1-0.22,0.16c-0.63-0.02-1.27-0.04-1.9-0.06c-0.23-0.01-0.46-0.02-0.69-0.03
			c-0.09,0-0.19,0.03-0.27,0.01c-0.5-0.12-0.99-0.25-1.49-0.39c-0.31-0.09-0.61-0.23-0.93-0.3c-0.23-0.05-0.45-0.08-0.66-0.2
			c-0.44-0.25-0.87-0.5-1.31-0.74C9.23,26.4,9.1,26.4,8.99,26.34c-0.22-0.14-0.44-0.29-0.65-0.44c-0.19-0.13-0.33-0.34-0.6-0.37
			c-0.09-0.01-0.17-0.11-0.25-0.18c-0.13-0.12-0.25-0.26-0.39-0.38c-0.1-0.08-0.22-0.13-0.33-0.2c-0.06-0.04-0.13-0.08-0.18-0.14
			c-0.12-0.13-0.22-0.27-0.35-0.4c-0.09-0.09-0.2-0.15-0.3-0.23c-0.06-0.04-0.12-0.08-0.16-0.14c-0.16-0.2-0.3-0.42-0.53-0.56
			c-0.12-0.07-0.18-0.23-0.28-0.35c-0.07-0.08-0.16-0.15-0.23-0.23c-0.09-0.11-0.17-0.23-0.26-0.34c-0.05-0.06-0.08-0.16-0.19-0.1
			c-0.07-0.13-0.14-0.25-0.22-0.38c-0.13-0.31-0.26-0.63-0.39-0.94C3.67,20.92,3.66,20.87,3.64,20.82z"/>
		<path class="st11" d="M13.98,3.49c-0.25-0.04-0.5-0.08-0.74-0.13c-0.21-0.04-0.42-0.09-0.63-0.13c0-0.02-0.01-0.04-0.01-0.06
			c0.16-0.07,0.32-0.14,0.49-0.21c0.16-0.03,0.33-0.06,0.49-0.09c0.04,0,0.08,0,0.13,0c0.48,0.13,0.95,0.25,1.43,0.38
			c0.07,0.02,0.13,0.08,0.19,0.12C15.21,3.37,15.11,3.39,15,3.4C14.66,3.43,14.32,3.46,13.98,3.49z"/>
		<path class="st96" d="M18.43,2.87c0.07,0.05,0.13,0.12,0.21,0.16c0.44,0.24,0.89,0.46,1.33,0.71c0.43,0.24,0.84,0.51,1.25,0.77
			c0.08,0.05,0.13,0.14,0.2,0.21c-0.09-0.04-0.19-0.08-0.28-0.12c-0.1-0.05-0.21-0.1-0.31-0.16c-0.14-0.09-0.27-0.19-0.41-0.27
			c-0.15-0.09-0.29-0.19-0.44-0.28c-0.04-0.02-0.07-0.06-0.11-0.08c-0.61-0.3-1.22-0.59-1.83-0.89c-0.05-0.02-0.09-0.08-0.13-0.12
			C18.07,2.8,18.25,2.84,18.43,2.87z"/>
		<path class="st97" d="M3.52,17.12c0-0.01,0-0.02,0-0.03c0.1,0.19,0.23,0.38,0.31,0.58c0.23,0.54,0.44,1.09,0.66,1.64
			c0.01,0.02,0.02,0.03,0.05,0.07c0.03-0.08,0.05-0.13,0.08-0.23c0.05,0.07,0.09,0.1,0.1,0.15c0.13,0.32,0.24,0.65,0.38,0.97
			c0.07,0.15,0.16,0.3,0.26,0.43c0.01,0.02,0.12,0.01,0.14-0.02c0.15-0.14,0.28-0.3,0.43-0.45c1.71-1.71,3.42-3.42,5.12-5.13
			c1.84-1.84,3.67-3.67,5.51-5.51c1.36-1.37,2.72-2.74,4.08-4.11c0.15-0.15,0.13-0.14-0.04-0.26c-0.39-0.28-0.85-0.4-1.28-0.58
			c-0.03-0.01-0.05-0.03-0.08-0.06c0.07-0.03,0.12-0.06,0.21-0.1c-0.08-0.04-0.13-0.08-0.19-0.1c-0.34-0.14-0.68-0.27-1.02-0.41
			c-0.35-0.15-0.7-0.31-1.04-0.47c-0.09-0.04-0.18-0.07-0.27-0.11c0.08,0.01,0.17,0.02,0.25,0.03c0.46,0.08,0.91,0.15,1.37,0.23
			c0.17,0.03,0.33,0.08,0.5,0.12c0.03,0.03,0.06,0.06,0.1,0.08c0.27,0.15,0.55,0.29,0.82,0.44c0.29,0.17,0.58,0.36,0.87,0.54
			c0.08,0.05,0.15,0.12,0.06,0.22c0.04,0.03,0.06,0.05,0.09,0.06c0.56,0.25,1.03,0.63,1.51,0.99c0.39,0.29,0.78,0.58,1.17,0.87
			C23.68,7,23.7,7.02,23.72,7.04c0.04,0.09,0.06,0.19,0.13,0.26c0.08,0.09,0.08,0.15-0.01,0.23c-0.66,0.67-1.32,1.35-1.99,2.01
			c-1.26,1.26-2.53,2.51-3.8,3.77c-0.55,0.55-1.09,1.11-1.64,1.66c-1.85,1.87-3.7,3.73-5.56,5.59c-1.09,1.09-2.19,2.17-3.28,3.25
			c-0.01,0.01-0.02,0.02-0.03,0.03c-0.06,0.08-0.11,0.05-0.18-0.01c-0.06-0.06-0.15-0.08-0.23-0.12c-0.15-0.18-0.3-0.35-0.45-0.53
			c-0.26-0.31-0.52-0.63-0.76-0.95c-0.15-0.2-0.27-0.43-0.41-0.64c-0.09-0.15-0.18-0.32-0.27-0.47c-0.02-0.03-0.08-0.07-0.11-0.06
			c-0.12,0.05-0.16-0.02-0.21-0.1c-0.16-0.27-0.33-0.55-0.49-0.82c-0.09-0.15-0.19-0.3-0.28-0.45c-0.33-0.56-0.42-1.19-0.54-1.81
			C3.57,17.64,3.55,17.38,3.52,17.12z"/>
		<path class="st98" d="M23.66,6.97c-0.39-0.29-0.78-0.57-1.17-0.87C22,5.74,21.53,5.36,20.97,5.11c-0.03-0.01-0.05-0.04-0.09-0.06
			c0.09-0.1,0.02-0.17-0.06-0.22c-0.29-0.18-0.57-0.37-0.87-0.54c-0.27-0.16-0.54-0.3-0.82-0.44c-0.04-0.02-0.06-0.05-0.1-0.08
			c0.18,0.06,0.35,0.12,0.53,0.19c0.22,0.08,0.44,0.17,0.65,0.25c0.09,0.08,0.17,0.17,0.27,0.24c0.34,0.22,0.68,0.44,1.02,0.65
			c0.08,0.05,0.19,0.08,0.13,0.22c-0.01,0.02,0.02,0.06,0.05,0.07c0.15,0.11,0.29,0.23,0.44,0.34c0.27,0.19,0.55,0.36,0.83,0.54
			c0.15,0.11,0.29,0.23,0.44,0.34c0.04,0.06,0.08,0.12,0.12,0.19C23.57,6.85,23.61,6.91,23.66,6.97z"/>
		<path class="st19" d="M22.97,6.26c-0.28-0.18-0.56-0.36-0.83-0.54c-0.15-0.1-0.3-0.22-0.44-0.34c-0.02-0.02-0.05-0.06-0.05-0.07
			c0.05-0.14-0.05-0.17-0.13-0.22c-0.34-0.21-0.68-0.43-1.02-0.65c-0.1-0.06-0.18-0.16-0.27-0.24c0.2,0.07,0.39,0.15,0.59,0.22
			c0.1,0.05,0.21,0.1,0.31,0.16c0.08,0.08,0.16,0.18,0.25,0.25c0.29,0.22,0.59,0.44,0.92,0.68c-0.09,0.02-0.13,0.02-0.19,0.04
			c0.18,0.12,0.34,0.21,0.49,0.33C22.74,5.99,22.85,6.13,22.97,6.26z"/>
		<path class="st99" d="M10.65,27.2c0.21,0.11,0.43,0.15,0.66,0.2c0.32,0.06,0.61,0.21,0.93,0.3c0.49,0.14,0.99,0.26,1.49,0.39
			c0.09,0.02,0.18-0.01,0.27-0.01c0.23,0.01,0.46,0.02,0.69,0.03c0.63,0.02,1.27,0.04,1.9,0.06c0.89-0.03,1.76-0.16,2.61-0.4
			c0.01,0,0.02,0,0.03,0c-0.05,0.06-0.1,0.12-0.16,0.19c-0.59,0.1-1.18,0.21-1.77,0.31c-0.49,0.02-0.98,0.06-1.47,0.06
			c-0.41,0-0.81-0.04-1.22-0.06c-0.03,0-0.07-0.02-0.09-0.01c-0.39,0.16-0.75-0.03-1.12-0.08c-0.19-0.03-0.38-0.08-0.58-0.13
			c-0.34-0.11-0.67-0.23-1.02-0.33c-0.11-0.03-0.24-0.01-0.35-0.02c-0.2-0.07-0.39-0.15-0.59-0.22c-0.19-0.1-0.37-0.21-0.56-0.31
			C10.42,27.18,10.53,27.19,10.65,27.2z"/>
		<path class="st99" d="M8.9,26.49c0.11,0.02,0.23,0.02,0.33,0.08c0.27,0.15,0.53,0.32,0.79,0.48c-0.17,0.02-0.31-0.02-0.45-0.12
			C9.35,26.78,9.13,26.64,8.9,26.49z"/>
		<path class="st99" d="M7.69,25.68c0.1,0.04,0.22,0.05,0.31,0.12c0.23,0.17,0.44,0.36,0.66,0.54c-0.28,0.04-0.44-0.17-0.63-0.31
			C7.9,25.92,7.8,25.79,7.69,25.68z"/>
		<path class="st45" d="M11.74,28.29c-0.08,0.01-0.17,0.06-0.24,0.03c-0.37-0.15-0.74-0.31-1.1-0.47c0.09-0.08,0.17-0.06,0.27-0.02
			c0.19,0.08,0.38,0.16,0.57,0.24C11.4,28.15,11.57,28.22,11.74,28.29z"/>
		<path class="st100" d="M17.31,28.26c0.59-0.1,1.18-0.21,1.77-0.31c0.52-0.17,1.04-0.33,1.56-0.5c-0.09,0.06-0.18,0.11-0.27,0.17
			c-0.06,0.04-0.11,0.1-0.17,0.14c-0.16,0.05-0.31,0.1-0.47,0.16c-0.06,0.02-0.13,0.03-0.19,0.05c-0.77,0.23-1.56,0.37-2.36,0.45
			C17.22,28.37,17.26,28.31,17.31,28.26z"/>
		<path class="st77" d="M17.18,28.42c0.8-0.08,1.59-0.22,2.36-0.45c0.06-0.02,0.13-0.03,0.19-0.05c-0.05,0.04-0.1,0.08-0.16,0.12
			c-0.08,0.05-0.17,0.09-0.25,0.13c-0.95,0.27-1.91,0.41-2.89,0.44c0.06-0.05,0.12-0.1,0.19-0.16
			C16.81,28.44,16.99,28.43,17.18,28.42z"/>
		<path class="st4" d="M16.62,28.45c-0.06,0.05-0.12,0.1-0.19,0.16c-0.03,0-0.06,0-0.09,0c-0.69-0.04-1.38-0.08-2.08-0.13
			c-0.03,0-0.07-0.02-0.1-0.03c0.16-0.13,0.34-0.07,0.51-0.06C15.32,28.41,15.97,28.43,16.62,28.45z"/>
		<path class="st48" d="M16.34,28.6c0.03,0,0.06,0,0.09,0c0.98-0.03,1.95-0.17,2.89-0.44c0.06-0.01,0.12-0.02,0.18-0.04
			c0.34-0.11,0.69-0.22,1.03-0.33c-0.04,0.06-0.08,0.12-0.13,0.19c-1.06,0.38-2.14,0.63-3.26,0.72c-0.22,0.02-0.44,0.05-0.63,0.18
			c-0.56-0.02-1.12-0.04-1.68-0.06c-0.03,0-0.07-0.01-0.09,0c-0.3,0.14-0.6,0.05-0.9,0c-0.2-0.03-0.4-0.07-0.59-0.1
			c-0.3-0.08-0.61-0.17-0.91-0.25c-0.08-0.02-0.16-0.06-0.24-0.09c0.12,0,0.24-0.03,0.36-0.01c0.52,0.1,1.03,0.23,1.54,0.33
			c0.09,0.02,0.21-0.05,0.31-0.07c0.58,0.03,1.15,0.06,1.73,0.09C16.16,28.73,16.27,28.72,16.34,28.6z"/>
		<path class="st80" d="M28.39,20.42c0.06-0.05,0.12-0.1,0.19-0.16c-0.15,0.41-0.3,0.83-0.46,1.23c-0.14,0.33-0.31,0.65-0.47,0.98
			c-0.18,0.28-0.34,0.57-0.53,0.84c-0.37,0.51-0.74,1.01-1.14,1.49c-0.36,0.42-0.74,0.82-1.16,1.19c-0.46,0.41-0.96,0.77-1.46,1.13
			c-0.37,0.26-0.77,0.47-1.15,0.71c-0.35,0.16-0.7,0.33-1.05,0.48c-0.32,0.13-0.65,0.24-0.97,0.36c0.05-0.06,0.1-0.12,0.16-0.19
			c0.03-0.02,0.05-0.04,0.08-0.05c0.74-0.26,1.45-0.58,2.13-0.98c0.3-0.19,0.62-0.36,0.91-0.56c0.98-0.66,1.82-1.48,2.59-2.37
			c0.83-0.97,1.5-2.05,2.02-3.23c0.09-0.2,0.16-0.41,0.24-0.62C28.32,20.59,28.35,20.5,28.39,20.42z"/>
		<path class="st81" d="M28.29,20.67c-0.08,0.21-0.15,0.42-0.24,0.62c-0.51,1.17-1.18,2.26-2.02,3.23
			c-0.77,0.89-1.61,1.71-2.59,2.37c-0.3,0.2-0.61,0.38-0.91,0.56c0.06-0.08,0.12-0.17,0.19-0.25c0.4-0.28,0.81-0.54,1.2-0.83
			c0.73-0.57,1.39-1.23,2-1.93c0.54-0.62,1.01-1.3,1.41-2.02c0.14-0.26,0.27-0.52,0.4-0.79c0.12-0.27,0.25-0.54,0.37-0.81
			C28.17,20.77,28.23,20.72,28.29,20.67z"/>
		<path class="st101" d="M28.79,17.21c0.22-0.15,0.17-0.39,0.18-0.59c0.02-0.36,0.01-0.72,0.01-1.09c0.04-0.01,0.08-0.02,0.12-0.03
			c0.01,0.31,0.03,0.62,0.02,0.93c-0.01,0.21-0.01,0.43-0.08,0.62c-0.18,0.47-0.15,0.97-0.28,1.44c-0.08,0.3-0.15,0.6-0.22,0.9
			c-0.06,0.07-0.12,0.15-0.19,0.22c0.02-0.09,0.05-0.18,0.06-0.27c0.12-0.68,0.25-1.35,0.37-2.03
			C28.79,17.28,28.79,17.24,28.79,17.21z"/>
		<path class="st102" d="M28.35,19.61c0.06-0.07,0.12-0.15,0.19-0.22c-0.13,0.42-0.26,0.85-0.39,1.27
			c-0.02,0.05-0.03,0.11-0.05,0.16c-0.12,0.27-0.25,0.54-0.37,0.81c-0.1,0.11-0.21,0.23-0.31,0.34c0.05-0.1,0.1-0.2,0.14-0.31
			c0.11-0.25,0.22-0.5,0.32-0.75c0.03-0.07,0.07-0.13,0.09-0.2C28.11,20.35,28.23,19.98,28.35,19.61z"/>
		<path class="st31" d="M26.05,8.97c-0.02-0.1-0.04-0.21-0.06-0.31c0.21,0.32,0.42,0.64,0.63,0.95c0.12,0.18,0.19,0.36,0.21,0.57
			c0,0.04,0.01,0.07,0.03,0.1c0.2,0.43,0.4,0.86,0.6,1.29c0.14,0.42,0.28,0.84,0.41,1.27c0.03,0.11,0.02,0.24,0.03,0.36
			c0.02,0.24,0.04,0.48,0.08,0.72c0.14,0.86,0.19,1.73,0.17,2.6c-0.01,0.27-0.04,0.54-0.06,0.8c-0.01,0.09-0.02,0.19-0.03,0.28
			c-0.05,0.04-0.1,0.08-0.16,0.12c0.03-0.32,0.08-0.64,0.09-0.97c0.02-0.48,0.01-0.97,0-1.45c0-0.06-0.02-0.11-0.03-0.16
			c-0.04-0.35-0.07-0.71-0.11-1.06c-0.04-0.36-0.1-0.71-0.14-1.07c-0.02-0.13-0.01-0.27-0.05-0.4c-0.18-0.51-0.37-1.02-0.56-1.53
			c-0.13-0.33-0.28-0.65-0.41-0.98c-0.04-0.09-0.04-0.2-0.09-0.28C26.41,9.54,26.23,9.26,26.05,8.97z"/>
		<path class="st18" d="M28.04,17.62c0.01-0.09,0.02-0.19,0.03-0.28c0.03-0.06,0.07-0.12,0.09-0.18c0.04-0.09,0.06-0.19,0.09-0.29
			c-0.01,0.11-0.02,0.23-0.03,0.34c-0.1,1.04-0.33,2.05-0.69,3.04c-0.06,0.18-0.12,0.36-0.19,0.54c-0.01,0.01-0.02,0.02-0.03,0.03
			c-0.07,0.06-0.15,0.12-0.22,0.19c0.21-0.61,0.44-1.21,0.62-1.83C27.87,18.67,27.94,18.14,28.04,17.62z"/>
		<path class="st100" d="M28.17,12.33c0.08,0.32,0.16,0.63,0.22,0.95c0.03,0.14-0.01,0.29,0,0.44c0,0.13,0.02,0.27,0.03,0.4
			c0.04,0.51,0.07,1.02,0.13,1.53c0.03,0.27,0.02,0.52-0.04,0.78c-0.01,0.06-0.06,0.11-0.09,0.17c0.01-0.91-0.01-1.81-0.17-2.7
			c-0.01-0.04-0.01-0.1,0.01-0.14c0.08-0.18,0.04-0.36-0.01-0.53c-0.1-0.38-0.21-0.76-0.31-1.14c-0.02-0.05-0.03-0.11-0.04-0.17
			c0.01-0.09,0.02-0.19,0.03-0.28C28,11.87,28.08,12.1,28.17,12.33z"/>
		<path class="st100" d="M27.36,20.79c0.06-0.18,0.12-0.36,0.19-0.54c0.35-0.98,0.59-1.99,0.69-3.04c0.05-0.07,0.1-0.15,0.16-0.22
			c-0.08,0.57-0.14,1.14-0.25,1.7c-0.11,0.52-0.28,1.03-0.43,1.54c-0.01,0.02-0.02,0.04-0.03,0.06c-0.03,0.04-0.06,0.08-0.09,0.12
			C27.51,20.54,27.43,20.67,27.36,20.79z"/>
		<path class="st66" d="M27.89,20.92c-0.11,0.25-0.22,0.5-0.32,0.75c-0.05,0.1-0.09,0.21-0.14,0.31c-0.22,0.37-0.42,0.75-0.67,1.1
			c-0.37,0.52-0.75,1.03-1.17,1.51c-0.37,0.42-0.8,0.79-1.2,1.19c-0.66,0.65-1.43,1.15-2.24,1.57c-0.55,0.29-1.13,0.52-1.69,0.78
			c-0.15,0.07-0.3,0.17-0.44,0.25c-0.04,0.02-0.07,0.06-0.1,0.06c-0.65,0.15-1.29,0.29-1.94,0.44c0.06-0.05,0.12-0.1,0.19-0.16
			c0.57-0.14,1.14-0.27,1.7-0.41c0.22-0.06,0.45-0.14,0.6-0.33c0.05-0.02,0.09-0.04,0.14-0.06c1.08-0.42,2.11-0.95,3.02-1.68
			c0.62-0.5,1.2-1.06,1.77-1.63c0.32-0.32,0.61-0.69,0.88-1.06c0.52-0.69,0.95-1.45,1.32-2.23C27.68,21.19,27.78,21.05,27.89,20.92z
			"/>
		<path class="st7" d="M22.72,27.2c-0.06,0.08-0.12,0.17-0.19,0.25c-0.68,0.4-1.39,0.72-2.13,0.98c-0.03,0.01-0.05,0.03-0.08,0.05
			c-0.16,0.04-0.31,0.08-0.47,0.12c0.1-0.07,0.18-0.18,0.29-0.22c0.86-0.3,1.68-0.67,2.46-1.13C22.65,27.24,22.68,27.22,22.72,27.2z
			"/>
		<path class="st66" d="M14.63,29.07c0.11-0.03,0.22-0.09,0.33-0.09c0.61,0,1.21,0.02,1.82,0.03c-0.06,0.05-0.12,0.1-0.19,0.16
			c-0.38,0-0.77,0-1.15,0c-0.21-0.02-0.43-0.04-0.64-0.06C14.74,29.1,14.68,29.08,14.63,29.07z"/>
		<path class="st66" d="M18.15,28.73c-0.06,0.05-0.12,0.1-0.19,0.16c-0.28,0.03-0.56,0.06-0.84,0.09c0.07-0.05,0.15-0.1,0.22-0.16
			C17.61,28.79,17.88,28.76,18.15,28.73z"/>
		<path class="st98" d="M7.13,23.72c0.08,0.04,0.17,0.07,0.23,0.12c0.07,0.06,0.11,0.09,0.18,0.01c0.01-0.01,0.02-0.02,0.03-0.03
			c1.09-1.08,2.19-2.16,3.28-3.25c1.86-1.86,3.71-3.73,5.56-5.59c0.55-0.55,1.08-1.11,1.64-1.66c1.26-1.26,2.53-2.51,3.8-3.77
			c0.67-0.67,1.32-1.34,1.99-2.01c0.08-0.08,0.09-0.14,0.01-0.23c-0.06-0.07-0.09-0.17-0.13-0.26c0.13,0.12,0.27,0.23,0.39,0.35
			c0.2,0.19,0.4,0.39,0.6,0.58c0.18,0.22,0.35,0.44,0.53,0.65c0.03,0.1,0.04,0.2-0.05,0.29c-0.26,0.26-0.51,0.53-0.77,0.79
			c-0.9,0.89-1.8,1.78-2.7,2.67c-0.88,0.88-1.76,1.78-2.64,2.66c-1.86,1.88-3.73,3.75-5.59,5.62c-1.5,1.5-3,2.98-4.5,4.47
			c-0.01,0.01-0.02,0.03-0.03,0.03c-0.08,0.04-0.17,0.07-0.25,0.11C8.41,25,8.09,24.74,7.78,24.47c-0.17-0.18-0.34-0.37-0.51-0.55
			C7.22,23.85,7.18,23.78,7.13,23.72z"/>
		<path class="st103" d="M22.22,5.14c0.26,0.18,0.52,0.35,0.78,0.53c0.12,0.12,0.25,0.25,0.37,0.37c0.09,0.09,0.26,0.13,0.22,0.32
			c0,0.01,0.02,0.03,0.04,0.05c0.14,0.12,0.29,0.23,0.43,0.35c0.04,0.04,0.08,0.08,0.12,0.12c0.08,0.21,0.2,0.4,0.38,0.55
			c0.09,0.07,0.16,0.16,0.24,0.24c0.18,0.19,0.36,0.39,0.53,0.58c0.24,0.33,0.49,0.66,0.72,0.99c0.04,0.06,0.07,0.13,0.09,0.19
			c0.06,0.16,0.1,0.34,0.17,0.49c0.22,0.45,0.47,0.89,0.67,1.35c0.2,0.46,0.45,0.9,0.43,1.43c-0.01,0.19,0.09,0.39,0.12,0.59
			c0.09,0.53,0.17,1.05,0.25,1.58c0.03,0.18,0.04,0.36,0.06,0.54c0.01,0.73-0.01,1.45-0.09,2.18c-0.06,0.15-0.14,0.3-0.17,0.45
			c-0.03,0.15-0.09,0.27-0.2,0.37c-2.41,2.41-4.82,4.81-7.23,7.22c-0.19,0.19-0.37,0.4-0.56,0.58c-0.36,0.36-0.74,0.7-1.09,1.07
			c-0.2,0.21-0.41,0.37-0.71,0.39c-0.07,0-0.13,0.08-0.19,0.12c-0.38,0.03-0.77,0.06-1.15,0.09c-1.12,0.04-2.23-0.08-3.32-0.34
			c-0.08-0.02-0.17,0.04-0.26,0.06c-0.33-0.1-0.66-0.21-1-0.31c-0.32-0.14-0.64-0.29-0.96-0.43c-0.09-0.04-0.19-0.09-0.28-0.13
			c-0.28-0.16-0.57-0.32-0.85-0.49c-0.18-0.11-0.34-0.25-0.52-0.38c0.08,0.02,0.17,0.04,0.25,0.06c0.12,0.07,0.24,0.14,0.36,0.21
			c0.66,0.41,1.36,0.75,2.09,1.02c0.1,0.04,0.2,0.05,0.29-0.04c0.15-0.14,0.3-0.27,0.44-0.41c0.35-0.35,0.68-0.71,1.03-1.06
			c1.36-1.36,2.73-2.71,4.09-4.07c0.46-0.45,0.9-0.92,1.35-1.38c2.61-2.62,5.22-5.24,7.83-7.86c0.01-0.01,0.01-0.02,0.02-0.02
			c0.13-0.11,0.16-0.23,0.09-0.39c-0.18-0.4-0.34-0.81-0.53-1.21c-0.19-0.39-0.42-0.76-0.63-1.14c-0.04-0.31-0.19-0.56-0.38-0.79
			c-0.07-0.09-0.14-0.18-0.21-0.27c-0.28-0.31-0.56-0.62-0.84-0.93c-0.02-0.02-0.04-0.04-0.06-0.06c-0.13-0.37-0.43-0.59-0.71-0.84
			c-0.22-0.19-0.47-0.35-0.64-0.58c-0.21-0.29-0.41-0.56-0.72-0.75C22.32,5.32,22.28,5.22,22.22,5.14L22.22,5.14z"/>
		<path class="st62" d="M25.96,9.59c0.21,0.38,0.44,0.75,0.63,1.14c0.19,0.39,0.35,0.81,0.53,1.21c0.07,0.16,0.04,0.28-0.09,0.39
			c-0.01,0.01-0.01,0.01-0.02,0.02c-2.61,2.62-5.22,5.24-7.83,7.86c-0.45,0.46-0.89,0.92-1.35,1.38c-1.36,1.36-2.73,2.71-4.09,4.07
			c-0.35,0.35-0.68,0.71-1.03,1.06c-0.14,0.14-0.3,0.27-0.44,0.41c-0.09,0.09-0.18,0.07-0.29,0.04c-0.73-0.27-1.43-0.61-2.09-1.02
			C9.77,26.07,9.65,26,9.53,25.93c-0.01-0.03-0.02-0.06-0.03-0.09c0.08-0.05,0.18-0.08,0.25-0.14c1.43-1.41,2.86-2.83,4.28-4.25
			c0.92-0.92,1.82-1.84,2.74-2.76c1.28-1.3,2.57-2.6,3.86-3.89c1.05-1.05,2.11-2.09,3.17-3.14c0.64-0.64,1.28-1.28,1.93-1.92
			c0.09-0.09,0.14-0.19,0.09-0.32C25.85,9.46,25.91,9.53,25.96,9.59z"/>
		<path class="st82" d="M25.8,9.4c0.05,0.13,0.01,0.23-0.09,0.32c-0.64,0.64-1.28,1.28-1.93,1.92c-1.06,1.05-2.12,2.09-3.17,3.14
			c-1.29,1.29-2.57,2.59-3.86,3.89c-0.91,0.92-1.82,1.85-2.74,2.76c-1.42,1.42-2.85,2.84-4.28,4.25c-0.07,0.06-0.16,0.1-0.25,0.14
			c-0.26-0.19-0.52-0.37-0.78-0.56c0.08-0.04,0.17-0.07,0.25-0.11c0.01-0.01,0.02-0.02,0.03-0.03c1.5-1.49,3.01-2.98,4.5-4.47
			c1.87-1.87,3.73-3.75,5.59-5.62c0.88-0.89,1.75-1.78,2.64-2.66c0.89-0.89,1.8-1.78,2.7-2.67c0.26-0.26,0.51-0.53,0.77-0.79
			c0.09-0.09,0.08-0.18,0.05-0.29C25.43,8.88,25.62,9.14,25.8,9.4z"/>
		<path class="st84" d="M9.28,25.87c0.17,0.13,0.34,0.27,0.52,0.38c0.28,0.17,0.57,0.33,0.85,0.49c-0.19,0.06-0.34-0.05-0.49-0.13
			c-0.48-0.26-0.94-0.56-1.36-0.91c-0.1-0.08-0.25-0.12-0.36-0.19c-0.15-0.09-0.3-0.19-0.44-0.3c-0.15-0.11-0.28-0.24-0.42-0.37
			c-0.26-0.25-0.45-0.57-0.81-0.7c-0.03-0.01-0.05-0.03-0.07-0.05c-0.17-0.15-0.34-0.31-0.51-0.46c-0.13-0.18-0.27-0.35-0.4-0.53
			c-0.08-0.13-0.17-0.27-0.25-0.4c0.09,0.06,0.18,0.11,0.25,0.18C5.89,23,5.95,23.2,6.17,23.22c0.02,0,0.03,0.02,0.05,0.04
			c0.2,0.19,0.4,0.37,0.59,0.56c0.2,0.21,0.39,0.43,0.59,0.63c0.16,0.16,0.3,0.38,0.5,0.46C8.44,25.12,8.78,25.61,9.28,25.87z"/>
		<path class="st61" d="M5.51,22.69c0.08,0.13,0.17,0.27,0.25,0.4c-0.3-0.13-0.44-0.41-0.6-0.67c-0.02-0.04-0.04-0.07-0.06-0.11
			c0.07,0.04,0.15,0.08,0.22,0.12C5.39,22.53,5.45,22.61,5.51,22.69z"/>
		<path class="st37" d="M27.67,20.3c0.01-0.02,0.02-0.04,0.03-0.06c0.06-0.05,0.12-0.1,0.19-0.16c-0.1,0.3-0.21,0.6-0.31,0.9
			c-0.26,0.51-0.5,1.04-0.79,1.53c-0.8,1.37-1.88,2.51-3.1,3.5c-0.38,0.31-0.8,0.57-1.22,0.83c-0.61,0.38-1.26,0.67-1.92,0.95
			c-0.34,0.11-0.69,0.22-1.03,0.33c-0.06,0.02-0.12,0.03-0.18,0.04c0.08-0.04,0.17-0.09,0.25-0.13c0.06-0.03,0.1-0.08,0.16-0.12
			c0.16-0.05,0.31-0.1,0.47-0.16c0.88-0.32,1.71-0.73,2.5-1.23c0.53-0.33,1-0.73,1.47-1.14c0.57-0.49,1.08-1.04,1.56-1.62
			c0.46-0.57,0.88-1.17,1.21-1.82C27.21,21.42,27.43,20.85,27.67,20.3z"/>
		<path class="st104" d="M20.54,27.8c0.66-0.27,1.31-0.57,1.92-0.95c0.42-0.26,0.84-0.52,1.22-0.83c1.23-0.99,2.3-2.13,3.1-3.5
			c0.29-0.49,0.53-1.02,0.79-1.53c0.07-0.09,0.13-0.18,0.2-0.27c0.04-0.05,0.07-0.11,0.11-0.17c-0.1,0.26-0.21,0.52-0.31,0.78
			c-0.37,0.79-0.8,1.54-1.32,2.23c-0.28,0.37-0.56,0.74-0.88,1.06c-0.57,0.56-1.14,1.13-1.77,1.63c-0.91,0.72-1.93,1.26-3.02,1.68
			c-0.05,0.02-0.09,0.04-0.14,0.06c-0.01,0-0.02,0-0.03,0C20.46,27.92,20.5,27.86,20.54,27.8z"/>
		<path class="st68" d="M27.58,21.32c0.1-0.26,0.21-0.52,0.31-0.78c0.34-0.92,0.58-1.86,0.72-2.83c0.02-0.15,0.04-0.31,0.19-0.41
			c-0.12,0.68-0.25,1.35-0.37,2.03c-0.02,0.09-0.04,0.18-0.06,0.27c-0.13,0.37-0.25,0.74-0.38,1.11c-0.02,0.07-0.06,0.13-0.09,0.2
			C27.78,21.05,27.68,21.19,27.58,21.32z"/>
		<path class="st9" d="M28.67,14.97c-0.06-0.44-0.13-0.88-0.17-1.32c-0.01-0.11,0.03-0.22,0.05-0.33c0.07,0.49,0.15,0.98,0.21,1.47
			C28.76,14.85,28.7,14.91,28.67,14.97z"/>
		<path class="st44" d="M11.89,27.3c0.33,0.1,0.66,0.21,1,0.31c0.24,0.06,0.48,0.12,0.72,0.19c-0.32,0.12-0.61-0.01-0.91-0.1
			c-0.34-0.11-0.68-0.24-1.02-0.36C11.75,27.32,11.82,27.31,11.89,27.3z"/>
		<path class="st61" d="M6.16,23.63c0.17,0.15,0.34,0.31,0.51,0.46c0.02,0.02,0.05,0.04,0.07,0.05c0.36,0.13,0.56,0.45,0.81,0.7
			c-0.2-0.05-0.35-0.18-0.5-0.32c-0.21-0.2-0.44-0.38-0.66-0.58C6.31,23.85,6.25,23.73,6.16,23.63z"/>
		<path class="st84" d="M25.34,8.25c-0.18-0.19-0.35-0.39-0.53-0.58c-0.08-0.08-0.15-0.17-0.24-0.24c-0.18-0.15-0.3-0.34-0.38-0.55
			c0.12,0.11,0.25,0.23,0.37,0.34c0.23,0.24,0.46,0.48,0.68,0.72c0.01,0.02,0.02,0.04,0.03,0.06C25.29,8.08,25.31,8.17,25.34,8.25z"
			/>
		<path class="st84" d="M24.06,6.76c-0.14-0.12-0.29-0.23-0.43-0.35c-0.02-0.01-0.04-0.03-0.04-0.05c0.05-0.19-0.13-0.23-0.22-0.32
			C23.25,5.91,23.13,5.79,23,5.67c0.15,0.11,0.3,0.21,0.44,0.33c0.2,0.18,0.39,0.37,0.59,0.56C24.1,6.62,24.12,6.68,24.06,6.76z"/>
		<path class="st30" d="M25.24,7.94c-0.23-0.24-0.46-0.48-0.68-0.72c-0.03-0.09-0.06-0.19-0.09-0.28c0.27,0.26,0.56,0.49,0.72,0.84
			C25.21,7.83,25.22,7.89,25.24,7.94z"/>
		<path class="st83" d="M22.22,5.14c0.06,0.08,0.1,0.18,0.17,0.23c0.31,0.19,0.51,0.46,0.72,0.75c0.17,0.23,0.42,0.39,0.64,0.58
			c0.28,0.24,0.58,0.47,0.71,0.84c-0.35-0.31-0.71-0.62-1.06-0.93c-0.15-0.11-0.29-0.23-0.44-0.34c-0.12-0.13-0.24-0.27-0.37-0.39
			c-0.14-0.12-0.31-0.21-0.49-0.33c0.06-0.01,0.1-0.02,0.19-0.04c-0.33-0.24-0.62-0.46-0.92-0.68c-0.09-0.07-0.17-0.16-0.25-0.25
			c0.09,0.04,0.19,0.08,0.28,0.12C21.68,4.85,21.95,4.99,22.22,5.14z"/>
		<path class="st30" d="M25.34,8.25C25.31,8.17,25.29,8.08,25.27,8c0.23,0.28,0.46,0.56,0.68,0.84c0.03,0.04,0.06,0.08,0.09,0.12
			c0.18,0.29,0.36,0.58,0.53,0.87c0.05,0.08,0.05,0.19,0.09,0.28c0.13,0.33,0.28,0.65,0.41,0.98c0.19,0.51,0.38,1.02,0.56,1.53
			c0.04,0.12,0.03,0.26,0.05,0.4c0.05,0.36,0.1,0.71,0.14,1.07c0.04,0.35,0.07,0.71,0.11,1.06c-0.03,0.08-0.06,0.17-0.09,0.25
			c-0.02-0.18-0.03-0.36-0.06-0.54c-0.08-0.53-0.16-1.05-0.25-1.58c-0.03-0.2-0.13-0.4-0.12-0.59c0.02-0.53-0.23-0.98-0.43-1.43
			c-0.2-0.46-0.46-0.89-0.67-1.35c-0.08-0.15-0.11-0.33-0.17-0.49c-0.02-0.07-0.05-0.14-0.09-0.19C25.82,8.91,25.58,8.58,25.34,8.25
			z"/>
		<path class="st105" d="M20.42,27.98c0.01,0,0.02,0,0.03,0c-0.15,0.2-0.38,0.27-0.6,0.33c-0.57,0.15-1.14,0.28-1.7,0.41
			c-0.27,0.03-0.54,0.06-0.81,0.09c-0.27,0.02-0.54,0.04-0.81,0.06c0.19-0.13,0.41-0.16,0.63-0.18
			C18.28,28.61,19.36,28.36,20.42,27.98z"/>
		<path class="st56" d="M13.6,27.8c-0.24-0.06-0.48-0.12-0.72-0.19c0.09-0.02,0.18-0.08,0.26-0.06c1.09,0.26,2.2,0.38,3.32,0.34
			c-0.06,0.02-0.11,0.04-0.17,0.06c-0.07,0.03-0.14,0.06-0.2,0.09C15.26,28.02,14.42,27.97,13.6,27.8z"/>
		<path class="st44" d="M16.09,28.04c0.07-0.03,0.13-0.06,0.2-0.09c0.06-0.02,0.11-0.04,0.17-0.06c0.38-0.03,0.77-0.06,1.15-0.09
			c0.05,0,0.1-0.01,0.15-0.02c0.49-0.1,0.98-0.2,1.47-0.3c-0.04,0.05-0.08,0.1-0.12,0.16c-0.14,0.04-0.29,0.09-0.43,0.11
			c-0.62,0.09-1.25,0.17-1.87,0.26C16.57,28.02,16.33,28.03,16.09,28.04z"/>
		<path class="st71" d="M16.81,28.01c0.62-0.09,1.25-0.17,1.87-0.26c0.15-0.02,0.29-0.08,0.43-0.11c0.24-0.06,0.48-0.12,0.72-0.19
			c-0.13,0.06-0.25,0.13-0.38,0.19c-0.08,0.04-0.16,0.08-0.24,0.12c-0.86,0.24-1.73,0.37-2.61,0.4
			C16.66,28.12,16.74,28.07,16.81,28.01z"/>
		<path class="st62" d="M23.41,6.6c0.35,0.31,0.71,0.62,1.06,0.93c0.02,0.02,0.04,0.04,0.06,0.06c0.03,0.06,0.06,0.11,0.09,0.17
			c0.03,0.07,0.06,0.13,0.09,0.2c-0.2-0.2-0.4-0.39-0.6-0.58c-0.13-0.12-0.26-0.23-0.39-0.35C23.7,7.02,23.68,7,23.66,6.97
			c-0.04-0.06-0.08-0.12-0.12-0.19C23.49,6.73,23.45,6.66,23.41,6.6z"/>
		<path class="st47" d="M19.2,27.76c0.08-0.04,0.16-0.08,0.24-0.12c0.13-0.06,0.25-0.13,0.38-0.19c0.04-0.02,0.07-0.04,0.11-0.05
			c1.09-0.38,2.11-0.89,3.04-1.59c0.86-0.64,1.65-1.35,2.33-2.18c0.89-1.09,1.59-2.29,2.02-3.63c0.2-0.64,0.36-1.29,0.53-1.93
			c0.01-0.04-0.01-0.09-0.01-0.14c0.01-0.06,0.02-0.12,0.03-0.19c0.05-0.04,0.1-0.08,0.16-0.12c-0.1,0.52-0.17,1.06-0.32,1.57
			c-0.17,0.62-0.41,1.22-0.62,1.83c-0.03,0.05-0.07,0.1-0.09,0.16c-0.33,0.76-0.76,1.45-1.25,2.1c-0.48,0.65-1.01,1.26-1.63,1.78
			c-0.4,0.33-0.78,0.68-1.2,0.98c-1.12,0.8-2.36,1.37-3.7,1.73C19.23,27.76,19.22,27.76,19.2,27.76z"/>
		<path class="st28" d="M19.24,27.76c1.33-0.36,2.57-0.93,3.7-1.73c0.42-0.3,0.81-0.65,1.2-0.98c0.62-0.52,1.15-1.13,1.63-1.78
			c0.49-0.66,0.93-1.35,1.25-2.1c0.02-0.06,0.06-0.11,0.09-0.16c0.07-0.06,0.15-0.12,0.22-0.19c-0.2,0.4-0.38,0.82-0.59,1.21
			c-0.5,0.91-1.11,1.75-1.85,2.49c-0.33,0.33-0.67,0.66-1.03,0.96c-0.35,0.29-0.71,0.57-1.08,0.83c-0.67,0.46-1.39,0.81-2.14,1.13
			c-0.52,0.17-1.04,0.33-1.56,0.5C19.13,27.89,19.18,27.83,19.24,27.76z"/>
		<path class="st85" d="M20.64,27.45c0.74-0.32,1.47-0.67,2.14-1.13c0.37-0.26,0.74-0.54,1.08-0.83c0.36-0.31,0.7-0.63,1.03-0.96
			c0.74-0.74,1.34-1.58,1.85-2.49c0.22-0.39,0.4-0.81,0.59-1.21c0.01-0.01,0.02-0.02,0.03-0.03c0.07-0.13,0.15-0.25,0.23-0.37
			c0.03-0.04,0.06-0.08,0.09-0.12c-0.24,0.55-0.46,1.12-0.73,1.66c-0.33,0.65-0.74,1.26-1.21,1.82c-0.47,0.58-0.98,1.13-1.56,1.62
			c-0.47,0.4-0.94,0.8-1.47,1.14c-0.79,0.5-1.63,0.91-2.5,1.23c0.06-0.05,0.11-0.1,0.17-0.14C20.45,27.56,20.55,27.51,20.64,27.45z"
			/>
		<path class="st30" d="M27.89,17.74c-0.01,0.06-0.02,0.12-0.03,0.19c-0.04,0.13-0.07,0.25-0.12,0.38c-0.04,0.11-0.1,0.21-0.16,0.31
			c0.06-0.34,0.12-0.69,0.19-1.03c0.09-0.72,0.11-1.45,0.09-2.18c0.03-0.08,0.06-0.17,0.09-0.25c0.01,0.05,0.03,0.11,0.03,0.16
			c0,0.48,0.01,0.97,0,1.45C27.97,17.1,27.92,17.42,27.89,17.74z"/>
		<path class="st83" d="M24.71,7.97c-0.03-0.07-0.06-0.14-0.09-0.2c-0.03-0.06-0.06-0.11-0.09-0.17c0.28,0.31,0.56,0.62,0.84,0.93
			c0.08,0.08,0.14,0.18,0.21,0.27c0.19,0.23,0.34,0.49,0.38,0.79c-0.05-0.06-0.1-0.12-0.16-0.19c-0.19-0.26-0.37-0.52-0.56-0.78
			C25.07,8.41,24.89,8.19,24.71,7.97z"/>
		<path class="st93" d="M27.76,17.59c-0.06,0.34-0.12,0.69-0.19,1.03c-0.01,0.04-0.01,0.08-0.02,0.12
			c-0.25,0.97-0.57,1.91-1.04,2.81c-0.48,0.91-1.07,1.75-1.76,2.51c-0.66,0.74-1.43,1.35-2.23,1.92c-0.58,0.41-1.22,0.74-1.89,1.01
			c-0.46,0.18-0.94,0.33-1.41,0.5c-0.49,0.1-0.98,0.2-1.47,0.3c-0.05,0.01-0.1,0.01-0.15,0.02c0.06-0.04,0.13-0.12,0.19-0.12
			c0.3-0.02,0.51-0.18,0.71-0.39c0.35-0.37,0.73-0.71,1.09-1.07c0.19-0.19,0.37-0.39,0.56-0.58c2.41-2.41,4.82-4.82,7.23-7.22
			c0.11-0.11,0.17-0.22,0.2-0.37C27.62,17.88,27.7,17.74,27.76,17.59z"/>
		<path class="st31" d="M19.24,27.48c0.47-0.16,0.94-0.31,1.41-0.5c0.67-0.27,1.3-0.6,1.89-1.01c0.8-0.57,1.57-1.19,2.23-1.92
			c0.69-0.76,1.28-1.6,1.76-2.51c0.47-0.89,0.78-1.84,1.04-2.81c0.01-0.04,0.01-0.08,0.02-0.12c0.05-0.1,0.11-0.2,0.16-0.31
			c0.05-0.12,0.08-0.25,0.12-0.38c0,0.05,0.02,0.1,0.01,0.14c-0.17,0.64-0.33,1.3-0.53,1.93c-0.43,1.34-1.14,2.54-2.02,3.63
			c-0.68,0.83-1.47,1.54-2.33,2.18c-0.93,0.7-1.95,1.21-3.04,1.59c-0.04,0.01-0.07,0.03-0.11,0.05c-0.24,0.06-0.48,0.12-0.72,0.19
			C19.15,27.59,19.19,27.54,19.24,27.48z"/>
	</g>
</g>
<g id="Layer_2">
	<ellipse class="st106" cx="15.93" cy="16" rx="13.01" ry="13.51"/>
</g>
<g id="Layer_3">
	<path class="st62" d="M5.3,27.72"/>
	<g>
		<path d="M10.92,19.18c-0.04-0.3-0.11-0.69-0.3-1.47c-0.2-0.82-0.27-1.04-0.43-1.24c-0.13-0.18-0.29-0.25-0.49-0.25H9.07v1.55
			c0,0.64,0.01,0.99,0.05,1.42H7.78c0.04-0.43,0.05-0.72,0.05-1.41v-5.07c0-0.58-0.01-0.93-0.05-1.39c0.27,0.02,0.5,0.03,0.93,0.03
			h1.62c1.01,0,1.59,0.79,1.59,2.15c0,0.67-0.12,1.2-0.37,1.55c-0.16,0.22-0.29,0.32-0.59,0.47c0.32,0.15,0.46,0.37,0.66,1.04
			c0.09,0.3,0.18,0.62,0.46,1.64c0.07,0.26,0.14,0.5,0.3,1H10.92z M10.04,14.59c0.37,0,0.59-0.34,0.59-0.88c0-0.53-0.2-0.8-0.59-0.8
			H9.07v1.68H10.04z"/>
		<path d="M13.82,16.83c0.06,0.76,0.35,1.17,0.85,1.17c0.25,0,0.47-0.12,0.63-0.35c0.09-0.13,0.14-0.24,0.19-0.48l1.08,0.46
			c-0.14,0.49-0.24,0.71-0.41,0.97c-0.35,0.53-0.85,0.8-1.47,0.8c-0.61,0-1.09-0.26-1.44-0.8c-0.37-0.57-0.57-1.37-0.57-2.3
			c0-1.87,0.79-3.1,1.98-3.1c0.97,0,1.65,0.8,1.87,2.21c0.05,0.3,0.07,0.7,0.09,1.24c0,0.04,0,0.09,0.01,0.19H13.82z M15.44,15.53
			c-0.09-0.6-0.35-0.92-0.78-0.92c-0.44,0-0.71,0.3-0.82,0.92H15.44z"/>
		<path d="M17.12,19.18c0.04-0.44,0.05-0.84,0.05-1.42v-2.9c0-0.65-0.01-1.05-0.05-1.42h1.24v0.4c0,0.06-0.01,0.2-0.01,0.26
			c0.39-0.57,0.77-0.8,1.28-0.8c0.43,0,0.77,0.18,1,0.53c0.25,0.38,0.35,0.84,0.35,1.58v2.37c0,0.55,0.02,1.02,0.05,1.41h-1.29
			c0.04-0.45,0.05-0.85,0.05-1.42v-1.93c0-0.38-0.02-0.54-0.1-0.7c-0.08-0.17-0.22-0.26-0.41-0.26c-0.35,0-0.66,0.33-0.93,0.99v1.9
			c0,0.54,0.01,0.93,0.05,1.42H17.12z"/>
		<path d="M22.18,13.23c0-0.47-0.01-0.85-0.05-1.29h1.27c-0.03,0.39-0.05,0.84-0.05,1.29v0.2h0.22c0.27,0,0.42-0.01,0.61-0.05v1.56
			c-0.19-0.04-0.35-0.06-0.57-0.06h-0.26v2.41c0,0.26,0.03,0.4,0.11,0.48c0.07,0.07,0.17,0.1,0.29,0.1c0.16,0,0.28-0.05,0.44-0.17
			l0.09,1.43c-0.28,0.13-0.52,0.19-0.86,0.19c-0.42,0-0.72-0.1-0.92-0.33c-0.24-0.27-0.32-0.59-0.32-1.24v-2.88h-0.24
			c-0.2,0-0.36,0.02-0.54,0.06v-1.57c0.18,0.04,0.34,0.06,0.55,0.06h0.22V13.23z"/>
	</g>
</g>
</svg>
