
<svg width="1008px" height="762px" viewBox="-122 173 1008 762" version="1.1" xmlns="http://www.w3.org/2000/svg" xmlns:xlink="http://www.w3.org/1999/xlink">
    <!-- Generator: Sketch 41.2 (35397) - http://www.bohemiancoding.com/sketch -->
    <desc>Created with Sketch.</desc>
    <defs></defs>
    <g id="undraw_apartment_rent_o0ut-(1)" stroke="none" stroke-width="1" fill="none" fill-rule="evenodd" transform="translate(-122.000000, 173.000000)">
        <g id="b4c217a0-9b86-49d5-974d-fd03b0c4b3dd">
            <rect id="Rectangle-path" fill="#2F7DF7" x="628.40575" y="295" width="86" height="55"></rect>
            <rect id="Rectangle-path" fill="#2F7DF7" x="494.40575" y="381" width="86" height="55"></rect>
            <path d="M965.8115,313 L965.8115,196 L900.8115,196 L900.8115,120 L856.8115,120 L856.8115,196 L791.8115,196 L791.8115,313 L755.8115,313 L755.8115,50 L682.8115,50 L682.8115,25 L585.8115,25 L585.8115,0 L489.8115,0 L489.8115,25 L398.8115,25 L398.8115,50 L319.8115,50 L319.8115,312 L277.8115,312 L277.8115,195 L212.8115,195 L212.8115,119 L168.8115,119 L168.8115,195 L103.8115,195 L103.8115,312 L61.8115,312 L61.8115,727 L157.8115,727 L157.8115,580 L223.8115,580 L223.8115,727 L481.8115,727 L481.8115,556 L593.8115,556 L593.8115,727 L749.8115,727 L749.8115,728 L845.8115,728 L845.8115,581 L911.8115,581 L911.8115,728 L1007.8115,728 L1007.8115,313 L965.8115,313 Z M96.3115,363 L134.3115,363 L134.3115,393 L96.3115,393 L96.3115,363 Z M96.8115,447 L134.8115,447 L134.8115,477 L96.8115,477 L96.8115,447 Z M135.3115,561 L97.3115,561 L97.3115,531 L135.3115,531 L135.3115,561 Z M234.8115,290 L146.8115,290 L146.8115,272 L234.8115,272 L234.8115,290 Z M234.8115,264 L146.8115,264 L146.8115,246 L234.8115,246 L234.8115,264 Z M234.8115,238 L146.8115,238 L146.8115,220 L234.8115,220 L234.8115,238 Z M247.3115,363 L285.3115,363 L285.3115,393 L247.3115,393 L247.3115,363 Z M247.8115,447 L285.8115,447 L285.8115,477 L247.8115,477 L247.8115,447 Z M286.3115,561 L248.3115,561 L248.3115,531 L286.3115,531 L286.3115,561 Z M441.8115,511 L371.8115,511 L371.8115,480 L441.8115,480 L441.8115,511 Z M441.8115,422 L371.8115,422 L371.8115,391 L441.8115,391 L441.8115,422 Z M441.8115,333 L371.8115,333 L371.8115,302 L441.8115,302 L441.8115,333 Z M441.8115,244 L371.8115,244 L371.8115,213 L441.8115,213 L441.8115,244 Z M441.8115,155 L371.8115,155 L371.8115,124 L441.8115,124 L441.8115,155 Z M572.8115,511 L502.8115,511 L502.8115,480 L572.8115,480 L572.8115,511 Z M572.8115,422 L502.8115,422 L502.8115,391 L572.8115,391 L572.8115,422 Z M572.8115,333 L502.8115,333 L502.8115,302 L572.8115,302 L572.8115,333 Z M572.8115,244 L502.8115,244 L502.8115,213 L572.8115,213 L572.8115,244 Z M572.8115,155 L502.8115,155 L502.8115,124 L572.8115,124 L572.8115,155 Z M703.8115,511 L633.8115,511 L633.8115,480 L703.8115,480 L703.8115,511 Z M703.8115,422 L633.8115,422 L633.8115,391 L703.8115,391 L703.8115,422 Z M703.8115,333 L633.8115,333 L633.8115,302 L703.8115,302 L703.8115,333 Z M703.8115,244 L633.8115,244 L633.8115,213 L703.8115,213 L703.8115,244 Z M703.8115,155 L633.8115,155 L633.8115,124 L703.8115,124 L703.8115,155 Z M784.3115,364 L822.3115,364 L822.3115,394 L784.3115,394 L784.3115,364 Z M784.8115,448 L822.8115,448 L822.8115,478 L784.8115,478 L784.8115,448 Z M823.3115,562 L785.3115,562 L785.3115,532 L823.3115,532 L823.3115,562 Z M922.8115,291 L834.8115,291 L834.8115,273 L922.8115,273 L922.8115,291 Z M922.8115,265 L834.8115,265 L834.8115,247 L922.8115,247 L922.8115,265 Z M922.8115,239 L834.8115,239 L834.8115,221 L922.8115,221 L922.8115,239 Z M935.3115,364 L973.3115,364 L973.3115,394 L935.3115,394 L935.3115,364 Z M935.8115,448 L973.8115,448 L973.8115,478 L935.8115,478 L935.8115,448 Z M974.3115,562 L936.3115,562 L936.3115,532 L974.3115,532 L974.3115,562 Z" id="Shape" fill="#F2F2F2"></path>
            <path d="M121.0001,625.70953 C120.72038,629.66541 120.28251,634.09015 119.60563,638.73953 L131.83134,625.18076 L131.89866,625.40776 C131.150977,622.144769 129.947138,619.00344 128.32266,616.07646 L128.40085,616.29094 L121.0001,625.70953 Z" id="Shape" fill="#2F7DF7"></path>
            <path d="M121.04789,625.0155 L128.21689,615.89215 C126.691692,613.108879 124.485542,610.757876 121.80475,609.059 C121.6734,608.98075 121.54132,608.90721 121.40924,608.83421 C121.4484,609.91168 121.63621,616.2373 121.04789,625.0155 Z" id="Shape" fill="#2F7DF7"></path>
            <path d="M114.58006,660.78284 C114.265053,661.742073 113.939753,662.683987 113.60416,663.60858 L131.60886,653.05182 L131.63407,653.31677 C132.01023,651.67517 132.323523,650.033713 132.57395,648.3924 L114.59635,660.9034 L114.58006,660.78284 Z" id="Shape" fill="#2F7DF7"></path>
            <path d="M117.08408,651.9223 L133.29978,638.54907 L133.34586,638.79932 C133.403064,634.377431 132.936353,629.964327 131.95548,625.65222 L119.49668,639.46922 C118.84238,643.824033 118.03818,647.97506 117.08408,651.9223 Z" id="Shape" fill="#2F7DF7"></path>
            <path d="M119.21861,639.20624 L99.81553,617.55688 L99.91935,617.31213 C98.0954287,619.880171 96.5356472,622.625929 95.26377,625.50757 L117.40562,649.08167 C118.16428,645.64117 118.75657,642.30981 119.21861,639.20624 Z" id="Shape" fill="#2F7DF7"></path>
            <path d="M95.0543,625.99493 L95.05509,625.99579 C95.09009,625.91559 95.12046,625.828 95.15574,625.74823 L95.0543,625.99493 Z" id="Shape" fill="#2F7DF7"></path>
            <path d="M93.97475,628.65051 L93.8749,628.89801 C93.90663,628.81301 93.94332,628.7356 93.9753,628.65106 L93.97475,628.65051 Z" id="Shape" fill="#2F7DF7"></path>
            <path d="M117.27787,649.656 L95.05509,625.99578 C94.6794833,626.856307 94.31954,627.741397 93.97526,628.65105 L116.68826,652.15874 C116.894867,651.3197 117.091403,650.485453 117.27787,649.656 Z" id="Shape" fill="#2F7DF7"></path>
            <path d="M132.62156,648.07642 C133.063998,645.100477 133.305125,642.09807 133.3433,639.08966 L116.9083,652.64374 C116.25712,655.27222 115.54063,657.799157 114.75883,660.22455 L132.58659,647.81775 L132.62156,648.07642 Z" id="Shape" fill="#2F7DF7"></path>
            <path d="M91.02824,649.76294 L109.01675,673.23187 C110.494724,670.375218 111.800047,667.432498 112.92569,664.41956 L90.97616,641.36548 C90.7586274,644.247608 90.7344867,647.141074 90.9039,650.02643 L91.02824,649.76294 Z" id="Shape" fill="#2F7DF7"></path>
            <path d="M121.08054,608.81445 L121.24174,608.74237 C117.30222,606.63757 113.03733,606.86359 108.94962,608.9975 L120.731,624.99957 C121.36509,615.502 121.08482,608.909 121.08054,608.81445 Z" id="Shape" fill="#2F7DF7"></path>
            <path d="M113.02048,665.17865 C111.987949,667.88957 110.808535,670.542242 109.48748,673.12488 L127.58191,663.76306 L127.60016,664.02344 C128.963391,661.720387 130.029371,659.253912 130.77264,656.68292 C131.06012,655.671453 131.32243,654.657173 131.55957,653.64008 L113.34021,664.32257 C113.23392,664.60852 113.12875,664.89612 113.02048,665.17865 Z" id="Shape" fill="#2F7DF7"></path>
            <path d="M120.68235,625.70709 L108.63075,609.33777 L108.74375,609.10461 C105.294419,611.100304 102.330194,613.835574 100.06425,617.11371 L119.30925,638.58671 C119.97532,633.98969 120.40659,629.61694 120.68235,625.70709 Z" id="Shape" fill="#2F7DF7"></path>
            <path d="M113.12275,663.89087 C114.464499,660.231059 115.608155,656.501638 116.54875,652.71881 L93.77928,629.15271 C93.2372267,630.62471 92.7393833,632.155797 92.28575,633.74597 C91.6563,636.026051 91.2361426,638.358796 91.0305,640.71521 L113.1055,663.90094 L113.12275,663.89087 Z" id="Shape" fill="#2F7DF7"></path>
            <path d="M136.51023,689.31549 C133.77177,692.18384 130.61234,695.31249 127.12553,698.46161 L145.18967,695.81653 L145.09667,696.03436 C146.602019,693.044359 147.678423,689.857106 148.29412,686.56665 L148.21752,686.78174 L136.51023,689.31549 Z" id="Shape" fill="#2F7DF7"></path>
            <path d="M147.74998,677.00458 C147.69871,676.86058 147.6439,676.71967 147.58872,676.57916 C146.93172,677.43408 143.04172,682.42578 136.98972,688.8114 L148.3303,686.35724 C148.930784,683.240768 148.731121,680.022914 147.74998,677.00458 L147.74998,677.00458 Z" id="Shape" fill="#2F7DF7"></path>
            <path d="M109.19535,712.23376 C108.340917,712.771613 107.489583,713.28958 106.64135,713.78766 L127.24169,717.14066 L127.09209,717.36081 C128.428823,716.33639 129.717073,715.271977 130.95684,714.16757 L109.13091,712.33707 L109.19535,712.23376 Z" id="Shape" fill="#2F7DF7"></path>
            <path d="M116.77531,707.00659 L137.79411,707.04932 L137.66996,707.27142 C140.534369,703.902197 142.989682,700.205596 144.9846,696.25885 L126.57621,698.95416 C123.294723,701.890867 120.027757,704.57501 116.77531,707.00659 Z" id="Shape" fill="#2F7DF7"></path>
            <path d="M109.68913,711.91785 L131.33313,713.73303 L131.19513,713.95459 C133.433969,711.94471 135.534647,709.786061 137.48285,707.49335 L116.17985,707.45013 C114.001783,709.059203 111.83821,710.548443 109.68913,711.91785 Z" id="Shape" fill="#2F7DF7"></path>
            <path d="M83.17905,722.62891 C83.33231,722.47375 83.49461,722.30542 83.65458,722.14069 C88.0680208,721.43775 92.3806946,720.205625 96.49937,718.47095 L97.08762,702.87201 C97.26212,702.475037 97.4316967,702.075257 97.59635,701.67267 L96.97035,718.2735 C99.9306949,717.016057 102.812945,715.582165 105.60157,713.97955 L103.59157,684.98126 C103.74657,684.90063 103.90257,684.81903 104.06337,684.73401 L106.07082,713.69482 L106.09053,713.698 C109.458196,711.735056 112.7177,709.592162 115.85488,707.27863 L113.66616,678.74225 C113.82116,678.62872 113.97567,678.51776 114.131,678.40198 L116.3196,706.93622 C117.013873,706.421747 117.697323,705.904573 118.36995,705.3847 L116.56441,676.49756 C116.71901,676.37079 116.87349,676.24371 117.02779,676.11481 L118.83468,705.02381 C121.61336,702.85781 124.19436,700.66993 126.52968,698.57423 L125.39394,669.52455 L125.63002,669.40229 C124.82351,669.61268 124.00362,669.86238 123.1769,670.1341 C124.731619,668.358541 126.130086,666.452023 127.35671,664.4358 L109.08913,673.88722 C107.82468,676.289608 106.402438,678.605574 104.83175,680.8199 C104.50527,681.12806 104.17875,681.43598 103.85707,681.75758 L103.88107,682.10438 C103.73196,682.30073 103.58365,682.49855 103.43283,682.69138 L103.40042,682.22379 C103.16983,682.46042 102.94498,682.7106 102.71701,682.95358 C105.030372,680.065307 107.060651,676.961283 108.77982,673.68436 L90.92294,650.38712 C91.04465,652.46957 91.24814,654.56577 91.51004,656.64487 C89.8521634,653.949308 87.8387251,651.489362 85.52404,649.33139 L85.66472,649.5112 L81.53775,660.7561 C82.49447,664.60468 83.44575,668.9481 84.2391,673.57904 L91.57303,657.13446 C91.60653,657.39081 91.64203,657.64636 91.67727,657.90204 L84.36105,674.3067 C85.08487,678.650513 85.60312,682.846847 85.9158,686.8957 L94.69693,673.10279 C94.7471,673.30097 94.79721,673.49928 94.84738,673.69459 L85.97165,687.63612 C86.1647567,690.337173 86.2644067,692.96184 86.2706,695.51012 L97.00454,681.3482 C97.06186,681.53466 97.11776,681.71538 97.17337,681.89428 L86.32584,696.206 L86.27305,696.09632 C86.2700033,697.105913 86.2517933,698.102247 86.21842,699.08532 L98.32621,685.45312 C98.3905433,685.643 98.4502767,685.817927 98.50541,685.9779 L86.18803,699.8459 C86.17539,700.15065 86.16422,700.45674 86.14866,700.7589 C86.0045601,703.656224 85.7028235,706.543553 85.24479,709.40807 L86.41325,708.22478 C86.1919167,708.683947 85.97636,709.136613 85.76658,709.58278 L85.10166,710.25618 C85.02537,710.69393 84.93845,711.12154 84.85471,711.55218 C84.60941,712.09094 84.373,712.616657 84.14548,713.12933 C84.36509,712.14581 84.56992,711.15698 84.74479,710.15893 L60.56132,693.522 C66.87064,709.66385 78.75163,725.01828 79.51225,725.99289 C80.12968,724.83957 80.69071,723.6528 81.20579,722.44131 C81.35545,722.42715 81.5051,722.41305 81.65464,722.39737 C81.59287,722.54629 81.52864,722.6926 81.46564,722.84024 C81.39027,722.84817 81.31385,722.86024 81.23864,722.86777 C81.29724,722.88419 81.36755,722.90329 81.43127,722.92093 C81.06836,723.767 80.69238,724.59927 80.28912,725.40256 C80.81689,724.92807 81.62091,724.17819 82.58212,723.22635 C88.26883,724.67795 103.58859,727.78235 116.70602,723.19644 L96.60824,718.82449 C92.3073153,720.645716 87.7961387,721.923709 83.17905,722.62891 Z M97.30155,697.19818 L97.78349,696.71018 L97.75596,697.44126 L97.27403,697.92936 L97.30155,697.19818 Z" id="Shape" fill="#2F7DF7"></path>
            <path d="M147.34818,676.35437 L147.51829,676.40167 C145.82658,672.26788 142.39768,669.72174 137.88829,668.75806 L136.75579,688.59706 C143.30192,681.68652 147.29118,676.42993 147.34818,676.35437 Z" id="Shape" fill="#2F7DF7"></path>
            <path d="M105.19047,714.62469 C102.666133,716.054 100.065848,717.34481 97.40116,718.49139 L117.30839,722.82184 L117.15639,723.034 C119.675272,722.129767 122.069437,720.910031 124.28169,719.40393 C125.14827,718.80823 125.99723,718.19434 126.82857,717.56226 L105.98275,714.16919 C105.71854,714.32166 105.45402,714.47607 105.19047,714.62469 Z" id="Shape" fill="#2F7DF7"></path>
            <path d="M126.99475,698.155 C130.43975,695.03915 133.56091,691.94638 136.26709,689.111 L137.42575,668.81677 L137.66153,668.70929 C133.732017,668.046325 129.704419,668.26236 125.86837,669.34186 L126.99475,698.155 Z" id="Shape" fill="#2F7DF7"></path>
            <path d="M85.36662,649.18878 C83.0557721,647.013237 80.2309443,645.459266 77.15629,644.67218 C77.00718,644.63837 76.85886,644.60925 76.71067,644.58069 C77.08097,645.59326 79.21482,651.55109 81.36867,660.0813 L85.36662,649.18878 Z" id="Shape" fill="#2F7DF7"></path>
            <path d="M84.01524,674.14252 L58.87058,659.55078 L58.89365,659.28595 C57.9528198,662.291987 57.3181264,665.385394 56.99924,668.51904 L85.34348,684.09473 C85.00156,680.58826 84.53513,677.23694 84.01524,674.14252 Z" id="Shape" fill="#2F7DF7"></path>
            <path d="M56.95066,669.0473 L56.95166,669.04785 C56.96014,668.96075 56.96197,668.8681 56.97088,668.78137 L56.95066,669.0473 Z" id="Shape" fill="#2F7DF7"></path>
            <path d="M56.74475,671.90649 L56.72632,672.17279 C56.73022,672.08215 56.74121,671.99719 56.74548,671.90686 L56.74475,671.90649 Z" id="Shape" fill="#2F7DF7"></path>
            <path d="M85.39951,684.68048 L56.95164,669.04785 C56.8603867,669.982357 56.79168,670.935357 56.74552,671.90685 L85.6124,687.24285 C85.54954,686.381037 85.4785767,685.526913 85.39951,684.68048 Z" id="Shape" fill="#2F7DF7"></path>
            <path d="M85.82383,700.06628 L57.82322,684.92572 C58.5072447,687.733934 59.3786426,690.493166 60.43156,693.18488 L60.46836,692.89581 L84.83018,709.65527 C85.3527916,706.481678 85.6846039,703.2796 85.82383,700.06628 Z" id="Shape" fill="#2F7DF7"></path>
            <path d="M76.39201,644.66345 L76.52301,644.54517 C72.12585,643.76111 68.13965,645.29431 64.91168,648.58722 L81.06238,660.16406 C78.72975,650.93555 76.42533,644.75208 76.39201,644.66345 Z" id="Shape" fill="#2F7DF7"></path>
            <path d="M81.23475,660.852 L64.71366,649.0094 L64.74912,648.75269 C62.0855162,651.716798 60.1118905,655.234355 58.97019,659.05237 L83.91007,673.52537 C83.12247,668.94751 82.18101,664.65558 81.23475,660.852 Z" id="Shape" fill="#2F7DF7"></path>
            <path d="M85.84782,699.50256 C85.9926382,695.60725 85.9275439,691.706968 85.65282,687.81866 L56.71415,672.44458 C56.6536033,674.01196 56.65338,675.62196 56.71348,677.27458 C56.8196526,679.637557 57.141114,681.985927 57.67387,684.29051 L85.83451,699.51751 L85.84782,699.50256 Z" id="Shape" fill="#2F7DF7"></path>
            <path d="M977.0001,622.70953 C976.72044,626.66541 976.28245,631.09015 975.60569,635.73953 L987.83128,622.18076 L987.89866,622.40776 C987.150973,619.14478 985.947158,616.003456 984.32273,613.07646 L984.40086,613.29094 L977.0001,622.70953 Z" id="Shape" fill="#2F7DF7"></path>
            <path d="M977.04783,622.0155 L984.2169,612.89215 C982.691712,610.108829 980.485519,607.757803 977.80466,606.05896 C977.67332,605.98071 977.54124,605.90717 977.40916,605.83417 C977.44846,606.91168 977.63621,613.2373 977.04783,622.0155 Z" id="Shape" fill="#2F7DF7"></path>
            <path d="M970.58006,657.78284 C970.265047,658.742073 969.939747,659.683987 969.60416,660.60858 L987.60886,650.05182 L987.63401,650.31677 C988.01023,648.67517 988.323543,647.033713 988.57395,645.3924 L970.59635,657.9034 L970.58006,657.78284 Z" id="Shape" fill="#2F7DF7"></path>
            <path d="M973.08408,648.9223 L989.29978,635.54907 L989.34592,635.79932 C989.403094,631.377432 988.936384,626.964332 987.95554,622.65222 L975.49668,636.46922 C974.84238,640.824033 974.03818,644.97506 973.08408,648.9223 Z" id="Shape" fill="#2F7DF7"></path>
            <path d="M975.21861,636.20624 L955.81553,614.55688 L955.91935,614.31213 C954.095429,616.880171 952.535647,619.625929 951.26377,622.50757 L973.40562,646.08167 C974.16428,642.64117 974.75657,639.30981 975.21861,636.20624 Z" id="Shape" fill="#2F7DF7"></path>
            <path d="M951.0543,622.99493 L951.05509,622.99579 C951.09009,622.91559 951.12046,622.828 951.15574,622.74823 L951.0543,622.99493 Z" id="Shape" fill="#2F7DF7"></path>
            <path d="M973.27787,646.656 L951.05509,622.99578 C950.679477,623.856307 950.319533,624.741397 949.97526,625.65105 L972.68826,649.15874 C972.894867,648.3197 973.091403,647.485453 973.27787,646.656 Z" id="Shape" fill="#2F7DF7"></path>
            <path d="M949.97475,625.65051 L949.8749,625.89801 C949.90663,625.81301 949.94332,625.7356 949.9753,625.65106 L949.97475,625.65051 Z" id="Shape" fill="#2F7DF7"></path>
            <path d="M988.62156,645.07642 C989.064038,642.100482 989.305146,639.098072 989.34324,636.08966 L972.9083,649.64374 C972.25712,652.27222 971.54063,654.799157 970.75883,657.22455 L988.58665,644.81775 L988.62156,645.07642 Z" id="Shape" fill="#2F7DF7"></path>
            <path d="M947.02824,646.76294 L965.01676,670.23187 C966.494734,667.375218 967.800057,664.432498 968.9257,661.41956 L946.97617,638.36548 C946.758637,641.247608 946.734497,644.141074 946.90391,647.02643 L947.02824,646.76294 Z" id="Shape" fill="#2F7DF7"></path>
            <path d="M977.08054,605.81445 L977.24168,605.74237 C973.30222,603.63757 969.03733,603.86359 964.94962,605.9975 L976.73093,621.99957 C977.36509,612.502 977.08482,605.909 977.08054,605.81445 Z" id="Shape" fill="#2F7DF7"></path>
            <path d="M969.02048,662.17865 C967.987949,664.88957 966.808535,667.542242 965.48748,670.12488 L983.58191,660.76306 L983.60009,661.02344 C984.963342,658.720382 986.029364,656.253909 986.7727,653.68292 C987.060033,652.671453 987.322323,651.657173 987.55957,650.64008 L969.34021,661.32257 C969.23392,661.60852 969.12875,661.89612 969.02048,662.17865 Z" id="Shape" fill="#2F7DF7"></path>
            <path d="M976.68235,622.70709 L964.63075,606.33777 L964.74375,606.10461 C961.294419,608.100304 958.330194,610.835574 956.06425,614.11371 L975.30925,635.58671 C975.97532,630.98969 976.40659,626.61694 976.68235,622.70709 Z" id="Shape" fill="#2F7DF7"></path>
            <path d="M969.12275,660.89087 C970.464499,657.231059 971.608155,653.501638 972.54875,649.71881 L949.77928,626.15271 C949.237227,627.62471 948.739383,629.155797 948.28575,630.74597 C947.6563,633.026051 947.236143,635.358796 947.0305,637.71521 L969.1055,660.90094 L969.12275,660.89087 Z" id="Shape" fill="#2F7DF7"></path>
            <path d="M992.51023,686.31549 C989.77171,689.18384 986.61223,692.31249 983.12547,695.46161 L1001.18967,692.81653 L1001.09667,693.03436 C1002.60204,690.044361 1003.67846,686.857108 1004.29418,683.56665 L1004.21752,683.78174 L992.51023,686.31549 Z" id="Shape" fill="#2F7DF7"></path>
            <path d="M1003.74998,674.00458 C1003.69871,673.86058 1003.6439,673.71967 1003.58872,673.57916 C1002.93162,674.43408 999.04172,679.42578 992.98972,685.8114 L1004.3303,683.35724 C1004.93078,680.240768 1004.73112,677.022914 1003.74998,674.00458 L1003.74998,674.00458 Z" id="Shape" fill="#2F7DF7"></path>
            <path d="M965.19535,709.23376 C964.340917,709.771613 963.4896,710.28958 962.6414,710.78766 L983.24168,714.14066 L983.09214,714.36081 C984.428927,713.33639 985.717177,712.271977 986.95689,711.16757 L965.13096,709.33707 L965.19535,709.23376 Z" id="Shape" fill="#2F7DF7"></path>
            <path d="M972.77531,704.00659 L993.79417,704.04932 L993.6699,704.27142 C996.534327,700.902198 998.98966,697.205598 1000.9846,693.25885 L982.57615,695.95416 C979.29465,698.890867 976.027703,701.57501 972.77531,704.00659 Z" id="Shape" fill="#2F7DF7"></path>
            <path d="M965.68913,708.91785 L987.33313,710.73303 L987.19507,710.95459 C989.433932,708.944695 991.534649,706.786047 993.48291,704.49335 L972.17981,704.45013 C970.00177,706.059203 967.83821,707.548443 965.68913,708.91785 Z" id="Shape" fill="#2F7DF7"></path>
            <path d="M939.17905,719.62891 C939.33231,719.47375 939.49461,719.30542 939.65458,719.14069 C944.068021,718.43775 948.380695,717.205625 952.49937,715.47095 L953.08762,699.87201 C953.26212,699.475037 953.431697,699.075257 953.59635,698.67267 L952.97035,715.2735 C955.930695,714.016057 958.812945,712.582165 961.60157,710.97955 L959.59157,681.98126 C959.74657,681.90063 959.90257,681.81903 960.06337,681.73401 L962.07082,710.69482 L962.09053,710.698 C965.458196,708.735056 968.7177,706.592162 971.85488,704.27863 L969.66616,675.74225 C969.82116,675.62872 969.97567,675.51776 970.131,675.40198 L972.3196,703.93622 C973.013867,703.421747 973.697317,702.904573 974.36995,702.3847 L972.56441,673.49756 C972.71901,673.37079 972.87349,673.24371 973.02779,673.11481 L974.83461,702.02381 C977.61342,699.85781 980.19436,697.66993 982.52968,695.57423 L981.39394,666.52455 L981.63002,666.40229 C980.82351,666.61268 980.00356,666.86238 979.1769,667.1341 C980.731619,665.358541 982.130086,663.452023 983.35671,661.4358 L965.08913,670.88722 C963.82468,673.289608 962.402438,675.605574 960.83175,677.8199 C960.50527,678.12806 960.17875,678.43598 959.85707,678.75758 L959.88107,679.10438 C959.73196,679.30073 959.58365,679.49855 959.43283,679.69138 L959.40042,679.22379 C959.16983,679.46042 958.94498,679.7106 958.71701,679.95358 C961.030372,677.065307 963.060651,673.961283 964.77982,670.68436 L946.92294,647.38712 C947.04465,649.46957 947.24814,651.56577 947.51004,653.64487 C945.852163,650.949308 943.838725,648.489362 941.52404,646.33139 L941.66472,646.5112 L937.53775,657.7561 C938.49447,661.60468 939.44575,665.9481 940.2391,670.57904 L947.57303,654.13446 C947.60653,654.39081 947.64203,654.64636 947.67727,654.90204 L940.36105,671.3067 C941.08487,675.650513 941.60312,679.846847 941.9158,683.8957 L950.69693,670.10279 C950.7471,670.30097 950.79721,670.49928 950.84738,670.69459 L941.97165,684.63612 C942.164757,687.337173 942.264423,689.96184 942.27065,692.51012 L953.00459,678.3482 C953.06191,678.53466 953.11781,678.71538 953.17342,678.89428 L942.32594,693.20598 L942.27315,693.0963 C942.270103,694.105893 942.251893,695.102227 942.21852,696.0853 L954.32631,682.4531 C954.390643,682.64298 954.450377,682.817907 954.50551,682.97788 L942.18813,696.84588 C942.17549,697.15063 942.16432,697.45672 942.14876,697.75888 C942.00466,700.656204 941.702924,703.543533 941.24489,706.40805 L942.41335,705.22476 C942.192017,705.683927 941.97646,706.136593 941.76668,706.58276 L941.10176,707.25616 C941.02547,707.69391 940.93855,708.12152 940.85481,708.55216 C940.609477,709.09092 940.373067,709.616637 940.14558,710.12931 C940.36519,709.14579 940.57002,708.15696 940.74489,707.15891 L916.56142,690.52201 C922.87074,706.66386 934.75173,722.01829 935.51235,722.9929 C936.12978,721.83958 936.69081,720.65281 937.20589,719.44132 C937.35555,719.42716 937.5052,719.41306 937.65474,719.39738 C937.59297,719.5463 937.52874,719.69261 937.46574,719.84025 C937.39037,719.84818 937.31395,719.86025 937.23874,719.86778 C937.29734,719.8842 937.36765,719.9033 937.43137,719.92094 C937.06846,720.76701 936.69248,721.59928 936.28922,722.40257 C936.81699,721.92808 937.62101,721.1782 938.58222,720.22636 C944.26893,721.67796 959.58869,724.78236 972.70612,720.19645 L952.60834,715.8245 C948.307383,717.64573 943.796172,718.92372 939.17905,719.62891 Z M953.30155,694.19818 L953.78349,693.71018 L953.75596,694.44126 L953.27403,694.92936 L953.30155,694.19818 Z" id="Shape" fill="#2F7DF7"></path>
            <path d="M1003.34812,673.35437 L1003.51829,673.40167 C1001.82664,669.26788 998.39768,666.72174 993.8884,665.75806 L992.75584,685.59706 C999.30198,678.68652 1003.29124,673.42993 1003.34812,673.35437 Z" id="Shape" fill="#2F7DF7"></path>
            <path d="M961.19047,711.62469 C958.666133,713.054 956.065848,714.34481 953.40116,715.49139 L973.30839,719.82184 L973.15639,720.034 C975.675293,719.129765 978.069481,717.910029 980.28176,716.40393 C981.148207,715.80823 981.997163,715.19434 982.82863,714.56226 L961.98274,711.16919 C961.71854,711.32166 961.45402,711.47607 961.19047,711.62469 Z" id="Shape" fill="#2F7DF7"></path>
            <path d="M982.99485,695.155 C986.43985,692.03915 989.56101,688.94638 992.26707,686.111 L993.42576,665.81681 L993.66148,665.70933 C989.731991,665.046362 985.704415,665.262397 981.86839,666.3419 L982.99485,695.155 Z" id="Shape" fill="#2F7DF7"></path>
            <path d="M941.36662,646.18878 C939.055772,644.013237 936.230944,642.459266 933.15629,641.67218 C933.00718,641.63837 932.85886,641.60925 932.71067,641.58069 C933.08097,642.59326 935.21482,648.55109 937.36867,657.0813 L941.36662,646.18878 Z" id="Shape" fill="#2F7DF7"></path>
            <path d="M940.01524,671.14252 L914.87058,656.55078 L914.89365,656.28595 C913.95282,659.291987 913.318126,662.385394 912.99924,665.51904 L941.34348,681.09473 C941.00156,677.58826 940.53513,674.23694 940.01524,671.14252 Z" id="Shape" fill="#2F7DF7"></path>
            <path d="M912.74475,668.90649 L912.72632,669.17279 C912.73022,669.08215 912.74121,668.99719 912.74548,668.90686 L912.74475,668.90649 Z" id="Shape" fill="#2F7DF7"></path>
            <path d="M912.95066,666.0473 L912.95166,666.04785 C912.96014,665.96075 912.96197,665.8681 912.97088,665.78137 L912.95066,666.0473 Z" id="Shape" fill="#2F7DF7"></path>
            <path d="M941.39951,681.68048 L912.95164,666.04785 C912.860393,666.982357 912.791687,667.935357 912.74552,668.90685 L941.6124,684.24285 C941.54954,683.381037 941.478577,682.526913 941.39951,681.68048 Z" id="Shape" fill="#2F7DF7"></path>
            <path d="M941.82383,697.06628 L913.82322,681.92572 C914.507245,684.733934 915.378643,687.493166 916.43156,690.18488 L916.46836,689.89581 L940.83018,706.65527 C941.352792,703.481678 941.684604,700.2796 941.82383,697.06628 L941.82383,697.06628 Z" id="Shape" fill="#2F7DF7"></path>
            <path d="M932.39201,641.66345 L932.52301,641.54517 C928.12585,640.76111 924.13965,642.29431 920.91168,645.58722 L937.06238,657.16406 C934.72975,647.93555 932.42533,641.75208 932.39201,641.66345 Z" id="Shape" fill="#2F7DF7"></path>
            <path d="M937.23475,657.852 L920.71363,646.00941 L920.74909,645.7527 C918.085486,648.716808 916.11186,652.234365 914.97016,656.05238 L939.91004,670.52538 C939.12247,665.94751 938.18101,661.65558 937.23475,657.852 Z" id="Shape" fill="#2F7DF7"></path>
            <path d="M941.84782,696.50256 C941.992638,692.60725 941.927544,688.706968 941.65282,684.81866 L912.71416,669.44458 C912.653607,671.01196 912.653383,672.62196 912.71349,674.27458 C912.819663,676.637557 913.141124,678.985927 913.67388,681.29051 L941.83452,696.51751 L941.84782,696.50256 Z" id="Shape" fill="#2F7DF7"></path>
            <path d="M61.8115,727 L1007.8115,727 L1007.8115,740.53543 C1007.8115,752.389985 998.201485,762 986.34693,762 L83.27607,762 C71.4215153,762 61.8115,752.389985 61.8115,740.53543 L61.8115,727 Z" id="Shape" fill="#2F2E41"></path>
            <rect id="Rectangle-path" fill="#3F3D56" x="61.8115" y="716" width="946" height="19"></rect>
            <path d="M794.95465,65.974 L805.81937,72.86382 L799.22287,60.87019 C801.091061,59.3794192 803.403045,58.5542244 805.79296,58.52519 C805.851327,58.52519 805.909603,58.5257 805.96779,58.52672 C806.722668,58.538846 807.477107,58.4830546 808.22199,58.36002 L811.90386,60.69486 L810.32548,57.82506 C812.934224,56.915309 815.188707,55.2043396 816.76684,52.93659 L823.35702,57.11574 L819.19381,49.54631 C823.04737,44.92011 828.24241,42.08347 833.95872,42.08347 C840.81172,42.08347 846.91644,46.15917 850.8574,52.50938 C853.228931,56.3771635 857.492548,58.6760481 862.02721,58.53199 C862.14967,58.52747 862.272517,58.5252033 862.39575,58.52519 C869.96128,58.52519 876.09436,67.10311 876.09436,77.68454 C876.09436,88.26597 869.96128,96.8439 862.39575,96.8439 C860.732023,96.8376869 859.094663,96.42776 857.62427,95.64932 C852.412161,93.1161867 846.351028,92.9976866 841.04389,95.32516 C836.563268,97.3387146 831.437516,97.3505797 826.94762,95.35779 C821.682934,93.0752432 815.686547,93.1911601 810.51401,95.67547 C809.056576,96.4372754 807.437524,96.8379848 805.79301,96.8439 C798.22748,96.8439 792.09441,88.26596 792.09441,77.68455 C792.050307,73.6028954 793.033915,69.5757535 794.95465,65.974 L794.95465,65.974 Z" id="Shape" fill="#F2F2F2"></path>
            <path d="M242.19675,122.24384 L249.10805,126.62661 L244.91186,118.99719 C246.100256,118.048873 247.570961,117.523943 249.09124,117.50547 C249.12838,117.50547 249.165453,117.505803 249.20246,117.50647 C249.682671,117.514205 250.162605,117.478729 250.63646,117.40047 L252.97858,118.88571 L251.97458,117.06017 C253.634063,116.48146 255.068189,115.393071 256.07207,113.9505 L260.26423,116.60896 L257.61575,111.7938 C259.874333,108.880708 263.323068,107.137564 267.00804,107.04652 C271.36741,107.04652 275.25075,109.63916 277.75768,113.67868 C279.266261,116.139063 281.978443,117.601433 284.86304,117.50979 C284.940953,117.506923 285.019103,117.505483 285.09749,117.50547 C289.91009,117.50547 293.81149,122.96208 293.81149,129.69317 C293.81149,136.42426 289.9101,141.88086 285.09749,141.88086 C284.039154,141.876911 282.99759,141.616147 282.06224,141.12096 C278.746696,139.509583 274.891072,139.434205 271.51508,140.91476 C268.664856,142.19562 265.404254,142.203169 262.54813,140.93552 C259.199141,139.483542 255.384702,139.557278 252.09433,141.1376 C251.167212,141.622204 250.137284,141.877102 249.09116,141.88086 C244.27856,141.88086 240.37716,136.42424 240.37716,129.69317 C240.349149,127.096732 240.974887,124.534981 242.19675,122.24384 Z" id="Shape" fill="#F2F2F2"></path>
            <path d="M56.19675,145.73837 L63.10805,150.12114 L58.91186,142.49172 C60.1002424,141.543413 61.5709279,141.018484 63.09119,141 C63.12833,141 63.1654033,141.000333 63.20241,141.001 C63.6826214,141.008735 64.1625552,140.973259 64.63641,140.895 L66.97853,142.38024 L65.97453,140.5547 C67.6340105,139.975986 69.0681364,138.887598 70.07202,137.44503 L74.26418,140.10349 L71.61575,135.28833 C73.8743334,132.375238 77.3230684,130.632094 81.00804,130.54105 C85.36741,130.54105 89.25075,133.13369 91.75768,137.17321 C93.2662611,139.633593 95.9784427,141.095963 98.86304,141.00432 C98.9409467,141.001453 99.0190967,141.000013 99.09749,141 C103.91009,141 107.81149,146.45661 107.81149,153.1877 C107.81149,159.91879 103.9101,165.37539 99.09749,165.37539 C98.0391542,165.371441 96.9975901,165.110677 96.06224,164.61549 C92.7466958,163.004113 88.8910723,162.928735 85.51508,164.40929 C82.6648558,165.69015 79.4042544,165.697699 76.54813,164.43005 C73.1991426,162.978064 69.3847004,163.0518 66.09433,164.63213 C65.1672116,165.116734 64.1372838,165.371632 63.09116,165.37539 C58.27856,165.37539 54.37716,159.91877 54.37716,153.1877 C54.3491485,150.591262 54.9748874,148.029511 56.19675,145.73837 L56.19675,145.73837 Z" id="Shape" fill="#F2F2F2"></path>
            <path d="M305.72004,596.8638 L304.51293,598.07091 C304.51293,598.07091 304.9153,611.34914 305.31767,614.16573 C305.72004,616.98232 307.32952,621.81073 306.12241,625.43211 C304.9153,629.05349 304.51293,631.87004 304.9153,632.27241 C305.31767,632.67478 304.51293,634.28426 304.51293,634.28426 L307.73193,632.27241 L312.96275,620.20129 L310.54852,607.32543 L305.72004,596.8638 Z" id="Shape" fill="#2F7DF7"></path>
            <path d="M305.72004,596.8638 L304.51293,598.07091 C304.51293,598.07091 304.9153,611.34914 305.31767,614.16573 C305.72004,616.98232 307.32952,621.81073 306.12241,625.43211 C304.9153,629.05349 304.51293,631.87004 304.9153,632.27241 C305.31767,632.67478 304.51293,634.28426 304.51293,634.28426 L307.73193,632.27241 L312.96275,620.20129 L310.54852,607.32543 L305.72004,596.8638 Z" id="Shape" fill="#000000" opacity="0.1"></path>
            <path d="M327.04567,722.001 C327.04567,722.001 327.04567,717.57492 326.24093,716.77018 C325.43619,715.96544 324.22908,713.14885 322.6196,713.14885 C321.01012,713.14885 315.37693,714.75833 315.37693,715.1607 C315.422813,716.416772 315.145737,717.663618 314.57219,718.78204 C313.76745,719.98915 309.34137,724.81759 313.76745,725.62233 C316.73983,726.110863 319.783928,725.386079 322.21723,723.61048 C322.6196,723.20811 324.22908,722.80574 324.63145,723.20811 C325.03382,723.61048 327.04567,722.001 327.04567,722.001 Z" id="Shape" fill="#2F7DF7"></path>
            <path d="M338.31205,714.75836 L340.72627,719.18444 C340.72627,719.18444 341.53101,723.20814 342.73812,723.61051 L343.94524,723.61051 C343.94524,723.61051 345.15235,728.03659 347.96894,727.63422 C350.78553,727.23185 354.0045,725.62236 354.0045,724.81762 C354.0045,724.01288 354.0045,721.59862 352.79739,720.79392 C351.104884,719.41177 349.492771,717.933999 347.96894,716.36784 L345.95709,714.35599 L338.31205,714.75836 Z" id="Shape" fill="#2F7DF7"></path>
            <path d="M307.43204,567.367 C305.86044,568.168893 304.776474,569.684423 304.52543,571.43083 C304.30143,574.30361 307.14136,577.01061 306.22778,579.74345 C305.70907,581.2951 304.09356,582.29991 303.62853,583.86845 C303.383813,585.119439 303.567423,586.416389 304.14977,587.55029 C304.785053,589.105365 305.558482,590.60035 306.46077,592.01729 C308.15687,594.68045 310.36446,597.20684 310.81777,600.33152 C311.072624,601.439932 310.780644,602.603336 310.0326,603.46005 C310.8491,602.842164 311.783385,602.397864 312.77798,602.15448 C316.89038,600.780042 320.710995,598.652085 324.04459,595.87935 C325.255761,595.02775 326.167452,593.815807 326.6499,592.41602 C327.26404,589.9438 325.38776,587.4708 325.56767,584.9298 C325.68275,583.3044 326.62079,581.8691 327.15191,580.32862 C328.084848,577.230064 327.714136,573.885075 326.12537,571.06599 C324.80946,568.338323 322.431772,566.270235 319.54804,565.3451 C317.353041,564.834148 315.063135,564.900295 312.90129,565.5371 C311.012342,565.928951 309.176466,566.543198 307.43204,567.367 L307.43204,567.367 Z" id="Shape" fill="#2F2E41"></path>
            <path d="M309.69716,589.67944 C311.501953,586.326491 314.989399,584.222389 318.79708,584.18913 C325.23501,584.18913 324.0279,583.78676 324.0279,583.78676 L322.01604,591.83417 L317.99234,595.85788 L309.69716,589.67944 Z" id="Shape" fill="#2F7DF7"></path>
            <path d="M311.35323,581.17135 C311.35323,581.17135 314.97456,587.20691 312.56034,589.62113 C310.14612,592.03535 311.35323,594.44958 311.7556,594.85195 C312.15797,595.25432 323.42434,596.05906 323.42434,596.05906 L323.82671,590.42587 L325.03382,585.59743 C325.03382,585.59743 318.59589,584.39032 319.40064,581.57372 C320.20539,578.75712 311.35323,581.17135 311.35323,581.17135 Z" id="Shape" fill="#FBBEBE"></path>
            <path d="M311.35323,581.17135 C311.35323,581.17135 314.97456,587.20691 312.56034,589.62113 C310.14612,592.03535 311.35323,594.44958 311.7556,594.85195 C312.15797,595.25432 323.42434,596.05906 323.42434,596.05906 L323.82671,590.42587 L325.03382,585.59743 C325.03382,585.59743 318.59589,584.39032 319.40064,581.57372 C320.20539,578.75712 311.35323,581.17135 311.35323,581.17135 Z" id="Shape" fill="#000000" opacity="0.1"></path>
            <path d="M339.51916,638.308 C339.088407,639.689153 338.550272,641.034493 337.90968,642.33171 C337.50731,642.73408 336.3002,639.51512 336.3002,639.51512 L337.50731,636.69852 L339.51916,638.308 Z" id="Shape" fill="#FBBEBE"></path>
            <polygon id="Shape" fill="#FBBEBE" points="334.892 620 336.501 629.255 312.359 629.255 313.566 620"></polygon>
            <circle id="Oval" fill="#FBBEBE" cx="315.7793" cy="576.74528" r="7.64504"></circle>
            <path d="M317.38875,592.43773 C317.38875,592.43773 312.96268,592.8401 312.96268,592.03536 C312.96268,591.23062 312.56031,588.81636 311.75557,589.21876 C310.95083,589.62116 305.72001,590.0235 306.12238,591.23061 C306.52475,592.43772 307.32949,594.85195 306.52475,594.85195 C305.821747,594.995567 305.208463,595.421343 304.82818,596.029803 C304.447898,596.638263 304.333929,597.376106 304.5129,598.07095 C304.91527,600.08281 309.34134,612.15395 309.34134,612.15395 C309.34134,612.15395 309.74371,616.17766 310.95082,617.38477 C311.960975,618.687217 311.960975,620.508393 310.95082,621.81084 C310.14608,622.61558 312.96268,623.42033 314.16982,625.02984 C315.37696,626.63935 324.63145,625.43221 325.03382,625.02984 C325.43619,624.62747 335.09309,624.62747 335.89782,623.82273 C336.70255,623.01799 335.49545,620.60373 335.49545,620.60373 C335.49545,620.60373 335.09308,616.9824 335.49545,615.77529 C335.89782,614.56818 333.88596,594.85202 332.67885,593.64491 C331.47174,592.4378 336.30019,588.81646 336.30019,588.81646 C336.30019,588.81646 335.49545,585.59746 330.26463,585.19513 C330.26463,585.19513 328.65515,582.7809 327.04563,582.7809 C325.43611,582.7809 321.94153,584.6529 321.94153,584.6529 C321.94153,584.6529 321.01008,590.0236 319.80297,590.42597 C318.848722,590.893523 318.020754,591.583466 317.38875,592.43773 L317.38875,592.43773 Z" id="Shape" fill="#2F7DF7"></path>
            <path d="M333.4836,587.60928 L336.3002,588.81639 C336.3002,588.81639 344.34761,613.76339 343.54287,618.59181 C342.73813,623.42023 340.72627,639.91745 339.51916,639.91745 C338.31205,639.91745 335.89783,637.50322 335.89783,637.50322 L335.89783,633.47952 C335.89783,632.67478 334.69071,630.26052 335.49546,630.26052 C336.30021,630.26052 337.50731,629.45578 336.70257,628.65104 C335.89783,627.8463 335.09309,626.63919 335.89783,625.43204 C336.70257,624.22489 337.10494,623.82256 336.70257,622.61544 C336.3002,621.40832 335.49546,620.20122 336.3002,619.39644 C337.10494,618.59166 334.28834,614.56799 334.28834,614.56799 L329.86227,596.86369 L330.66701,589.62102 L333.4836,587.60928 Z" id="Shape" fill="#2F7DF7"></path>
            <path d="M335.09309,625.83448 C335.09309,625.83448 319.80301,624.62737 317.79115,624.62737 C315.77929,624.62737 311.26564,622.73268 311.26564,622.73268 C311.26564,622.73268 299.68448,634.28426 303.70819,653.19568 C307.7319,672.1071 308.53663,695.44459 310.95085,702.28489 C312.591534,707.161638 313.935233,712.133313 314.97456,717.17259 C314.97456,717.17259 318.99826,709.92992 326.6433,717.97733 C326.6433,717.97733 327.44805,711.94178 326.24093,709.52755 C325.03381,707.11332 323.42434,694.23747 323.42434,694.23747 C323.42434,694.23747 320.60775,673.71658 320.60775,671.30236 C320.60775,668.88814 318.99826,648.36724 319.40064,647.96487 C319.80302,647.5625 321.81486,663.65732 322.21723,666.47387 C322.6196,669.29042 323.82671,691.01847 325.03382,693.43269 C326.24093,695.84691 331.87412,715.16069 335.09309,716.36781 C338.31206,717.57493 349.17609,715.96544 348.77368,715.1607 C348.37127,714.35596 345.55468,709.92988 344.74998,708.72277 L341.53098,703.89433 L333.88598,677.74024 L337.50732,645.95297 C337.50732,645.95297 339.51916,625.43211 335.09309,625.83448 Z" id="Shape" fill="#2F2E41"></path>
            <path d="M320.43633,575.73935 L310.63238,575.73935 C309.773078,575.73935 309.041481,575.114206 308.90746,574.26542 L307.93308,568.09431 L323.22316,568.09431 L321.85622,574.58731 C321.714847,575.258741 321.122483,575.739361 320.43633,575.73935 Z" id="Shape" fill="#2F2E41"></path>
            <path d="M825.715,573.83422 L841.1837,573.83422 L841.1837,595.93236 L841.1837,595.93236 C837.081148,595.932365 833.146623,594.302636 830.245679,591.401696 C827.344734,588.500755 825.715,584.566232 825.715,580.46368 L825.715,573.83422 L825.715,573.83422 Z" id="Shape" fill="#2F2E41"></path>
            <polygon id="Shape" fill="#A0616A" points="816.692 703.292 815.587 708.817 823.321 708.817 823.689 703.292"></polygon>
            <path d="M816.69159,707.71211 C816.69159,707.71211 815.21838,706.60721 814.48177,707.34381 C813.74516,708.08041 811.16705,722.44421 810.79877,722.81251 C810.43049,723.18081 799.3814,728.70535 801.95952,729.07365 C804.53764,729.44195 814.48179,729.81025 815.955,729.07365 C817.42821,728.33705 821.47954,721.3393 821.47954,721.3393 L821.47954,727.60044 L822.21614,727.60044 C822.21614,727.60044 822.95275,720.971 824.79426,719.12944 C826.63577,717.28788 823.32105,711.02679 823.32105,711.02679 C823.32105,711.02679 824.05765,706.97547 823.68935,706.97547 C823.32105,706.97547 816.69159,707.71211 816.69159,707.71211 Z" id="Shape" fill="#2F7DF7"></path>
            <polygon id="Shape" fill="#A0616A" points="839.526 699.425 838.421 704.95 846.156 704.95 846.524 699.425"></polygon>
            <path d="M830.68708,663.51584 C830.68708,663.51584 834.37008,674.5649 835.1067,675.66984 C835.84332,676.77478 838.42143,697.39968 838.42143,697.39968 C838.42143,697.39968 835.84331,701.451 839.15803,701.81931 C842.47275,702.18762 840.99954,701.0827 843.20936,701.81931 C844.427023,702.27962 845.789963,702.143322 846.89236,701.451 C846.89236,701.451 847.99727,699.24119 847.26066,698.50459 C846.52405,697.76799 847.99727,678.61626 847.99727,678.61626 L845.78745,671.98682 L843.94594,650.99359 C843.94594,650.99359 846.15575,645.46905 845.05085,643.99584 C843.94595,642.52263 840.26292,645.10075 840.26292,645.10075 L830.68708,663.51584 Z" id="Shape" fill="#2F2E41"></path>
            <path d="M825.89915,634.78826 C825.89915,634.78826 824.79424,646.57393 824.05763,647.31053 C823.32102,648.04713 815.21838,668.67207 815.21838,668.67207 C815.21838,668.67207 813.00857,671.25018 813.74517,680.82607 C814.48177,690.40196 816.32329,699.97779 816.32329,699.97779 C816.32329,699.97779 814.85008,705.50233 817.42819,705.50233 C820.0063,705.50233 821.11119,704.02912 822.21612,705.13403 C823.32105,706.23894 824.05763,705.13403 824.42594,704.39742 C824.79425,703.66081 826.26745,701.0827 826.26745,700.3461 C826.26745,699.6095 827.74066,680.8261 827.74066,680.8261 C827.74066,680.8261 839.89466,653.94004 840.99954,652.46683 C842.10442,650.99362 848.36554,642.89097 847.99729,637.36643 L825.89915,634.78826 Z" id="Shape" fill="#2F2E41"></path>
            <circle id="Oval" fill="#A0616A" cx="835.1067" cy="577.33309" r="7.73435"></circle>
            <path d="M833.6335,583.96254 C833.6335,583.96254 836.57991,590.59198 836.94822,592.43354 C837.31653,594.2751 844.31422,588.75054 844.31422,588.75054 C844.31422,588.75054 840.63122,582.4894 841.73611,579.54298 L833.6335,583.96254 Z" id="Shape" fill="#A0616A"></path>
            <path d="M845.41917,587.64556 C845.41917,587.64556 839.89463,583.59423 835.84331,592.06519 C831.79199,600.53615 830.68708,600.16784 830.68708,600.16784 C830.68708,600.16784 825.89915,601.64105 827.37236,611.95351 C828.84557,622.26597 822.58443,635.89316 825.16254,636.62977 C827.74065,637.36638 851.68031,641.4177 851.68031,638.47128 C851.68031,635.52486 849.47049,624.10749 851.31201,617.10974 C853.15353,610.11199 848.73389,585.80405 845.41917,587.64556 Z" id="Shape" fill="#3F3D56"></path>
            <path d="M839.89463,589.48707 C839.89463,589.48707 835.47501,596.11651 835.84331,601.27274 C836.21161,606.42897 836.21161,609.74374 836.21161,609.74374 C836.21161,609.74374 828.84556,645.10074 830.31877,645.10074 C831.79198,645.10074 836.21161,646.94225 836.57991,645.83734 C836.94821,644.73243 846.15575,622.266 846.15575,622.266 C846.15575,622.266 848.36557,599.79956 845.78745,594.64332 C843.20933,589.48708 839.89463,589.48707 839.89463,589.48707 Z" id="Shape" fill="#3F3D56"></path>
            <path d="M831.05538,643.99581 C831.05538,643.99581 827.37238,656.51809 832.52859,656.88639 C837.6848,657.25469 834.7384,644.73239 834.7384,644.73239 L831.05538,643.99581 Z" id="Shape" fill="#A0616A"></path>
            <path d="M840.85797,702.08113 C840.85797,702.08113 839.56784,701.11354 838.92278,701.7586 C838.27772,702.40366 836.02001,714.98236 835.69748,715.30489 C835.37495,715.62742 825.69902,720.46538 827.95674,720.78789 C830.21446,721.1104 838.92274,721.43295 840.21291,720.78789 C841.50308,720.14283 845.05091,714.01474 845.05091,714.01474 L845.05091,719.49774 L845.69597,719.49774 C845.69597,719.49774 846.34103,713.69218 847.95368,712.07953 C849.56633,710.46688 846.66356,704.98385 846.66356,704.98385 C846.66356,704.98385 847.30862,701.43602 846.98609,701.43602 C846.66356,701.43602 840.85797,702.08113 840.85797,702.08113 Z" id="Shape" fill="#2F7DF7"></path>
            <path d="M831.28341,572.265 C831.528929,571.965194 831.850901,571.737305 832.21528,571.60543 C832.555661,571.543779 832.906323,571.573965 833.23116,571.69288 C835.540649,572.366639 837.543695,573.823084 838.89666,575.81235 C839.159461,576.319189 839.55383,576.745955 840.03839,577.04787 C840.354198,577.142311 840.662633,577.259848 840.9612,577.39953 C841.82237,577.96861 841.30896,579.28765 840.81387,580.19339 C839.546318,582.522551 838.961002,585.161849 839.12507,587.8085 C839.114479,588.268827 839.250088,588.720662 839.51241,589.09908 C839.929457,589.484973 840.474697,589.702651 841.04284,589.71008 C842.830337,589.934552 844.631596,590.030938 846.43284,589.9985 C848.19564,589.9667 850.15147,589.71677 851.29361,588.37365 C852.52148,586.92971 852.32891,584.71838 851.53015,582.99949 C850.73139,581.2806 849.43266,579.84406 848.51015,578.18826 C847.635219,576.438734 846.944589,574.602968 846.4494,572.71058 C845.811054,570.29554 844.782562,568.000967 843.40454,565.91747 C841.998106,563.81933 839.783438,562.39956 837.28974,561.99742 C833.94389,561.62409 830.85856,563.6845 828.16918,565.70968 C825.1494,567.98368 821.93592,570.79682 821.69351,574.56926 C821.49711,577.62557 823.33228,580.39049 824.29108,583.29914 C825.77119,587.78924 825.15108,592.66671 824.51538,597.35153 C827.24231,595.71815 830.3275,593.44958 830.1488,590.27591 C830.02824,588.1346 828.41261,586.4257 827.40694,584.5314 C824.64162,579.32257 827.79454,575.83044 831.28341,572.265 Z" id="Shape" fill="#2F2E41"></path>
            <path d="M940.04802,609.90828 C942.388575,605.8229 943.597949,601.187509 943.55162,596.47939 C943.55162,584.34318 936.0362,574.50484 926.7655,574.50484 C917.4948,574.50484 909.97938,584.34318 909.97938,596.47939 C909.933075,601.187506 911.142448,605.82289 913.48298,609.90828 C908.811513,618.251491 908.811513,628.422879 913.48298,636.76609 C908.811513,645.10929 908.811513,655.28067 913.48298,663.62387 C908.811514,671.967067 908.811514,682.138443 913.48298,690.48164 C911.142449,694.567026 909.933076,699.202407 909.97938,703.91052 C909.97938,716.04673 917.49477,725.88508 926.7655,725.88508 C936.03623,725.88508 943.55162,716.04673 943.55162,703.91052 C943.597948,699.202404 942.388574,694.567017 940.04802,690.48164 C944.719486,682.138443 944.719486,671.967067 940.04802,663.62387 C944.719487,655.28067 944.719487,645.10929 940.04802,636.76609 C944.719487,628.422879 944.719487,618.251491 940.04802,609.90828 L940.04802,609.90828 Z" id="Shape" fill="#3F3D56"></path>
            <ellipse id="Oval" fill="#3F3D56" cx="926.76549" cy="569.62163" rx="16.78612" ry="21.97455"></ellipse>
            <ellipse id="Oval" fill="#3F3D56" cx="926.76549" cy="542.76385" rx="16.78612" ry="21.97455"></ellipse>
            <path d="M989.60427,358.96747 C991.897535,356.047799 993.986294,352.973142 995.85562,349.76547 L951.74869,342.52157 L999.45151,342.87634 C1008.70006,322.753771 1009.25542,299.710969 1000.987,279.16622 L936.988,312.36571 L996.01,268.98025 C980.938261,242.935549 952.586243,227.485324 922.530065,228.937897 C892.473888,230.39047 865.743898,248.502731 853.253941,275.87945 C840.763984,303.256168 844.604439,335.315446 863.20725,358.96749 C859.632574,363.511599 856.558148,368.427804 854.03725,373.63091 L911.29115,403.376 L850.24252,382.887 C841.534033,408.630234 846.410337,437.029981 863.20723,458.39388 C837.279956,491.356691 841.041625,538.710969 871.847815,567.16706 C902.654005,595.623151 950.157455,595.623151 980.963645,567.16706 C1011.76984,538.710969 1015.5315,491.356691 989.60423,458.39388 C1012.5472,429.222346 1012.5472,388.138944 989.60423,358.96741 L989.60427,358.96747 Z" id="Shape" fill="#F2F2F2"></path>
            <path d="M846,408.6807 C845.972238,426.716951 852.035471,444.234177 863.20723,458.39394 C837.279956,491.356751 841.041625,538.711029 871.847815,567.16712 C902.654005,595.623211 950.157455,595.623211 980.963645,567.16712 C1011.76984,538.711029 1015.5315,491.356751 989.60423,458.39394 C1000.38104,444.71277 846,399.6562 846,408.6807 Z" id="Shape" fill="#F2F2F2"></path>
            <path d="M989.60427,358.96747 C991.897535,356.047799 993.986294,352.973142 995.85562,349.76547 L951.74869,342.52157 L999.45151,342.87634 C1008.70006,322.753771 1009.25542,299.710969 1000.987,279.16622 L936.988,312.36571 L996.01,268.98025 C980.938261,242.935549 952.586243,227.485324 922.530065,228.937897 C892.473888,230.39047 865.743898,248.502731 853.253941,275.87945 C840.763984,303.256168 844.604439,335.315446 863.20725,358.96749 C859.632574,363.511599 856.558148,368.427804 854.03725,373.63091 L911.29115,403.376 L850.24252,382.887 C841.534033,408.630234 846.410337,437.029981 863.20723,458.39388 C837.279956,491.356691 841.041625,538.710969 871.847815,567.16706 C902.654005,595.623151 950.157455,595.623151 980.963645,567.16706 C1011.76984,538.710969 1015.5315,491.356691 989.60423,458.39388 C1012.5472,429.222346 1012.5472,388.138944 989.60423,358.96741 L989.60427,358.96747 Z" id="Shape" fill="#57B894"></path>
            <path d="M846,408.6807 C845.972238,426.716951 852.035471,444.234177 863.20723,458.39394 C837.279956,491.356751 841.041625,538.711029 871.847815,567.16712 C902.654005,595.623211 950.157455,595.623211 980.963645,567.16712 C1011.76984,538.711029 1015.5315,491.356751 989.60423,458.39394 C1000.38104,444.71277 846,399.6562 846,408.6807 Z" id="Shape" fill="#000000" opacity="0.1"></path>
            <path d="M95.04802,609.90828 C97.388575,605.8229 98.5979493,601.187509 98.55162,596.47939 C98.55162,584.34318 91.0362,574.50484 81.7655,574.50484 C72.4948,574.50484 64.97938,584.34318 64.97938,596.47939 C64.9330748,601.187506 66.1424476,605.82289 68.48298,609.90828 C63.811513,618.251491 63.811513,628.422879 68.48298,636.76609 C63.8115125,645.10929 63.8115125,655.28067 68.48298,663.62387 C63.8115143,671.967067 63.8115143,682.138443 68.48298,690.48164 C66.1424488,694.567026 64.9330761,699.202407 64.97938,703.91052 C64.97938,716.04673 72.49477,725.88508 81.7655,725.88508 C91.03623,725.88508 98.55162,716.04673 98.55162,703.91052 C98.597948,699.202404 97.3885737,694.567017 95.04802,690.48164 C99.7194857,682.138443 99.7194857,671.967067 95.04802,663.62387 C99.7194875,655.28067 99.7194875,645.10929 95.04802,636.76609 C99.719487,628.422879 99.719487,618.251491 95.04802,609.90828 L95.04802,609.90828 Z" id="Shape" fill="#3F3D56"></path>
            <ellipse id="Oval" fill="#3F3D56" cx="81.76549" cy="569.62163" rx="16.78612" ry="21.97455"></ellipse>
            <ellipse id="Oval" fill="#3F3D56" cx="81.76549" cy="542.76385" rx="16.78612" ry="21.97455"></ellipse>
            <path d="M144.60427,358.96747 C146.897535,356.047799 148.986294,352.973142 150.85562,349.76547 L106.74869,342.52157 L154.45151,342.87634 C163.700059,322.753771 164.255418,299.710969 155.987,279.16622 L91.988,312.36571 L151.01,268.98025 C135.938261,242.935549 107.586243,227.485324 77.5300654,228.937897 C47.4738882,230.39047 20.7438977,248.502731 8.25394065,275.87945 C-4.23601641,303.256168 -0.395561048,335.315446 18.20725,358.96749 C14.6325739,363.511599 11.5581479,368.427804 9.03725,373.63091 L66.29115,403.376 L5.24252,382.887 C-3.46596689,408.630234 1.4103369,437.029981 18.20723,458.39388 C-7.72004369,491.356691 -3.9583751,538.710969 26.8478148,567.16706 C57.6540046,595.623151 105.157455,595.623151 135.963645,567.16706 C166.769835,538.710969 170.531504,491.356691 144.60423,458.39388 C167.547203,429.222346 167.547203,388.138944 144.60423,358.96741 L144.60427,358.96747 Z" id="Shape" fill="#F2F2F2"></path>
            <path d="M1,408.6807 C0.972238041,426.716951 7.0354706,444.234177 18.20723,458.39394 C-7.72004369,491.356751 -3.9583751,538.711029 26.8478148,567.16712 C57.6540046,595.623211 105.157455,595.623211 135.963645,567.16712 C166.769835,538.711029 170.531504,491.356751 144.60423,458.39394 C155.38104,444.71277 1,399.6562 1,408.6807 Z" id="Shape" fill="#F2F2F2"></path>
            <path d="M144.60427,358.96747 C146.897535,356.047799 148.986294,352.973142 150.85562,349.76547 L106.74869,342.52157 L154.45151,342.87634 C163.700059,322.753771 164.255418,299.710969 155.987,279.16622 L91.988,312.36571 L151.01,268.98025 C135.938261,242.935549 107.586243,227.485324 77.5300654,228.937897 C47.4738882,230.39047 20.7438977,248.502731 8.25394065,275.87945 C-4.23601641,303.256168 -0.395561048,335.315446 18.20725,358.96749 C14.6325739,363.511599 11.5581479,368.427804 9.03725,373.63091 L66.29115,403.376 L5.24252,382.887 C-3.46596689,408.630234 1.4103369,437.029981 18.20723,458.39388 C-7.72004369,491.356691 -3.9583751,538.710969 26.8478148,567.16706 C57.6540046,595.623151 105.157455,595.623151 135.963645,567.16706 C166.769835,538.710969 170.531504,491.356691 144.60423,458.39388 C167.547203,429.222346 167.547203,388.138944 144.60423,358.96741 L144.60427,358.96747 Z" id="Shape" fill="#57B894"></path>
            <path d="M1,408.6807 C0.972238041,426.716951 7.0354706,444.234177 18.20723,458.39394 C-7.72004369,491.356751 -3.9583751,538.711029 26.8478148,567.16712 C57.6540046,595.623211 105.157455,595.623211 135.963645,567.16712 C166.769835,538.711029 170.531504,491.356751 144.60423,458.39394 C155.38104,444.71277 1,399.6562 1,408.6807 Z" id="Shape" fill="#000000" opacity="0.1"></path>
            <polygon id="Shape" fill="#57B894" points="580.452 354.556 540.556 394.452 521.653 375.55 514.294 382.909 540.531 409.146 587.812 361.915"></polygon>
            <polygon id="Shape" fill="#57B894" points="707.452 263.556 667.556 303.452 648.653 284.55 641.294 291.909 667.531 318.146 714.812 270.915"></polygon>
        </g>
    </g>
</svg>