
<svg width="1028px" height="785px" viewBox="-790 -51 1028 785" version="1.1" xmlns="http://www.w3.org/2000/svg" xmlns:xlink="http://www.w3.org/1999/xlink">
    <!-- Generator: Sketch 41.2 (35397) - http://www.bohemiancoding.com/sketch -->
    <desc>Created with Sketch.</desc>
    <defs>
        <linearGradient x1="50.0022696%" y1="100.00331%" x2="50.0022696%" y2="-0.000368254062%" id="linearGradient-1">
            <stop stop-color="#808080" stop-opacity="0.25" offset="0%"></stop>
            <stop stop-color="#808080" stop-opacity="0.12" offset="54%"></stop>
            <stop stop-color="#808080" stop-opacity="0.1" offset="100%"></stop>
        </linearGradient>
    </defs>
    <g id="undraw_Calculator_0evy" stroke="none" stroke-width="1" fill="none" fill-rule="evenodd" transform="translate(-790.000000, -51.000000)">
        <g id="03431522-47b9-4239-bf4c-9446bb50bb61">
            <path d="M586.56,124.98 C521.84,122.73 460.2,101.84 401.33,78.98 C342.46,56.12 284.17,30.8 221,18.68 C180.37,10.89 133.91,9.79 101.17,31.57 C69.67,52.57 59.49,88.72 54.01,122.3 C49.9,147.56 47.48,174.15 58.76,197.8 C66.59,214.22 80.5,228.02 90.12,243.74 C123.58,298.46 99.93,365.98 63.68,419.37 C46.68,444.44 26.94,468.37 13.81,495.03 C0.68,521.69 -5.39,552.28 6.09,579.5 C17.48,606.5 44.61,626.74 74,640.99 C133.68,669.99 204,678.22 272.61,682.91 C424.43,693.3 577.07,688.8 729.29,684.3 C785.63,682.63 842.21,680.94 897.64,672.23 C928.41,667.4 960.19,659.72 982.53,641.23 C1010.89,617.7 1017.92,577.86 998.92,548.35 C967.04,498.86 878.92,486.57 856.61,433.46 C844.34,404.22 856.94,371.66 874.76,344.54 C913,286.38 977.09,235.35 980.47,168.87 C982.79,123.21 951.98,77.48 904.34,55.87 C854.4,33.23 785.16,36.08 748.34,73.56 C710.36,112.11 643.68,126.98 586.56,124.98 Z" id="Shape" fill="#2F7DF7" opacity="0.1"></path>
            <ellipse id="Oval" fill="#2F7DF7" opacity="0.1" cx="579.79" cy="727.58" rx="370.98" ry="27.58"></ellipse>
            <path d="M292.94,638.25 C292.94,638.25 313.94,634.89 326.54,649.74 C326.54,649.74 317.3,657.02 297.42,646.94 L292.94,638.25 Z" id="Shape" fill="#2F7DF7"></path>
            <path d="M290.68,637.98 C290.68,637.98 277.29,654.5 283.86,672.83 C283.86,672.83 294.78,668.45 295.97,646.19 L290.68,637.98 Z" id="Shape" fill="#2F7DF7"></path>
            <path d="M278.68,610.81 C278.68,610.81 287.08,595.41 320.68,616.97 C320.68,616.97 316.2,627.33 301.36,626.49 C286.52,625.65 282.58,618.98 278.68,610.81 Z" id="Shape" fill="#2F7DF7"></path>
            <path d="M276.49,609.7 C276.49,609.7 259.06,607.7 257.37,647.61 C257.37,647.61 268.42,649.9 276.27,637.28 C284.12,624.66 280.88,617.58 276.49,609.7 Z" id="Shape" fill="#2F7DF7"></path>
            <path d="M266.34,577.88 C266.34,577.88 276.14,550.72 311.7,570.04 C311.7,570.04 303.58,594.96 269.98,587.12 L266.34,577.88 Z" id="Shape" fill="#2F7DF7"></path>
            <path d="M255.41,537.28 C255.41,537.28 273.9,509.83 306.66,535.28 C306.66,535.28 295.18,561.04 258.21,547.04 L255.41,537.28 Z" id="Shape" fill="#2F7DF7"></path>
            <path d="M251.49,498.63 C251.49,498.63 273.06,473.43 305.54,498.63 C305.54,498.63 285.1,520.75 251.49,505.07 L251.49,498.63 Z" id="Shape" fill="#2F7DF7"></path>
            <path d="M248.13,461.11 C248.13,461.11 269.98,434.79 301.06,459.71 C301.06,459.71 276.42,482.95 248.13,467.27 L248.13,461.11 Z" id="Shape" fill="#2F7DF7"></path>
            <path d="M250.09,427.79 C250.09,427.79 273.09,393.9 302.18,416.87 C302.18,416.87 277.54,445.99 250.09,434.23 L250.09,427.79 Z" id="Shape" fill="#2F7DF7"></path>
            <path d="M255.41,388.86 C255.41,388.86 279.78,355.26 308.06,381.02 C308.06,381.02 279.22,410.15 255.41,395.02 L255.41,388.86 Z" id="Shape" fill="#2F7DF7"></path>
            <path d="M263.54,354.07 C263.54,354.07 292.38,322.5 317.54,335.07 C317.54,335.07 287.48,368.6 262.28,362.44 L263.54,354.07 Z" id="Shape" fill="#2F7DF7"></path>
            <path d="M273.62,321.1 C273.62,321.1 306.94,282.46 326.26,295.34 C326.26,295.34 301.74,325.34 271.26,328.34 L273.62,321.1 Z" id="Shape" fill="#2F7DF7"></path>
            <path d="M288.17,282.85 C288.17,282.85 317.3,251.27 338.58,259.11 C338.58,259.11 313.66,291.87 284.26,292.71 L288.17,282.85 Z" id="Shape" fill="#2F7DF7"></path>
            <path d="M301.34,247.07 C301.34,247.07 333.54,216.82 347.54,222.14 C347.54,222.14 324.3,255.75 299.94,253.79 L301.34,247.07 Z" id="Shape" fill="#2F7DF7"></path>
            <path d="M314.22,213.98 C314.22,213.98 341.94,177.86 357.06,180.66 C357.06,180.66 340.26,212.86 314.22,217.66 L314.22,213.98 Z" id="Shape" fill="#2F7DF7"></path>
            <path d="M328.2,169.48 C328.2,169.48 352.7,141.78 365.93,141.85 C365.93,141.85 346.59,178.85 327.19,178.51 L328.2,169.48 Z" id="Shape" fill="#2F7DF7"></path>
            <path d="M336.48,139.82 L360.14,82.13 C360.14,82.13 361.33,134.28 333.47,150.52 L336.48,139.82 Z" id="Shape" fill="#2F7DF7"></path>
            <path d="M346.09,76.2 C346.09,76.2 350.01,28.04 347.49,24.12 C347.49,24.12 364.41,64.12 345.92,97.48 L346.09,76.2 Z" id="Shape" fill="#2F7DF7"></path>
            <path d="M265.42,577.23 C265.42,577.23 240.88,562.02 224.99,599.23 C224.99,599.23 246.83,613.72 268.3,586.72 L265.42,577.23 Z" id="Shape" fill="#2F7DF7"></path>
            <path d="M254.68,535.73 C254.68,535.73 224.58,522 209.97,560.85 C209.97,560.85 233.23,576.85 257.42,545.55 L254.68,535.73 Z" id="Shape" fill="#2F7DF7"></path>
            <path d="M250.09,500.98 C250.09,500.98 228.53,475.78 196.09,500.98 C196.09,500.98 216.53,523.1 250.09,507.42 L250.09,500.98 Z" id="Shape" fill="#2F7DF7"></path>
            <path d="M247.4,461.11 C247.4,461.11 225.56,434.79 194.47,459.71 C194.47,459.71 219.12,482.95 247.4,467.27 L247.4,461.11 Z" id="Shape" fill="#2F7DF7"></path>
            <path d="M250.09,428.75 C250.09,428.75 234.77,390.75 201.47,407.12 C201.47,407.12 219.47,440.77 248.74,435.04 L250.09,428.75 Z" id="Shape" fill="#2F7DF7"></path>
            <path d="M257.34,388.67 C257.34,388.67 242.12,350.06 208.34,367.97 C208.34,367.97 229.02,403.36 255.84,394.64 L257.34,388.67 Z" id="Shape" fill="#2F7DF7"></path>
            <path d="M266.78,354.27 C266.78,354.27 260.78,311.94 232.78,308.15 C232.78,308.15 238.71,352.79 263,361.9 L266.78,354.27 Z" id="Shape" fill="#2F7DF7"></path>
            <path d="M274.33,321.17 C274.33,321.17 271.99,270.17 248.84,268.4 C248.84,268.4 249.62,307.11 271.72,328.4 L274.33,321.17 Z" id="Shape" fill="#2F7DF7"></path>
            <path d="M290.57,281.39 C290.57,281.39 283.66,238.98 261.57,233.79 C261.57,233.79 264.31,274.87 288.39,291.79 L290.57,281.39 Z" id="Shape" fill="#2F7DF7"></path>
            <path d="M303.96,247.37 C303.96,247.37 303.72,203.2 290.23,196.7 C290.23,196.7 281.85,236.7 300.05,253.01 L303.96,247.37 Z" id="Shape" fill="#2F7DF7"></path>
            <path d="M315.25,213.53 C315.25,213.53 313.36,168.04 299.38,161.63 C299.38,161.63 294.59,197.63 313.15,216.51 L315.25,213.53 Z" id="Shape" fill="#2F7DF7"></path>
            <path d="M330.15,173.1 C330.15,173.1 330.06,136.1 320.09,127.43 C320.09,127.43 310.16,167.96 324.94,180.55 L330.15,173.1 Z" id="Shape" fill="#2F7DF7"></path>
            <path d="M335.3,137.98 L325.6,76.39 C325.6,76.39 312.41,126.85 335.77,149.08 L335.3,137.98 Z" id="Shape" fill="#2F7DF7"></path>
            <path d="M337.2,76.79 C337.2,76.79 312.28,35.39 312.79,30.79 C312.79,30.79 315.44,74.18 346.79,95.79 L337.2,76.79 Z" id="Shape" fill="#2F7DF7"></path>
            <path d="M340.12,64.56 C340.12,64.56 316.6,5.76 305.96,0.98 C305.96,0.98 339.56,18.06 342.08,62.86 L340.12,64.56 Z" id="Shape" fill="#2F7DF7"></path>
            <path d="M327.06,178.86 L325.46,178.36 C345.31,113.64 350.26,72.36 339.4,62.02 L340.56,60.8 C352.07,71.72 347.4,112.54 327.06,178.86 Z" id="Shape" fill="#444053"></path>
            <path d="M272.41,330.37 L270.03,329.53 C272.13,323.6 274.41,317.58 276.79,311.65 C297.51,259.98 315.14,211.98 326.45,175.09 L328.52,174.09 C317.19,210.98 299.87,260.88 279.13,312.59 C276.76,318.49 274.5,324.47 272.41,330.37 Z" id="Shape" fill="#444053"></path>
            <path d="M322.49,686.7 C322.17,686.34 289.99,650.12 267.57,588.26 C254.422077,552.053123 247.097823,513.990627 245.87,475.49 C244.34,427.36 254.43,373.61 271.74,324.8 L273.62,327 C234.78,436.56 250.21,530.45 270.68,586.98 C292.87,648.27 324.68,684.1 324.99,684.46 L322.49,686.7 Z" id="Shape" fill="#444053"></path>
            <path d="M182.28,678.8 C182.28,678.8 144.23,676.51 148.72,703.17 C148.72,703.17 147.83,707.88 152.1,710.02 C152.1,710.02 152.16,708.02 156,708.71 C157.363936,708.939547 158.750266,709.006682 160.13,708.91 C161.997777,708.784495 163.773933,708.054375 165.19,706.83 L165.19,706.83 C165.19,706.83 175.88,702.41 180.04,684.93 C180.04,684.93 183.12,681.12 182.99,680.14 L176.57,682.88 C176.57,682.88 178.77,687.51 177.04,691.36 C177.04,691.36 176.83,683.05 175.6,683.24 C175.35,683.24 172.26,684.85 172.26,684.85 C172.26,684.85 176.04,692.92 173.19,698.78 C173.19,698.78 174.27,688.84 171.09,685.43 L166.57,688.07 C166.57,688.07 170.98,696.4 167.99,703.2 C167.99,703.2 168.75,692.77 165.62,688.71 L161.52,691.91 C161.52,691.91 165.66,700.12 163.14,705.76 C163.14,705.76 162.81,693.62 160.63,692.7 C160.63,692.7 157.05,695.86 156.5,697.16 C156.5,697.16 159.34,703.16 157.58,706.27 C157.58,706.27 156.5,698.18 155.58,698.14 C155.58,698.14 152.01,703.5 151.64,707.14 C151.812899,703.746511 152.871332,700.457439 154.71,697.6 C152.652474,697.989277 150.754202,698.97318 149.25,700.43 C149.25,700.43 149.8,696.64 155.59,696.31 C155.59,696.31 158.59,692.24 159.33,691.99 C159.33,691.99 153.57,691.51 150.08,693.06 C150.08,693.06 153.15,689.49 160.39,691.06 L164.39,687.76 C164.39,687.76 156.81,686.76 153.59,687.87 C153.59,687.87 157.29,684.71 165.48,687.01 L169.88,684.38 C169.88,684.38 163.42,682.99 159.56,683.49 C159.56,683.49 163.63,681.3 171.17,683.67 L174.32,682.26 C174.32,682.26 169.58,681.33 168.2,681.18 C166.82,681.03 166.73,680.65 166.73,680.65 C169.731974,680.150612 172.813702,680.496873 175.63,681.65 C175.63,681.65 182.39,679.22 182.28,678.8 Z" id="Shape" fill="#2F7DF7"></path>
            <path d="M71.68,691.17 C71.68,691.17 33.68,688.88 38.13,715.54 C38.13,715.54 37.23,720.25 41.5,722.39 C41.5,722.39 41.57,720.39 45.41,721.08 C46.7734008,721.314462 48.1603237,721.381626 49.54,721.28 C51.4052947,721.156686 53.1789439,720.426153 54.59,719.2 L54.59,719.2 C54.59,719.2 65.29,714.78 69.45,697.3 C69.45,697.3 72.52,693.49 72.45,692.51 L66.03,695.25 C66.03,695.25 68.23,699.88 66.5,703.73 C66.5,703.73 66.29,695.42 65.06,695.61 C64.81,695.61 61.72,697.22 61.72,697.22 C61.72,697.22 65.5,705.29 62.65,711.15 C62.65,711.15 63.73,701.21 60.54,697.8 L56.02,700.44 C56.02,700.44 60.43,708.77 57.44,715.57 C57.44,715.57 58.21,705.14 55.07,701.08 L50.98,704.28 C50.98,704.28 55.12,712.49 52.6,718.13 C52.6,718.13 52.27,705.99 50.09,705.07 C50.09,705.07 46.51,708.23 45.96,709.53 C45.96,709.53 48.8,715.53 47.04,718.64 C47.04,718.64 45.96,710.55 45.04,710.51 C45.04,710.51 41.48,715.87 41.1,719.51 C41.2786617,716.116096 42.3403408,712.827649 44.18,709.97 C42.1198774,710.360226 40.2186527,711.343858 38.71,712.8 C38.71,712.8 39.27,709.01 45.06,708.68 C45.06,708.68 48.06,704.61 48.8,704.37 C48.8,704.37 43.04,703.88 39.55,705.43 C39.55,705.43 42.62,701.86 49.86,703.43 L53.86,700.13 C53.86,700.13 46.28,699.13 43.06,700.24 C43.06,700.24 46.76,697.08 54.95,699.38 L59.35,696.75 C59.35,696.75 52.88,695.36 49.03,695.86 C49.03,695.86 53.1,693.67 60.64,696.04 L63.79,694.63 C63.79,694.63 59.05,693.7 57.66,693.55 C56.27,693.4 56.2,693.02 56.2,693.02 C59.2021381,692.526949 62.2821354,692.873016 65.1,694.02 C65.1,694.02 71.76,691.59 71.68,691.17 Z" id="Shape" fill="#2F7DF7"></path>
            <path d="M133.32,720.21 C133.32,720.21 95.32,717.92 99.76,744.58 C99.76,744.58 98.87,749.29 103.14,751.43 C103.14,751.43 103.21,749.43 107.04,750.12 C108.407275,750.349777 109.796943,750.416911 111.18,750.32 C113.044288,750.192366 114.816616,749.462378 116.23,748.24 L116.23,748.24 C116.23,748.24 126.92,743.82 131.08,726.34 C131.08,726.34 134.16,722.53 134.08,721.55 L127.66,724.29 C127.66,724.29 129.85,728.92 128.13,732.77 C128.13,732.77 127.92,724.46 126.68,724.65 C126.43,724.65 123.35,726.26 123.35,726.26 C123.35,726.26 127.12,734.32 124.27,740.19 C124.27,740.19 125.35,730.25 122.17,726.84 L117.65,729.48 C117.65,729.48 122.06,737.81 119.07,744.61 C119.07,744.61 119.84,734.18 116.7,730.12 L112.6,733.32 C112.6,733.32 116.75,741.53 114.22,747.17 C114.22,747.17 113.89,735.03 111.72,734.11 C111.72,734.11 108.13,737.27 107.59,738.57 C107.59,738.57 110.43,744.57 108.66,747.68 C108.66,747.68 107.58,739.59 106.66,739.55 C106.66,739.55 103.09,744.91 102.72,748.55 C102.892899,745.156511 103.951332,741.867439 105.79,739.01 C103.732474,739.399277 101.834202,740.38318 100.33,741.84 C100.33,741.84 100.88,738.05 106.68,737.72 C106.68,737.72 109.62,733.65 110.41,733.4 C110.41,733.4 104.65,732.92 101.16,734.47 C101.16,734.47 104.24,730.9 111.47,732.52 L115.47,729.22 C115.47,729.22 107.89,728.22 104.67,729.33 C104.67,729.33 108.38,726.17 116.56,728.47 L120.97,725.84 C120.97,725.84 114.54,724.48 110.68,724.98 C110.68,724.98 114.74,722.79 122.29,725.16 L125.43,723.75 C125.43,723.75 120.7,722.82 119.31,722.67 C117.92,722.52 117.85,722.14 117.85,722.14 C120.851974,721.640612 123.933702,721.986873 126.75,723.14 C126.75,723.14 133.43,720.63 133.32,720.21 Z" id="Shape" fill="#2F7DF7"></path>
            <ellipse id="Oval" fill="#2F7DF7" opacity="0.1" cx="103.66" cy="754.23" rx="26.93" ry="4.55"></ellipse>
            <ellipse id="Oval" fill="#2F7DF7" opacity="0.1" cx="957.84" cy="754.23" rx="26.93" ry="4.55"></ellipse>
            <ellipse id="Oval" fill="#2F7DF7" opacity="0.1" cx="699.95" cy="780.42" rx="26.93" ry="4.55"></ellipse>
            <ellipse id="Oval" fill="#2F7DF7" opacity="0.1" cx="1000.43" cy="714.79" rx="26.93" ry="4.55"></ellipse>
            <ellipse id="Oval" fill="#2F7DF7" opacity="0.1" cx="156.07" cy="711.95" rx="26.93" ry="4.55"></ellipse>
            <ellipse id="Oval" fill="#2F7DF7" opacity="0.1" cx="45.44" cy="724.72" rx="26.93" ry="4.55"></ellipse>
            <rect id="Rectangle-path" fill="#3A3768" x="302.74" y="80.74" width="431.35" height="641.38" rx="9.8"></rect>
            <rect id="Rectangle-path" fill="#000000" opacity="0.1" x="342.22" y="135.87" width="357.73" height="126.09" rx="29.21"></rect>
            <rect id="Rectangle-path" fill="#E6E8EC" x="344.52" y="138.33" width="352.31" height="121.95" rx="10.2"></rect>
            <rect id="Rectangle-path" fill="#000000" opacity="0.1" x="354.68" y="314.48" width="71.14" height="79.04" rx="10.79"></rect>
            <rect id="Rectangle-path" fill="#000000" opacity="0.1" x="441.63" y="314.48" width="71.14" height="79.04" rx="10.79"></rect>
            <rect id="Rectangle-path" fill="#000000" opacity="0.1" x="528.58" y="314.48" width="71.14" height="79.04" rx="10.79"></rect>
            <rect id="Rectangle-path" fill="#000000" opacity="0.1" x="615.53" y="316.16" width="71.14" height="79.04" rx="28.84"></rect>
            <rect id="Rectangle-path" fill="#2F7DF7" x="615.53" y="314.48" width="71.14" height="79.04" rx="10.79"></rect>
            <rect id="Rectangle-path" fill="#000000" opacity="0.1" x="354.68" y="401.43" width="71.14" height="79.04" rx="10.79"></rect>
            <rect id="Rectangle-path" fill="#000000" opacity="0.1" x="441.63" y="401.43" width="71.14" height="79.04" rx="10.79"></rect>
            <rect id="Rectangle-path" fill="#000000" opacity="0.1" x="528.58" y="401.43" width="71.14" height="79.04" rx="10.79"></rect>
            <rect id="Rectangle-path" fill="#000000" opacity="0.1" x="354.68" y="497.41" width="71.14" height="79.04" rx="10.79"></rect>
            <rect id="Rectangle-path" fill="#000000" opacity="0.1" x="441.63" y="497.41" width="71.14" height="79.04" rx="10.79"></rect>
            <rect id="Rectangle-path" fill="#000000" opacity="0.1" x="528.58" y="497.41" width="71.14" height="79.04" rx="10.79"></rect>
            <rect id="Rectangle-path" fill="#000000" opacity="0.1" x="528.58" y="593.39" width="71.14" height="79.04" rx="10.79"></rect>
            <rect id="Rectangle-path" fill="#000000" opacity="0.1" x="615.53" y="403.11" width="71.14" height="79.04" rx="28.84"></rect>
            <rect id="Rectangle-path" fill="#2F7DF7" x="615.53" y="401.43" width="71.14" height="79.04" rx="11.3"></rect>
            <rect id="Rectangle-path" fill="#000000" opacity="0.2" x="615.53" y="401.43" width="71.14" height="79.04" rx="11.3"></rect>
            <rect id="Rectangle-path" fill="#000000" opacity="0.1" x="354.68" y="593.39" width="158.09" height="79.04" rx="10.04"></rect>
            <rect id="Rectangle-path" fill="#000000" opacity="0.1" x="608.75" y="497.41" width="77.91" height="175.03" rx="11.66"></rect>
            <rect id="Rectangle-path" fill="#2F7DF7" x="649.87" y="238.98" width="31.14" height="3.37"></rect>
            <rect id="Rectangle-path" fill="#2F7DF7" x="604.28" y="238.98" width="31.14" height="3.37"></rect>
            <rect id="Rectangle-path" fill="#2F7DF7" x="558.68" y="238.98" width="31.14" height="3.37"></rect>
            <rect id="Rectangle-path" fill="#2F7DF7" x="513.09" y="238.98" width="31.14" height="3.37"></rect>
            <path d="M879.87,475.54 C883.08,464.74 879.87,453.94 879.87,453.94 L879.87,443.75 C879.87,443.75 883.54,423.83 867.16,411.05 L856.3,401.47 C856.3,401.47 850.21,396.24 848.44,395.91 C848.110163,395.838963 847.776163,395.788862 847.44,395.76 L847.12,395.57 C846.186677,393.973648 845.390488,392.300981 844.74,390.57 C846.164936,390.754314 847.594694,390.266645 848.61,389.25 C849.002411,388.798539 849.310628,388.280327 849.52,387.72 L849.52,387.72 C850.15,386.31 850.26,384.6 850.79,383.1 C851.254907,381.88368 851.932083,380.759567 852.79,379.78 C852.68,379.96 852.56,380.13 852.46,380.32 C854,378.4 856.01,376.76 857.46,374.74 C857.74775,374.339275 858.011544,373.921879 858.25,373.49 C858.19,373.58 858.11,373.66 858.04,373.75 C860.04,370.54 860.65,366.65 861.23,362.9 C861.509497,361.623719 861.5299,360.304313 861.29,359.02 C861.00895,358.167559 860.647316,357.343836 860.21,356.56 C857.85,351.69 857.89,345.56 854.12,341.67 C851.28,338.76 846.98,337.87 842.93,337.37 C838.88,336.87 834.62,336.58 831.14,334.46 C830.168182,333.723475 829.093355,333.133837 827.95,332.71 C826.763489,332.295985 825.450123,332.782727 824.82,333.87 C824.747992,334.182135 824.604184,334.473176 824.4,334.72 C824.032578,334.928431 823.589164,334.954296 823.2,334.79 L817.81,333.35 L817.87,333.62 L817.73,333.62 L817.93,334.47 C818.147584,334.431646 818.361703,334.5534 818.44,334.76 L817.57,336.1 C815.902156,336.069565 814.254371,335.730514 812.71,335.1 C812.699996,335.186378 812.699996,335.273622 812.71,335.36 L812.63,335.36 C812.53,336.88 814.26,337.87 814.79,339.3 C815.002588,339.925771 815.002588,340.604229 814.79,341.23 C814.573448,341.810362 814.232072,342.33608 813.79,342.77 C811.88,344.66 809.43,344.29 807.23,345.48 C806.845243,345.644327 806.552533,345.969966 806.43,346.37 C806.342957,346.517709 806.317797,346.693827 806.36,346.86 C806.446962,347.089582 806.604521,347.285655 806.81,347.42 C807.450477,347.937743 808.152459,348.374383 808.9,348.72 C808.68,348.92 808.47,349.12 808.27,349.33 C802.598661,355.093681 800.19575,363.317396 801.871596,371.227873 C803.547442,379.138349 809.078673,385.681205 816.6,388.65 C816.68,389.07 816.74,389.5 816.8,389.95 L816.8,390.08 L816.86,390.66 L809.6,393.75 C807.364705,393.732807 805.339714,392.428245 804.4,390.4 C802.71,386.91 796.74,390.4 796.74,390.4 C796.74,390.4 778.53,389.04 771.74,392.4 C771.74,392.4 760.87,387.84 759.34,387.53 C757.81,387.22 755.52,386.01 754.45,386.32 C753.38,386.63 752,384.32 751.23,384.49 C750.46,384.66 750.16,382.97 747.71,382.36 C745.26,381.75 744.34,382.52 741.59,379.78 C738.84,377.04 716.48,366.24 716.48,366.24 L706.44,357.98 L695.73,349.46 L695.54,349.81 C695.47,349.56 695.4,349.3 695.33,349.02 C694.264419,344.775615 692.928357,340.60376 691.33,336.53 C690.64,334.88 690.33,332.8 689.4,333.9 C688.83,334.56 687.86,333.11 686.4,332.13 C685.773186,331.696924 684.984586,331.569374 684.25321,331.782773 C683.521833,331.996172 682.925565,332.527795 682.63,333.23 L682.63,333.23 C674.29,346.31 671.3,347.23 676.13,352.04 C680.44,356.31 683.3,360.04 686.81,361.22 L687.23,361.35 C687.154628,361.369923 687.075372,361.369923 687,361.35 L707.36,385.69 C707.36,385.69 722.05,398.47 732.16,402.57 C742.27,406.67 741.49,407.9 741.49,407.9 C741.49,407.9 772.11,423.41 776.85,423.11 C781.59,422.81 780.68,454.9 778.69,460.11 C776.7,465.32 773.49,502.7 773.49,502.7 C773.49,502.7 770.42,510.61 773.64,516.08 C773.64,516.08 774.35,526.56 773.71,529.08 C770.92,533.38 766.94,540.68 766.29,548.19 C766.29,548.59 766.21,548.96 766.17,549.35 C765.965967,549.586867 765.722347,549.7865 765.45,549.94 L766.13,549.74 C765.840607,552.870175 765.16894,555.953125 764.13,558.92 C762.511124,563.086625 761.654172,567.510258 761.6,571.98 L761.6,596.14 L759.6,611.14 C759.6,611.14 757.15,622.49 759.6,625.14 C760.632897,626.461388 761.113226,628.131787 760.94,629.8 C760.837662,631.73669 761.386866,633.651864 762.5,635.24 C763.362456,636.181994 763.732716,637.474203 763.5,638.73 C762.69,641.36 764.7,669.35 764.7,669.35 C764.7,669.35 764.11,677.06 763.3,677.47 C762.49,677.88 764.7,686.39 764.7,686.39 C764.7,686.39 756.43,693.29 758.54,696.94 L760.65,700.18 L760.09,700.73 L759.75,701.08 C759.112033,700.712178 758.368324,700.57119 757.64,700.68 C755.040862,703.338906 752.260892,705.814817 749.32,708.09 C745.59,710.78 735.44,714.68 735.44,714.68 L727.44,715.33 L727.29,715.33 C727.29,715.33 723.46,714.97 725.61,720.9 C727.76,726.83 746.98,725.01 746.98,725.01 L758.2,723.24 C758.2,723.24 778.2,723.34 783.93,722.07 C786.32,721.54 786.93,720.26 786.73,718.97 L786.73,718.97 L786.67,718.91 C786.394921,717.679713 785.832982,716.531851 785.03,715.56 C784.988781,715.495954 784.941929,715.435715 784.89,715.38 L785.25,711.28 C793.74,706.39 782.85,696.77 782.85,696.77 C782.85,696.77 786.58,688.66 788.49,686.03 C790.4,683.4 790.4,644.65 790.4,644.65 C790.4,644.65 791.4,630.65 788.77,627.41 C788.677705,625.260139 789.777149,623.234241 791.63,622.14 C793.52,620.85 799.23,603.08 803.71,588.33 L806.53,605.71 C806.53,605.71 805.92,614.03 807.75,616.46 C808.445369,617.386155 808.721006,618.561238 808.51,619.7 C808.075999,622.031995 808.216724,624.434617 808.92,626.7 C809.135037,627.671827 809.657526,628.548486 810.41,629.2 C812.04,630.01 812.14,632.9 812.75,633.51 C813.36,634.12 817.14,632.65 817.34,634.88 C817.454226,636.838336 817.454226,638.801664 817.34,640.76 L818.57,676.86 C818.57,676.86 816.57,679.86 816.12,687.86 C815.95,691.27 815.31,693.21 814.65,694.32 C813.898863,695.541747 814.019983,697.108239 814.95,698.2 L815.3,698.61 L813.79,699.77 C812.538854,700.741951 812.14573,702.460825 812.85,703.88 C811.853619,704.746828 811.485316,706.132918 811.92,707.38 C811.981813,707.580383 812.0692,707.771962 812.18,707.95 C811.032893,708.129762 809.968432,708.656757 809.13,709.46 C807.621786,711.532278 805.803875,713.360308 803.74,714.88 C800.744904,717.175236 797.877307,719.632223 795.15,722.24 C793.864319,723.99005 792.139588,725.369835 790.15,726.24 C789.662176,726.437831 789.156537,726.588518 788.64,726.69 C784.64,727.51 785.89,731.69 789.15,732.38 C792.41,733.07 803.23,736.38 811.65,734.45 C811.65,734.45 814.15,735.45 817.82,733.59 C821.49,731.73 829.68,729.45 829.68,729.45 C829.68,729.45 834.27,729.45 834.89,727.63 C835.051363,727.050001 835.138723,726.451922 835.15,725.85 L835.28,725.72 L835.16,725.61 C835.171184,724.247034 835.067483,722.885549 834.85,721.54 C834.73,720.84 834.6,720.22 834.48,719.72 C834.09,718.2 833.36,716.23 833.05,715.4 C833.10237,715.333975 833.149196,715.263736 833.19,715.19 C834.94,712.19 832.03,705.07 832.03,705.07 C832.985565,703.553858 834.146606,702.177436 835.48,700.98 C837.11,699.76 841.4,668.12 841.4,668.12 C841.4,668.12 841.19,660.01 843.4,656.36 C845.61,652.71 840.34,630.61 840.34,630.61 C840.34,630.61 838.09,625.54 838.91,623.71 C839.73,621.88 838.09,615.19 838.09,615.19 L838.09,607.19 C838.085216,606.23744 837.926503,605.291914 837.62,604.39 C836.99,602.51 836.06,598.9 837.07,596.31 C838.5,592.66 841.76,570.15 841.76,570.15 C841.76,570.15 839.21,560.22 842.95,552.31 C843.241981,551.678297 843.576067,551.066921 843.95,550.48 C846.72,546.13 845.89,538.4 844.52,532.17 C844.32,531.17 844.09,530.27 843.86,529.4 C843.77,529.02 843.67,528.66 843.57,528.3 L844.01,528.12 C844.01,528.12 844.01,527.53 844.15,526.52 C847.20209,525.915159 849.866918,524.072228 851.51,521.43 C851.51,521.43 860.85,510.93 869.11,506.52 C877.37,502.11 877.99,495.72 877.99,495.72 C876.77,493.59 880.18,484.92 880.18,484.92 L879.87,475.54 Z M852.93,489.54 L844.09,499.79 L844.09,499.73 C841.79,496.53 846.23,489.38 846.23,489.38 L853.58,472.98 C853.52,475.08 853.26,476.98 852.58,477.81 C850.58,480.55 856.26,485.12 856.26,485.12 C853.23,485.13 852.93,489.54 852.93,489.54 L852.93,489.54 Z" id="Shape" fill="url(#linearGradient-1)"></path>
            <path d="M697.29,355.15 L692.46,364.52 C690.930862,364.389157 689.423209,364.073523 687.97,363.58 C683.310893,362.188674 679.470565,358.868884 677.42,354.46 C673.11,344.94 680.24,338.79 683.56,336.97 C686.88,335.15 689.97,333.08 692.46,339.05 C694.022919,343.100358 695.328844,347.245251 696.37,351.46 C696.95,353.65 697.29,355.15 697.29,355.15 Z" id="Shape" fill="#CC818C"></path>
            <path d="M850.68,403.89 L842.97,415.37 C842.97,415.37 806.54,432.75 813.5,412.37 C816.56,403.37 816.92,396.8 816.37,392.25 L816.37,392.12 C815.65,386.43 813.51,383.96 813.51,383.96 C813.51,383.96 849.02,365.78 843.73,378.21 C842.650721,380.793433 842.221517,383.602141 842.48,386.39 C842.916161,390.405372 844.219559,394.278033 846.3,397.74 C847.550581,399.931366 849.017934,401.991691 850.68,403.89 L850.68,403.89 Z" id="Shape" fill="#CC818C"></path>
            <path d="M839.59,631.3 C839.59,631.3 844.83,653.3 842.59,656.89 C840.35,660.48 840.59,668.58 840.59,668.58 C840.59,668.58 836.36,700.02 834.75,701.22 C833.428362,702.389453 832.274173,703.735446 831.32,705.22 C831.32,705.22 834.2,712.34 832.47,715.28 C832.203265,715.727566 831.800268,716.077997 831.32,716.28 C828.62,717.42 818.64,712.36 812.96,709.28 C812.03156,708.772223 811.409601,707.843042 811.294051,706.791146 C811.178502,705.739249 811.583927,704.697212 812.38,704 C811.675654,702.594479 812.060622,700.88723 813.3,699.92 L814.8,698.76 L814.45,698.35 C813.529469,697.262078 813.408615,695.707086 814.15,694.49 C814.8,693.4 815.43,691.49 815.6,688.08 C816.01,680.22 818.02,677.2 818.02,677.2 L816.81,641.32 C816.924286,639.375011 816.924286,637.424989 816.81,635.48 C816.61,633.27 812.88,634.73 812.28,634.12 C811.68,633.51 811.57,630.65 809.96,629.84 C809.218229,629.1886 808.706236,628.315408 808.5,627.35 C807.788231,625.086169 807.647383,622.681446 808.09,620.35 C808.299266,619.219058 808.027454,618.052079 807.34,617.13 C805.53,614.71 806.13,606.46 806.13,606.46 L803.35,589.18 C798.92,603.84 793.29,621.5 791.42,622.78 C789.592228,623.874469 788.510044,625.881498 788.6,628.01 C791.22,631.24 790.21,645.15 790.21,645.15 C790.21,645.15 790.21,683.63 788.32,686.26 C786.43,688.89 782.77,696.98 782.77,696.98 C782.77,696.98 793.57,706.59 785.07,711.44 L784.98,711.44 C776.31,716.28 758.38,702.78 758.38,702.78 L760.25,700.91 L760.8,700.36 L758.68,697.2 C756.6,693.57 764.76,686.72 764.76,686.72 C764.76,686.72 762.58,678.25 763.38,677.85 C764.18,677.45 764.76,669.79 764.76,669.79 C764.76,669.79 762.76,641.98 763.58,639.36 C763.801434,638.110916 763.432201,636.829679 762.58,635.89 C761.479041,634.312006 760.937001,632.411345 761.04,630.49 C761.214441,628.832538 760.737496,627.172197 759.71,625.86 C757.29,623.24 759.71,611.96 759.71,611.96 L761.71,597.04 L761.71,573.35 C761.736965,568.776919 762.594207,564.24675 764.24,559.98 C765.461881,556.521134 766.202153,552.910625 766.44,549.25 C767.1,541.61 771.21,534.19 773.97,529.96 C775.43,527.72 776.52,526.38 776.52,526.38 L841,523.86 C841,523.86 842,526.73 843.08,530.72 C843.3,531.59 843.52,532.51 843.73,533.47 C845.08,539.67 845.89,547.35 843.16,551.67 C842.789739,552.255633 842.455777,552.863442 842.16,553.49 C838.47,561.35 840.99,571.22 840.99,571.22 C840.99,571.22 837.77,593.58 836.36,597.22 C835.36,599.79 836.28,603.38 836.91,605.22 C837.204374,606.120892 837.356205,607.062241 837.36,608.01 L837.36,615.98 C837.36,615.98 838.98,622.63 838.17,624.45 C837.36,626.27 839.59,631.3 839.59,631.3 Z" id="Shape" fill="#444053"></path>
            <path d="M842.56,552.31 C842.18623,552.890091 841.852133,553.494805 841.56,554.12 L837.93,553.92 C838.28,552.05 835.81,534.52 835.81,534.52 L843.12,534.11 C844.47,540.3 845.29,547.98 842.56,552.31 Z" id="Shape" fill="#000000" opacity="0.1"></path>
            <path d="M843.16,551.7 C842.789739,552.285633 842.455777,552.893442 842.16,553.52 L838.53,553.31 C838.88,551.45 836.41,533.91 836.41,533.91 L843.72,533.5 C845.08,539.7 845.89,547.38 843.16,551.7 Z" id="Shape" fill="#444053"></path>
            <path d="M843.16,551.7 C842.789739,552.285633 842.455777,552.893442 842.16,553.52 L838.53,553.31 C838.88,551.45 836.41,533.91 836.41,533.91 L843.72,533.5 C845.08,539.7 845.89,547.38 843.16,551.7 Z" id="Shape" fill="#000000" opacity="0.05"></path>
            <path d="M832.48,715.32 C832.213265,715.767566 831.810268,716.117997 831.33,716.32 C828.63,717.46 818.65,712.4 812.97,709.32 C812.261055,708.927785 811.72296,708.286347 811.46,707.52 C814.7,706.93 816.82,710.52 816.82,710.52 C817.911206,709.835724 819.232383,709.620777 820.484225,709.923855 C821.736066,710.226932 822.812621,711.022382 823.47,712.13 C826.24,716.21 832.18,714.49 832.18,714.49 L832.48,715.32 Z" id="Shape" fill="#000000" opacity="0.1"></path>
            <path d="M834.15,727.67 C833.55,729.49 829.01,729.49 829.01,729.49 C829.01,729.49 820.9,731.81 817.27,733.62 C813.64,735.43 811.18,734.48 811.18,734.48 C802.87,736.39 792.18,733.07 788.96,732.41 C785.74,731.75 784.48,727.58 788.46,726.77 C788.970367,726.665186 789.469369,726.511132 789.95,726.31 C791.944089,725.447301 793.670616,724.06608 794.95,722.31 C797.644309,719.720038 800.47856,717.27971 803.44,715 C805.478613,713.486051 807.272828,711.668228 808.76,709.61 C813.5,705.43 816.87,711.17 816.87,711.17 C817.962432,710.486577 819.28452,710.273169 820.5365,710.578163 C821.78848,710.883156 822.864288,711.680714 823.52,712.79 C826.29,716.87 832.23,715.14 832.23,715.14 C832.23,715.14 833.3,717.87 833.8,719.83 C833.92,720.33 834.05,720.95 834.17,721.65 C834.44,723.68 834.61,726.31 834.15,727.67 Z" id="Shape" fill="#FF748F"></path>
            <circle id="Oval" fill="#575988" cx="820.29" cy="714.38" r="0.55"></circle>
            <circle id="Oval" fill="#575988" cx="815.56" cy="718.81" r="0.55"></circle>
            <circle id="Oval" fill="#575988" cx="810.75" cy="722.79" r="0.55"></circle>
            <circle id="Oval" fill="#575988" cx="813.24" cy="721.01" r="0.55"></circle>
            <circle id="Oval" fill="#575988" cx="818.03" cy="716.46" r="0.55"></circle>
            <path d="M834.15,727.67 C833.55,729.49 829.01,729.49 829.01,729.49 C829.01,729.49 820.9,731.81 817.27,733.62 C813.64,735.43 811.18,734.48 811.18,734.48 C802.87,736.39 792.18,733.07 788.96,732.41 C785.74,731.75 784.48,727.58 788.46,726.77 C788.970367,726.665186 789.469369,726.511132 789.95,726.31 C793.464983,727.520208 797.136072,728.217378 800.85,728.38 C809.06,728.73 815.56,728.38 815.56,728.38 L823.87,725.71 C825.443221,724.755665 827.19038,724.123424 829.01,723.85 C830.849698,723.475047 832.590428,722.718801 834.12,721.63 C834.44,723.68 834.61,726.31 834.15,727.67 Z" id="Shape" fill="#DCE6F2"></path>
            <path d="M813.47,732.88 C813.006797,732.883233 812.544451,732.839679 812.09,732.75 L812.21,732.16 C813.909263,732.42004 815.647479,732.17669 817.21,731.46 C817.95,731.17 818.69,730.82 819.41,730.46 C820.13,730.1 821.14,729.65 822.04,729.32 L822.86,729.04 C823.31,728.88 823.77,728.73 824.21,728.54 C824.46,728.44 824.71,728.32 824.95,728.2 C825.540085,727.891375 826.164356,727.653078 826.81,727.49 C827.1407,727.428377 827.474537,727.384979 827.81,727.36 C828.118369,727.339332 828.425451,727.302616 828.73,727.25 C829.335074,727.097099 829.921823,726.879163 830.48,726.6 C831.076686,726.29293 831.707789,726.057945 832.36,725.9 L832.8,725.83 C833.274434,725.817866 833.731521,725.649095 834.1,725.35 L834.55,725.76 C834.091179,726.162829 833.509772,726.398916 832.9,726.43 L832.48,726.5 C831.873539,726.648411 831.286297,726.86653 830.73,727.15 C830.130403,727.447944 829.499977,727.679323 828.85,727.84 C828.520155,727.90507 828.185875,727.945184 827.85,727.96 C827.534762,727.983316 827.220986,728.023373 826.91,728.08 C826.309301,728.235487 825.728732,728.460331 825.18,728.75 L824.42,729.1 C823.96,729.29 823.48,729.45 823.02,729.61 L822.22,729.89 C821.34,730.21 820.48,730.62 819.64,731.01 C818.8,731.4 818.16,731.71 817.4,732.01 C816.155298,732.541238 814.822621,732.836258 813.47,732.88 Z" id="Shape" fill="#575988" opacity="0.5"></path>
            <path d="M815.41,632.76 C815.41,632.76 819.59,626.76 826.75,626.76 C833.91,626.76 836.97,625.95 836.97,625.95 C836.97,625.95 832.39,628.67 829.22,629.02 C826.05,629.37 815.41,632.76 815.41,632.76 Z" id="Shape" fill="#000000" opacity="0.1"></path>
            <path d="M817.83,634.17 C817.83,634.17 821.61,631.55 823.77,631.45 C825.93,631.35 827.77,631.15 827.77,631.15 C826.756672,631.86096 825.635729,632.40455 824.45,632.76 C822.68,633.26 817.83,634.17 817.83,634.17 Z" id="Shape" fill="#000000" opacity="0.1"></path>
            <path d="M818.68,635.98 C818.68,635.98 824.37,636.43 824.42,637.98" id="Shape" fill="#000000" opacity="0.1"></path>
            <path d="M765.61,550.98 C765.91,551.03 771,545.69 771.35,543.58 C771.627691,542.24431 772.422065,541.072519 773.56,540.32 C773.56,540.32 776.84,541.63 773.92,545.65 C771,549.67 765.61,550.98 765.61,550.98 Z" id="Shape" fill="#000000" opacity="0.1"></path>
            <path d="M843.68,378.19 C842.52,380.93 841.5,381.19 841.68,383.8 C840.330151,385.23006 838.776771,386.453221 837.07,387.43 C833.47,389.57 829.55,393.76 825.07,393.76 C822.068385,393.762056 819.093222,393.198913 816.3,392.1 C815.58,386.41 813.44,383.94 813.44,383.94 C813.44,383.94 848.96,365.76 843.68,378.19 Z" id="Shape" fill="#000000" opacity="0.1"></path>
            <path d="M849.12,368.52 C849.12,381.774834 838.374834,392.52 825.12,392.52 C811.865166,392.52 801.12,381.774834 801.12,368.52 C801.12,355.265166 811.865166,344.52 825.12,344.52 C831.485196,344.52 837.58969,347.048564 842.090563,351.549437 C846.591436,356.05031 849.12,362.154804 849.12,368.52 L849.12,368.52 Z" id="Shape" fill="#CC818C"></path>
            <path d="M850.68,403.89 L842.97,415.37 C842.97,415.37 806.54,432.75 813.5,412.37 C816.56,403.37 816.92,396.8 816.37,392.25 L816.43,392.25 C816.860825,393.75788 817.105971,395.312712 817.16,396.88 C817.27,400.02 817.35,403.99 825.16,405.3 C838.16,407.48 845.1,399.36 846.32,397.77 C847.565952,399.950072 849.026535,402.000248 850.68,403.89 Z" id="Shape" fill="#000000" opacity="0.1"></path>
            <path d="M697.29,355.15 L692.46,364.52 C690.930862,364.389157 689.423209,364.073523 687.97,363.58 L687.55,363.08 C689.55,363.84 696.16,351.29 696.16,351.29 L696.37,351.46 C696.95,353.65 697.29,355.15 697.29,355.15 Z" id="Shape" fill="#000000" opacity="0.1"></path>
            <path d="M843.08,530.75 C827.52,537.51 773.7,531.75 773.7,531.75 C773.860799,531.176401 773.95146,530.585423 773.97,529.99 C775.43,527.75 776.52,526.41 776.52,526.41 L841,523.89 C841,523.89 842.05,526.76 843.08,530.75 Z" id="Shape" fill="#000000" opacity="0.1"></path>
            <path d="M816.39,392.81 L809.21,395.88 C806.998097,395.861499 804.99737,394.562781 804.08,392.55 C802.41,389.08 796.52,392.55 796.52,392.55 C796.52,392.55 778.52,391.19 771.88,394.55 C771.88,394.55 761.15,390.01 759.64,389.71 C758.13,389.41 755.86,388.2 754.8,388.5 C753.74,388.8 752.39,386.5 751.63,386.69 C750.87,386.88 750.57,385.18 748.15,384.57 C745.73,383.96 744.83,384.72 742.15,382 C739.47,379.28 717.36,368.55 717.36,368.55 L707.36,360.39 L696.78,351.93 C696.78,351.93 690.13,364.47 688.16,363.71 L708.26,387.9 C708.26,387.9 722.77,400.59 732.75,404.67 C742.73,408.75 741.97,409.96 741.97,409.96 C741.97,409.96 772.2,425.38 776.88,425.08 C781.56,424.78 780.68,456.63 778.68,461.77 C776.68,466.91 773.55,504.09 773.55,504.09 C773.55,504.09 770.55,511.95 773.7,517.39 C773.7,517.39 774.45,528.58 773.7,530.54 C773.7,530.54 827.85,536.33 843.22,529.48 C843.22,529.48 845.49,504.39 843.22,501.22 C840.95,498.05 845.34,490.98 845.34,490.98 L855.01,469.37 L878.59,445.64 C878.59,445.64 882.21,425.84 866.04,413.15 L855.31,403.62 C855.31,403.62 849.31,398.43 847.55,398.1 C845.79,397.77 846.44,398.1 846.44,398.1 C846.44,398.1 839.44,408.31 825.08,405.89 C817.3,404.58 817.22,400.61 817.08,397.48 C817.038988,395.901219 816.807308,394.333182 816.39,392.81 L816.39,392.81 Z" id="Shape" fill="#67647E"></path>
            <path d="M845.94,474.17 C845.94,474.17 812.68,475.53 806.04,485.98 C806.04,485.98 814.66,481.89 822.36,483.1 C830.06,484.31 845.94,474.17 845.94,474.17 Z" id="Shape" fill="#000000" opacity="0.1"></path>
            <path d="M809.21,510.59 C809.21,510.59 824.93,511.65 828.26,508.32 C831.59,504.99 831.6,503.03 831.6,503.03 L809.21,510.59 Z" id="Shape" fill="#000000" opacity="0.1"></path>
            <path d="M849.12,442.12 C849.12,442.12 835.81,457.84 851.99,464.64 L849.12,442.12 Z" id="Shape" fill="#000000" opacity="0.1"></path>
            <path d="M770.37,411.75 C770.37,411.75 775.21,421.62 777.63,422.27 L770.37,411.75 Z" id="Shape" fill="#000000" opacity="0.1"></path>
            <path d="M754.05,407.51 C754.05,407.51 766.14,418.4 768.41,419.45 C768.41,419.45 755.86,407.51 754.05,407.51 Z" id="Shape" fill="#000000" opacity="0.1"></path>
            <path d="M802.26,397.09 C802.26,397.09 790.62,414.47 798.18,425.09 C798.18,425.05 793.95,412.5 802.26,397.09 Z" id="Shape" fill="#000000" opacity="0.1"></path>
            <path d="M831.6,528.73 L828.04,532.08 L827.54,532.54 L823.42,536.44 C823.13,536.66 822.84,536.88 822.54,537.08 C805.77,549.08 802.41,530.84 802.41,530.84 C802.41,530.84 795.01,535.68 793.95,531.75 C792.89,527.82 811.18,522.23 813.95,522.53 C814.192701,522.554804 814.437299,522.554804 814.68,522.53 C816.00154,522.310245 817.27421,521.860072 818.44,521.2 L819.25,520.77 C820.181324,520.245615 821.085791,519.6749 821.96,519.06 L831.6,528.73 Z" id="Shape" fill="#CC818C"></path>
            <path d="M849.68,368.52 C849.698163,376.98857 845.251881,384.839867 837.98,389.18 C837.645106,388.61851 837.351015,388.033669 837.1,387.43 C836.24,385.43 835.71,383.27 834.84,381.26 C833.888627,379.065716 832.531526,377.070778 830.84,375.38 C830.553313,375.04497 830.184648,374.790005 829.77,374.64 C828.983947,374.53158 828.187987,374.752278 827.57,375.25 C826.552016,375.939639 825.416767,376.437793 824.22,376.72 C823.002117,376.999431 821.726892,376.619899 820.86,375.72 C819.92,374.6 820.05,372.96 820.32,371.53 C820.91,368.4 821.89,365.32 821.9,362.14 C821.91,358.96 820.69,355.54 817.9,353.96 C815.46,352.57 812.43,352.96 809.72,352.18 C809.300332,352.070097 808.889241,351.929724 808.49,351.76 C815.305223,344.765018 825.67941,342.597303 834.725356,346.278052 C843.771301,349.958801 849.684782,358.753884 849.68,368.52 L849.68,368.52 Z" id="Shape" fill="#000000" opacity="0.1"></path>
            <path d="M806.85,347.92 C806.42,348.15 805.94,348.57 806.07,349.05 C806.1531,349.278865 806.307294,349.475111 806.51,349.61 C807.629535,350.51372 808.923009,351.177476 810.31,351.56 C813.02,352.3 816.06,351.95 818.5,353.34 C821.26,354.91 822.5,358.34 822.5,361.52 C822.5,364.7 821.5,367.78 820.93,370.9 C820.66,372.34 820.52,373.98 821.46,375.1 C822.330054,375.994689 823.602319,376.37334 824.82,376.1 C826.016864,375.82323 827.152489,375.328301 828.17,374.64 C828.790601,374.139261 829.589501,373.915135 830.38,374.02 C830.791274,374.176484 831.158442,374.430413 831.45,374.76 C833.142566,376.453742 834.499723,378.452156 835.45,380.65 C836.33,382.65 836.85,384.8 837.71,386.82 C838.459279,388.880031 839.864689,390.636795 841.71,391.82 C843.63,392.88 846.29,392.82 847.77,391.18 C849.25,389.54 849.13,387.29 849.83,385.32 C851.03,381.89 854.38,379.74 856.48,376.78 C858.83,373.45 859.48,369.27 860.12,365.24 C860.404541,363.971068 860.424964,362.657163 860.18,361.38 C859.905721,360.53456 859.550753,359.717464 859.12,358.94 C856.78,354.1 856.83,348.01 853.12,344.15 C850.32,341.25 846.07,340.37 842.07,339.87 C838.07,339.37 833.87,339.09 830.44,336.98 C829.478285,336.25285 828.417554,335.666923 827.29,335.24 C826.112108,334.825543 824.806469,335.314104 824.19,336.4 C824.119502,336.707717 823.979225,336.995114 823.78,337.24 C823.416584,337.449742 822.975501,337.475688 822.59,337.31 L817.27,335.88 L817.88,338.56 C815.946383,338.64108 814.018323,338.299831 812.23,337.56 C812.13,339.08 813.84,340.06 814.37,341.48 C814.759731,342.797068 814.372709,344.221312 813.37,345.16 C811.44,347.1 809.03,346.73 806.85,347.92 Z" id="Shape" fill="#585268"></path>
            <path d="M785.29,709.04 L785.07,711.45 L784.98,711.45 C776.31,716.29 758.38,702.79 758.38,702.79 L760.25,700.92 C760.87055,701.608426 761.168738,702.528445 761.07,703.45 L764.73,703.65 L769.11,708.38 C769.11,708.38 780.96,709.75 784.17,708.99 L785.29,709.04 Z" id="Shape" fill="#000000" opacity="0.1"></path>
            <path d="M783.77,722.18 C778.13,723.44 758.38,723.35 758.38,723.35 L747.3,725.1 C747.3,725.1 728.3,726.92 726.19,721.02 C724.08,715.12 727.85,715.49 727.85,715.49 L728,715.49 L735.91,714.85 C735.91,714.85 745.91,710.97 749.62,708.3 C752.523497,706.039383 755.266743,703.580151 757.83,700.94 C757.83,700.94 761.13,700.3 761.07,704.12 L764.73,704.32 L769.11,709.06 C769.11,709.06 780.96,710.43 784.17,709.66 L785.29,709.66 L784.78,715.51 L784.92,715.68 C785.68,716.6 788.81,721.06 783.77,722.18 Z" id="Shape" fill="#FF748F"></path>
            <circle id="Oval" fill="#575988" cx="763.32" cy="707.52" r="0.55"></circle>
            <circle id="Oval" fill="#575988" cx="749.11" cy="713.68" r="0.55"></circle>
            <circle id="Oval" fill="#575988" cx="741.79" cy="715.9" r="0.55"></circle>
            <circle id="Oval" fill="#575988" cx="752.84" cy="712.5" r="0.55"></circle>
            <circle id="Oval" fill="#575988" cx="745.44" cy="714.79" r="0.55"></circle>
            <circle id="Oval" fill="#575988" cx="756.61" cy="710.75" r="0.55"></circle>
            <circle id="Oval" fill="#575988" cx="760.34" cy="709.13" r="0.55"></circle>
            <path d="M783.77,722.18 C778.13,723.44 758.38,723.35 758.38,723.35 L747.3,725.1 C747.3,725.1 728.3,726.92 726.19,721.02 C724.08,715.12 727.85,715.49 727.85,715.49 L728,715.49 C729.21,717.06 731.64,718.84 736.41,718.93 L750.07,719.48 L764.22,718.48 C764.22,718.48 777.48,718.09 779.64,717.63 C781.454188,717.14163 783.221191,716.49239 784.92,715.69 C785.68,716.6 788.81,721.06 783.77,722.18 Z" id="Shape" fill="#DCE6F2"></path>
            <path d="M748.37,723.77 C747.613988,723.78051 746.860163,723.686282 746.13,723.49 L746.29,722.91 C748.153721,723.310634 750.089213,723.224536 751.91,722.66 C752.58,722.48 753.24,722.29 753.91,722.09 C755.120201,721.706154 756.352434,721.395591 757.6,721.16 C759.615643,720.89802 761.652389,720.837721 763.68,720.98 L764.11,720.98 C770.168629,721.298414 776.243863,721.027138 782.25,720.17 C783.675244,720.07114 785.032992,719.525242 786.13,718.61 L786.56,719.04 C785.374708,720.047008 783.900874,720.652645 782.35,720.77 C776.304045,721.63196 770.18853,721.90324 764.09,721.58 L763.65,721.58 C761.649,721.43986 759.639001,721.50016 757.65,721.76 C756.428871,721.987771 755.223184,722.291698 754.04,722.67 C753.37,722.87 752.7,723.07 752.04,723.24 C750.842881,723.565781 749.610379,723.743772 748.37,723.77 L748.37,723.77 Z" id="Shape" fill="#575988" opacity="0.5"></path>
            <path d="M831.6,528.73 L828.04,532.08 L819.2,520.76 C820.131324,520.235615 821.035791,519.6649 821.91,519.05 L831.6,528.73 Z" id="Shape" fill="#000000" opacity="0.1"></path>
            <path d="M871.68,435.98 L878.68,445.65 L878.68,455.78 C878.68,455.78 881.85,466.51 878.68,477.24 L879.02,486.61 C879.02,486.61 875.65,495.22 876.86,497.34 C876.86,497.34 876.26,503.69 868.1,508.07 C859.94,512.45 850.68,522.83 850.68,522.83 C850.68,522.83 847.2,529.48 837.83,527.97 L828.91,531.75 L818.64,518.6 L832.54,511.04 C832.54,511.04 837.38,504.55 840.25,504.85 L852.04,491.09 C852.04,491.09 852.34,486.71 855.36,486.71 C855.36,486.71 849.77,482.18 851.73,479.46 C853.69,476.74 852.04,464.64 852.04,464.64 L871.68,435.98 Z" id="Shape" fill="#67647E"></path>
            <path d="M858.68,480.06 C858.68,480.06 874.55,479.76 876.51,483.84 C878.47,487.92 863.47,477.79 858.68,480.06 Z" id="Shape" fill="#000000" opacity="0.1"></path>
            <path d="M827.61,531.75 C827.61194,532.014964 827.5885,532.279505 827.54,532.54 C827.16343,535.048943 825.073534,536.946568 822.54,537.08 L822.26,537.08 C819.310799,537.08 816.92,534.689201 816.92,531.74 C816.921215,531.150497 817.022661,530.565493 817.22,530.01 C814.7,528.01 814.56,524.33 814.63,522.51 C815.95154,522.290245 817.22421,521.840072 818.39,521.18 C819.0476,523.069219 819.930642,524.872237 821.02,526.55 C821.426461,526.453999 821.842372,526.403687 822.26,526.4 C825.214723,526.4 827.61,528.795277 827.61,531.75 L827.61,531.75 Z" id="Shape" fill="#000000" opacity="0.1"></path>
            <path d="M818.87,519.98 C818.87,519.98 815.29,520.79 815.29,521.44 C815.29,522.09 814.48,527.99 818.41,530.44 C822.34,532.89 821.94,527.06 821.94,527.06 C821.94,527.06 818.56,521.88 818.87,519.98 Z" id="Shape" fill="#575988"></path>
            <circle id="Oval" fill="#E4AAB4" cx="822.86" cy="531.75" r="5.34"></circle>
            <circle id="Oval" fill="#DCE6F2" cx="822.86" cy="531.75" r="4.58"></circle>
            <path d="M802.06,533.82 C802.06,533.82 813.35,543.18 827.85,537.24 L827.85,541.78 C827.85,541.78 818.18,548.43 809.42,544.4 C800.66,540.37 802.06,533.82 802.06,533.82 Z" id="Shape" fill="#000000" opacity="0.1"></path>
            <path d="M802.06,532.61 C802.06,532.61 813.35,541.98 827.85,536.03 L827.85,540.57 C827.85,540.57 818.18,547.22 809.42,543.19 C800.66,539.16 802.06,532.61 802.06,532.61 Z" id="Shape" fill="#000000" opacity="0.1"></path>
            <path d="M802.06,532.61 C802.06,532.61 813.35,541.98 827.85,536.03 L827.85,540.57 C827.85,540.57 818.18,547.22 809.42,543.19 C800.66,539.16 802.06,532.61 802.06,532.61 Z" id="Shape" fill="#444053"></path>
            <path d="M802.36,532.61 C802.36,532.61 813.65,541.98 828.16,536.03 L828.16,540.57 C828.16,540.57 818.49,547.22 809.72,543.19 C800.95,539.16 802.36,532.61 802.36,532.61 Z" id="Shape" fill="#000000" opacity="0.05"></path>
            <path d="M766.59,700.92 C766.59,700.92 781.71,703.7 783.92,704.3 C786.13,704.9 783.32,705.96 783.32,705.96 C783.32,705.96 769.52,703.49 766.59,700.92 Z" id="Shape" fill="#000000" opacity="0.1"></path>
            <path d="M766.24,692.91 C766.49,692.91 776.52,690.09 778.68,685.26" id="Shape" fill="#000000" opacity="0.1"></path>
            <path d="M780.87,635.08 C780.87,635.08 784.93,640.42 787.55,640.27 C790.17,640.12 783.25,634.88 780.87,635.08 Z" id="Shape" fill="#000000" opacity="0.1"></path>
            <path d="M783.12,643.98 C783.12,643.98 784.83,647.75 787.35,646.54" id="Shape" fill="#000000" opacity="0.1"></path>
            <path d="M792.68,560.98 L803.4,589.25 C803.4,589.25 804.91,571.06 801.72,565.62 C799.868897,562.44326 796.34022,560.632081 792.68,560.98 Z" id="Shape" fill="#000000" opacity="0.05"></path>
            <g id="Group" opacity="0.1" transform="translate(805.000000, 336.000000)" fill="#000000">
                <path d="M14.02,0.98 L13.93,0.57 L12.21,0.11 L12.4,0.95 C12.9390284,0.989979432 13.479861,0.999994851 14.02,0.98 L14.02,0.98 Z" id="Shape"></path>
                <path d="M9.29,7.8 L9.47,7.64 C10.4747958,6.70256962 10.8621679,5.27704008 10.47,3.96 C10.2620446,3.45841184 9.9713356,2.99530572 9.61,2.59 C8.76276334,2.42295974 7.93262315,2.17860396 7.13,1.86 C7.03,3.37 8.73,4.35 9.26,5.77 C9.50561815,6.42261639 9.51622595,7.14041055 9.29,7.8 L9.29,7.8 Z" id="Shape"></path>
                <path d="M37.88,54.27 C36.0160176,53.095037 34.5922828,51.3373397 33.83,49.27 C32.98,47.27 32.45,45.11 31.58,43.11 C30.6297232,40.912156 29.2725662,38.9137425 27.58,37.22 C27.291221,36.8872966 26.9232093,36.6327839 26.51,36.48 C25.7242723,36.3763501 24.930164,36.5965347 24.31,37.09 C23.292016,37.7796386 22.1567672,38.2777925 20.96,38.56 C19.7422503,38.8353555 18.4690086,38.4564146 17.6,37.56 C16.66,36.44 16.79,34.79 17.06,33.36 C17.65,30.24 18.63,27.15 18.64,23.98 C18.65,20.81 17.43,17.37 14.64,15.8 C12.2,14.41 9.17,14.8 6.46,14.02 C5.06989912,13.6376776 3.77311606,12.9739697 2.65,12.07 C2.57857121,12.011876 2.51170823,11.9483562 2.45,11.88 C2.22274834,11.9671323 2.00216191,12.0707411 1.79,12.19 C1.35,12.42 0.88,12.84 1,13.32 C1.09039489,13.5476008 1.24719448,13.7427292 1.45,13.88 C2.56827419,14.7856571 3.86217048,15.4496302 5.25,15.83 C7.96,16.57 10.99,16.22 13.43,17.61 C16.19,19.18 17.43,22.61 17.43,25.79 C17.43,28.97 16.43,32.05 15.85,35.17 C15.58,36.61 15.45,38.25 16.39,39.37 C17.2590086,40.2664146 18.5322503,40.6453555 19.75,40.37 C20.9468645,40.0932296 22.082489,39.5983007 23.1,38.91 C23.7169773,38.409797 24.5126258,38.1855688 25.3,38.29 C25.7126144,38.4439257 26.0803626,38.6982562 26.37,39.03 C28.0587006,40.7269348 29.4153304,42.7245721 30.37,44.92 C31.25,46.92 31.77,49.07 32.63,51.09 C33.3792786,53.1500313 34.7846891,54.9067945 36.63,56.09 C38.54,57.15 41.21,57.09 42.63,55.45 C43.0233731,55.0047706 43.3287659,54.488996 43.53,53.93 C41.8824115,55.1583393 39.663001,55.2918967 37.88,54.27 L37.88,54.27 Z" id="Shape"></path>
                <path d="M46.52,46.58 C48.03,44.67 50.02,43.04 51.44,41.04 C51.72,40.64 51.98,40.22 52.22,39.8 C50.39,42.13 47.88,43.98 46.52,46.58 Z" id="Shape"></path>
            </g>
        </g>
    </g>
</svg>