<svg xmlns="http://www.w3.org/2000/svg" viewBox="0 0 207.57 105.39"><defs><style>.cls-1{font-size:30px;font-family:IBMPlexMono-SemiBold, IBM Plex Mono;font-weight:600;}.cls-1,.cls-2{fill:#231f20;}</style></defs><title>Asset 1</title><g id="Layer_2" data-name="Layer 2"><g id="light02"><text class="cls-1" transform="translate(63.57 25.47)">Rent <tspan x="0" y="36">Control </tspan><tspan x="0" y="72">Calc</tspan></text><path class="cls-2" d="M47.87,24.91,27.42,4.47a4.08,4.08,0,0,0-5.78,0L1.2,24.91A4.09,4.09,0,0,0,0,27.8V94.08a4.09,4.09,0,0,0,4.09,4.09H45a4.09,4.09,0,0,0,4.09-4.09V27.8A4.12,4.12,0,0,0,47.87,24.91ZM9.2,90.5a4.6,4.6,0,1,1,4.6-4.6A4.6,4.6,0,0,1,9.2,90.5Zm0-15.33a4.6,4.6,0,1,1,4.6-4.6A4.6,4.6,0,0,1,9.2,75.17Zm0-15.33a4.6,4.6,0,1,1,4.6-4.6A4.6,4.6,0,0,1,9.2,59.84ZM24.53,90.5a4.6,4.6,0,1,1,4.6-4.6A4.6,4.6,0,0,1,24.53,90.5Zm0-15.33a4.6,4.6,0,1,1,4.6-4.6A4.6,4.6,0,0,1,24.53,75.17Zm0-15.33a4.6,4.6,0,1,1,4.6-4.6A4.6,4.6,0,0,1,24.53,59.84ZM44.46,85.9a4.6,4.6,0,0,1-9.2,0V70.57a4.6,4.6,0,0,1,9.2,0Zm-4.6-26.06a4.6,4.6,0,1,1,4.6-4.6A4.6,4.6,0,0,1,39.86,59.84Zm4.6-18.06a2.72,2.72,0,0,1-2.72,2.73H7.33A2.73,2.73,0,0,1,4.6,41.78V35a2.73,2.73,0,0,1,2.73-2.73H41.74A2.72,2.72,0,0,1,44.46,35Z"/></g></g></svg>